<svg width="25" height="24" viewBox="0 0 25 24" fill="none" xmlns="http://www.w3.org/2000/svg">
<path d="M10.018 19.5663L5.18942 7.23975L4.62622 7.45974L9.45005 19.7738L10.018 19.5663Z" fill="#959595"/>
<path d="M9.89136 20.9016L10.7131 23L11.2766 22.7793L10.4597 20.6945L9.89136 20.9016Z" fill="#959595"/>
<path d="M4.50144 15.0899C4.43801 16.4231 6.48143 16.5353 8.12225 17.7797L6.47519 13.5745C5.7899 13.9657 5.1178 14.4614 4.50144 15.0899Z" fill="#959595"/>
<path d="M14.9135 12.2132C14.8636 12.2084 14.8141 12.2069 14.7643 12.2036C14.6139 12.5663 14.4335 13.0202 14.2458 13.5295C13.2687 13.8873 12.3758 13.7894 11.6693 13.5522C11.4716 13.0312 11.281 12.5674 11.1229 12.1981C11.0463 12.2029 10.9697 12.2069 10.8923 12.2132C10.0545 12.2986 9.02159 12.4904 7.95166 12.8885L11.3114 21.4659C11.7382 21.8344 12.2229 22.0471 12.9031 22.0218C14.8431 22.0958 15.2043 20.2515 17.104 18.2862C18.7928 16.5402 21.3752 16.5853 21.3041 15.0904C19.2845 13.0279 16.6706 12.3928 14.9135 12.2132ZM11.8607 14.0707C12.2024 14.159 12.5735 14.2173 12.9698 14.2173C13.3141 14.2173 13.6764 14.1741 14.0507 14.0736C13.5092 15.6268 12.9735 17.5492 12.9735 19.08C12.9735 17.5485 12.4198 15.6246 11.8607 14.0707Z" fill="#959595"/>
<path d="M17.7826 6.27593C17.7324 5.6383 17.7328 5.33433 17.717 5.1411C17.7174 5.12497 17.7196 5.11067 17.7203 5.09234C17.7277 5.02524 17.7269 4.9585 17.7196 4.89177C17.6675 2.73579 15.5709 1 12.9871 1C10.3713 1 8.25085 2.77905 8.25085 4.9728C8.25085 5.04614 8.25269 5.10774 8.25599 5.16457L8.25085 5.17337C8.25085 5.17337 8.25269 5.1818 8.25745 5.19757C8.26699 5.34423 8.28899 5.43113 8.32199 5.47513C8.37589 6.10873 8.15259 6.30086 8.30475 7.97835C8.46865 9.78747 9.06485 11.172 9.41941 11.2519C9.77544 11.3319 10.1788 11.3766 10.3214 11.1199C10.3555 11.0576 10.3658 10.9931 10.3595 10.926C10.3559 10.9216 10.3515 10.9175 10.3474 10.9131C10.3214 10.7049 10.1307 10.4724 9.92761 10.215C9.73328 9.96933 9.56938 9.23894 9.37284 8.59838C9.01755 8.49058 8.75208 8.07038 8.75208 7.56549C8.75208 7.27545 8.69195 6.85892 8.83312 6.66716C8.91231 6.55973 9.05311 6.52159 9.20051 6.50839C9.20345 6.43396 9.20675 6.35769 9.21078 6.27923C9.30135 5.9639 9.39301 5.6889 9.41318 5.5316C9.42381 5.4502 9.38458 5.36367 9.31675 5.28337C9.36368 5.0179 9.42784 4.78617 9.51621 4.64097C9.67644 4.37588 9.90047 4.23434 10.2125 4.23434C10.6103 4.23031 11.153 4.45911 11.8937 4.95997C12.2992 5.2346 12.6699 5.32517 13.0025 5.31013C13.7391 5.272 14.2876 4.71797 14.6128 4.49907C14.7001 4.44041 14.82 4.39641 14.9568 4.38101C14.9751 4.37881 14.9942 4.37771 15.0132 4.37661C15.0323 4.37551 15.0506 4.37478 15.0704 4.37478C15.5981 4.37111 16.305 4.81954 16.4759 6.50179C16.672 6.50253 16.8884 6.52306 16.9947 6.66716C17.1359 6.85892 17.0757 7.27545 17.0757 7.56549C17.0757 8.07001 16.811 8.49058 16.4557 8.59838C16.0381 9.37644 15.85 10.3888 15.7777 10.9982C15.7777 10.9982 15.8595 11.5035 16.3512 11.4503C16.8425 11.3975 16.6357 10.3994 16.9632 9.54804C17.2913 8.69664 17.5913 8.59068 17.7826 7.92518C17.974 7.26042 17.8648 7.31322 17.7826 6.27593Z" fill="#959595"/>
<path d="M15.5609 6.5H13.6876C13.3921 6.5 13.2164 6.80066 13.2164 7.09656V7.23333H12.4831V7.09656C12.4831 6.80066 12.3772 6.5 12.082 6.5H10.2087C9.91317 6.5 9.5498 6.80066 9.5498 7.09656V7.89919C9.5498 8.19509 9.91317 8.33332 10.2087 8.33332H12.082C12.3772 8.33332 12.4831 8.19509 12.4831 7.89919V7.59999H13.2164V7.89919C13.2164 8.19509 13.3921 8.33332 13.6876 8.33332H15.5609C15.8561 8.33332 16.1498 8.19509 16.1498 7.89919V7.09656C16.1498 6.80066 15.8561 6.5 15.5609 6.5Z" fill="#959595"/>
</svg>
