<svg xmlns="http://www.w3.org/2000/svg" viewBox="0 0 252.99 220.84"><defs><style>.cls-1,.cls-25,.cls-27,.cls-29,.cls-37,.cls-45{fill:none;}.cls-2{opacity:0.25;}.cls-3{fill:#60d2b0;}.cls-4{fill:#fe747d;opacity:0.2;}.cls-5{fill:#7fa810;}.cls-6{fill:#9aba25;}.cls-7{fill:#a8a18f;}.cls-8{fill:#9e998b;}.cls-9{fill:#aaa599;}.cls-10{fill:#153233;}.cls-11{fill:#efe8d8;}.cls-12{fill:#edebe6;}.cls-13{fill:#89857a;}.cls-14{fill:#0d2121;}.cls-15{fill:#b2aea3;}.cls-16{fill:#a09c92;}.cls-17{fill:#cec8b7;}.cls-18{fill:#e2dcc9;}.cls-19{fill:#77746b;}.cls-20{fill:#d3c9b8;}.cls-21{fill:#d3cec7;}.cls-22{fill:#bcb5a6;}.cls-23{fill:#7a5856;}.cls-24{fill:#543d3d;}.cls-25{stroke:#543d3d;}.cls-25,.cls-27,.cls-29,.cls-37,.cls-45{stroke-miterlimit:10;stroke-width:0.68px;}.cls-26{fill:#d3cfc7;}.cls-27{stroke:#c6bc9e;}.cls-28{opacity:0.61;}.cls-29{stroke:#77746b;}.cls-30{fill:#fff;}.cls-31{fill:#e8eced;}.cls-32{fill:#347989;}.cls-33{fill:#2d6d77;}.cls-34{fill:#e2dbcc;}.cls-35{fill:#bfbaa9;}.cls-36{fill:#8c372f;}.cls-37{stroke:#6b2724;}.cls-38{fill:#e5e1da;}.cls-39{fill:#8e8a7e;}.cls-40{fill:#3a869b;}.cls-41{fill:#a5a092;}.cls-42{fill:#337989;}.cls-43{fill:#602724;}.cls-44{fill:#f8f2dc;}.cls-45{stroke:#c9c3ad;}.cls-46{fill:#827671;}.cls-47{opacity:0.35;}.cls-48{fill:#527022;}.cls-49{fill:#659624;}.cls-50{fill:#81a549;}.cls-51{fill:#8abc3b;}.cls-52{fill:#f9f4e4;}</style></defs><title>Basic</title><g id="Layer_2" data-name="Layer 2"><g id="Layer_1-2" data-name="Layer 1"><g id="Basic"><rect class="cls-1" x="21.09" y="5.02" width="210.8" height="210.8"/><g class="cls-2"><path class="cls-3" d="M190,154c.05-.11.12-.22.18-.34,2.48-3.44,7.35-5.46,11.17-6.48a10.76,10.76,0,0,0,4.67-2.78,9.45,9.45,0,0,0,2.82-3.34c.66-1.78-3-1.78-3.89-1.85-2.78-.26-6.37-.56-7.52-3.49,3.79-.2,7.25-1.54,5.51-6a50,50,0,0,0-3.31-6,11.36,11.36,0,0,1-.7-8.84c1.5-5.29,8.24-11.89,4.65-17.53a9.84,9.84,0,0,0-2.77-2.31c-.18-.12-.34-.26-.5-.39-.32-2.29-.81-4.55-1.25-6.8a23,23,0,0,0-1-5,4.81,4.81,0,0,0-.92-2.28c-.16-.17-.92,0-.84.28,0,.09.06.18.1.27-.54-.28-1.11-.5-1.66-.73-.76-.32-1.49-.68-2.22-1.06-2.46-2.62-5.12-5.06-7.36-7.93-.46-.59-1.29-1.43-1.29-2.24,0-1,1-2.29,1.38-3.22s.58-2-.35-2.65c-.38-.26-3-1.93-4.06-1.79a6.51,6.51,0,0,0-2.07-2.11c-1.83-1.16-1.11-2.5-.26-4.27a6.2,6.2,0,0,1,3.79-3.54,19.77,19.77,0,0,0,4-1.88c2.14-1.52,1.22-4.33-.45-5.85s-4.78-.15-6.49.68c-3.48,1.69-6.61,4-10,5.87a12.81,12.81,0,0,1-4.73,1.7c-.76.07-.72.14-.49-.36s.49-1.18.72-1.78a17.93,17.93,0,0,0,.82-2.86c1.14-5.88-6-3.64-9.32-4.44s-2.57-4.76-1.4-7.07c1.45-2.88,3.76-5.24,5.5-7.94,1.12-1.75,2.54-4.25,1.37-6.34-.94-1.67-2.73-2.94-4.62-2.09-2.18,1-3.54,3.89-4.57,5.88C151.1,28,150,31,148.69,34c-.93,2.22-2.17,4.07-2.71,6.46-.66,2.9-4.43,2.54-6.71,1.84-2.68-.82-3.28-3.54-2.94-6,0-.22-.23-.31-.4-.29-5.71.64-12.76,3.75-17.1-1.65-4.88-6.07.1-14.2-2.62-20.94-.14-.33-.61-.22-.8,0-2.88,3.06-3.37,6.95-3.36,11,0,4.34.61,9.17-2.32,12.72a20.69,20.69,0,0,0-4.36-3.05.54.54,0,0,0-.77.28c-1.87,9.23-11.68,15.85-20.58,17-4.64.59-12.55.42-13.52,6.19a27.09,27.09,0,0,1-4.63-6c-.05-.11-.25-.14-.35-.13a2.19,2.19,0,0,0-1.81,1.21c-.56.92-3.12.14-4.23.13-.19,0-.56.2-.47.44,1.89,5.08,3.7,10.65,2.9,16.12-1.16-1.8-3.06-4-5.24-3.1S54.3,69.88,54.75,72a5.82,5.82,0,0,0,.25.84,31.8,31.8,0,0,0-3.4,6.74c-.35.33-.69.66-1,1-1.88,1.88-4.39,4.62-3.63,7.52a.29.29,0,0,0,.18.18,42.12,42.12,0,0,1-3.61,3.57c-1.67,1.55-4.25,3.59-4.68,6s3.92,2.11,5.19,2c1.62-.09,1.76.09,2,1.69a7.48,7.48,0,0,1-.12,2.71,5.05,5.05,0,0,1-3.24,3.37C40,108.76,37,109,34.39,110.25a6.81,6.81,0,0,0-3.92,5.68c-.12,1.76,1.46,2.1,2.87,1.87,3.26-.54,6.38-2.64,9.12-4.36a50.38,50.38,0,0,0,5.92-4,14.16,14.16,0,0,1-1.76,9.34c-1.23,2.18-2.88,4.12-3.65,6.54-.88,2.79.39,5.54,1.93,7.83.25.36,2.12,2.29,1.6,2.69a32.36,32.36,0,0,1-3.75,2.36,29.47,29.47,0,0,0-5.79,4c-.18.18,0,.39.2.4a12.39,12.39,0,0,1,11.58,8.77,11.79,11.79,0,0,1-.29,7.58,7.17,7.17,0,0,1-3.7,4.27c-2.47,1.36-5.78,2.65-7.43,5.07-1.09,1.6-.41,4.81,2,4.76,2.76-.06,4.78-4.05,6.23-5.91a7.73,7.73,0,0,1,5-3.17,9.76,9.76,0,0,1,7.6,1.21c3.51,2.24,5,6.8,4.91,10.76,0,3.54-1.67,5.81-3.58,8.59-.76,1.11-2.51,3.18-2.19,4.68s2.76.91,3.78.66c5.72-1.44,5.57-8.9,10.57-11.46-.51,2-.61,4.16-1.2,6.19-.12.4.66.17.79.06,1.18-1.05,2.66-1.4,4-2.21.87-.54,3.13,1.18,3.87,1.64a8.2,8.2,0,0,1,4,5.81c0,.44,0,.88.09,1.31,0,.25,0,.51,0,.76a.22.22,0,0,0,.19.24,9.28,9.28,0,0,0,.77,2.28h0c0,.33,0,.65,0,1C84,198,86.17,199.29,88.6,199c3.24-.46,6-3.3,8.94-4.61a9,9,0,0,1,7.91.13c1.42.76,1.7,2.68,2.29,4,1,2.38,4.31,2.38,6.33,1.27,1.78-1,2.68-7.93,4.54-7.53,3,.65,6,1.74,9,2.49a14,14,0,0,0,8.51-1c.07,1.78.36,3.75,2.17,4.52s3.88-.63,5.24-1.49a.31.31,0,0,0,.15-.3c-.19-1-.73-3.25,1.18-3.05.72.08,1.45.29,2.16.43a5.62,5.62,0,0,0,3.79-.38,10.91,10.91,0,0,0,3.61-3.51c1.13-1.5,2-1.46,3.87-1.46,1,0,2.61.23,3.42-.52a65,65,0,0,0,5.15-5.47c3.22-3.75,6.37-7.77,11-9.91,2.21-1,5.11-1.75,7.39-.66,1.19.57,2.24,1.4,3.48,1.87,2.9,1.1,3.64-2.81,4-4.75.59-3.68-2.19-5.41-3.58-8.34C188.07,158.59,189,156,190,154Z"/><path class="cls-3" d="M25.72,55.9c1.4.07,4.43,0,5-1.74.36-1.19-1.42-2.58-2.21-3.1L28.32,51s0-.08,0-.1L28,50.8a4.34,4.34,0,0,0-1.14-.29,5.9,5.9,0,0,0-3.69.05c-1,.4-2.34,1.5-2.38,2.69C20.68,55.43,24.19,55.83,25.72,55.9Z"/><path class="cls-3" d="M38.28,40.45c1.11,1.25,1.27,1.49,2.9,1.49.18,0,.56-.08.59-.31.53-4.48-.61-8.6-2-12.81-.11-.33-1-.09-.86.23,0,.08.05.16.07.24A24,24,0,0,0,35,22.08c0-.06-.21-.06-.37,0-1.14-1.06-2.42-.84-3.16,1.07-1.66,4.31.13,8.14,2.47,11.76A46.31,46.31,0,0,0,38.28,40.45Z"/><path class="cls-3" d="M62.44,36.47c.2,0,.68,0,.78-.24.66-1.36,1.27-3,.28-4.39a4.41,4.41,0,0,0-2.44-1.43c-1.54-.61-3.67-.74-4.1,1.22C56.3,34.62,60.17,36.23,62.44,36.47Z"/><path class="cls-3" d="M81.06,32.09a6.19,6.19,0,0,0,4.53-4c1.06-2.86-.77-5.21-3.2-6.46.24-.12.4-.3-.06-.19l-.23.06L82,21.42c-.22-.11-.88.25-.82.28l.06,0c-2.65.9-5.18,2.85-5.31,5.84A4.43,4.43,0,0,0,81.06,32.09Z"/><path class="cls-3" d="M119.62,28.49h2a.69.69,0,0,0,.61-.29c1.93-4.05,2.65-8.49,4-12.74,0-.16-.23-.18-.48-.11.38-2,.29-4.16-1.31-5.09-1.31-.76-2.45.9-2.91,1.86-1.28,2.64-1.62,5.86-2,8.74a26.71,26.71,0,0,0-.24,7.52C119.38,28.48,119.55,28.49,119.62,28.49Z"/><path class="cls-3" d="M187.24,65.11c.4,1.42,2.75,1.27,3.84,1.11,1.28-.18,3.39-.69,4-2,.69-1.63-2.1-2.59-3.55-3l1.46-.47c.51-.16.39-.65-.13-.48-.74.24-1.49.44-2.19.7l-.17,0c-.25-.07-.78.23-.67.41a4.8,4.8,0,0,0-1.65,1.35A3.05,3.05,0,0,0,187.24,65.11Z"/><path class="cls-3" d="M229.81,140a.57.57,0,0,0-.41.28,16.3,16.3,0,0,0-1.81.53c-.07,0-.32.15-.27.27,1.67,3.67,6,4.1,9.53,4.14a16.91,16.91,0,0,0,6.4-.62c.17-.05.41-.18.36-.39C242,137.42,234.94,139.28,229.81,140Z"/><path class="cls-3" d="M217,154.42a1.85,1.85,0,0,0-.55-1.25c.29-.11.57-.35.22-.42l-1.09-.17c-1.57-.71-3.76-.3-5.27.18-.33.1-.39.33-.26.44l-.2.11-.76.11c-.41.07-.71.58-.12.48l.19,0a3,3,0,0,0-.48,3.59,4.27,4.27,0,0,0,4,2.18c2.58-.06,4.66-2,6.14-4,0,0,0-.14,0-.18A14.75,14.75,0,0,0,217,154.42Z"/><path class="cls-3" d="M205.36,174.3c-.14-.11-.56,0-.74.16a3.2,3.2,0,0,0-2.32.41c-.88.54-.88,2-1.12,3,0,.06,0,.09.07.11,1.55.43,3.3,1,4.89.42,1.38-.48,1.67-2.1,1.93-3.35a.07.07,0,0,0,0-.08C207.23,174.36,206.16,174.89,205.36,174.3Z"/><path class="cls-3" d="M198,198.09a3.86,3.86,0,0,0-1.84,2.63,5.91,5.91,0,0,0-.09,4c.73,1.54,2.67,1.57,4,.83a3.65,3.65,0,0,0,1.81-3.48c.22.34,1,.11.84-.26C202,200.26,200.26,197,198,198.09Z"/><path class="cls-3" d="M158.1,212.87l.18-.1c.51-.26-.27-.32-.52-.2s-.29.15-.43.23a8.6,8.6,0,0,0-2.71.36c-.51.16-.42.52.09.36a6.78,6.78,0,0,1,2-.3,3.33,3.33,0,0,0-.39.36l-.35.16c-1.66.94-2.13,3.32-2.39,5a.15.15,0,0,0,.09.16,3.71,3.71,0,0,0,2.75.47,3.93,3.93,0,0,0,1.32-.82c1.76-.5,3.56-1.55,3.12-3.52A2.94,2.94,0,0,0,158.1,212.87Z"/><path class="cls-3" d="M138.92,213.17a3.37,3.37,0,0,0-2.76.33,3.59,3.59,0,0,0-2.21.39,7.82,7.82,0,0,0-3,3.08,2.45,2.45,0,0,0,1.41,3.57,5.29,5.29,0,0,0,4.79-.71c2.12-1.47,2.27-4.29,1.86-6.6A.08.08,0,0,0,138.92,213.17Z"/><path class="cls-3" d="M84.12,208.07a1.66,1.66,0,0,0-1.2-.17c-.46.08-.84.51-1.27.57a.72.72,0,0,0-.3.11,4.1,4.1,0,0,0-1.55.58c-1.46,1-1.33,3.45-1.34,5,0,.11.31.07.35.06,2-.33,4.15-.7,5.1-2.64a6.94,6.94,0,0,0,.51-1.62c.09-.35.15-.7.21-1.06S84.55,208.36,84.12,208.07Z"/><path class="cls-3" d="M6.19,144.87c0-.07,0-.12-.21-.12l-.6,0c-.34,0-.68,0-1,0a6.25,6.25,0,0,0-2.7.39c-1.55.71-1.65,2.5-1.67,4a.11.11,0,0,0,.08.07c2.36.9,5.84,1,7.52-1.29a1.69,1.69,0,0,0-.09-2.28A2.74,2.74,0,0,0,6.19,144.87Z"/><path class="cls-3" d="M33,98.67s.06-.12,0-.16a10.31,10.31,0,0,0-9.15-1.59,7.09,7.09,0,0,0-4,1.23c-1.32,1-1,2.57,0,3.65C23.74,106.12,30.27,102.11,33,98.67Z"/><path class="cls-3" d="M28.65,80.13c.22,0,.42-.19.38-.35a10.65,10.65,0,0,0-4.54-6.47l.5.16c.35.12,1-.37.51-.55-2.43-.87-7.53-1.29-8.81,1.73-.67,1.56,1,3,2.07,3.86a17,17,0,0,0,6.33,3.15C26.65,82,28.4,81.54,28.65,80.13Z"/><path class="cls-3" d="M38.18,6.52c1.78.88,6,1.17,6.82-1.17a2.11,2.11,0,0,0-.25-1.7,5,5,0,0,0,.37-2.32c0-.06-.12-.07-.15-.06a13,13,0,0,0-2.25.23,7.07,7.07,0,0,0-1.9-.86A7.79,7.79,0,0,1,44.44,1c.32.12,1-.35.51-.52-2.53-.88-5.54-.73-7.48,1.31A2.82,2.82,0,0,0,38.18,6.52Z"/><path class="cls-3" d="M199,43.44A4,4,0,0,0,201.78,40a4.23,4.23,0,0,0-.45-2.82c.29,0,.93-.27.62-.42a10.44,10.44,0,0,0-1.88-.7,2.76,2.76,0,0,0-1-.18,5.43,5.43,0,0,0-2.49.35c-1.94.78-2.86,3-3.42,4.81a.11.11,0,0,0,0,.11C194.74,42.61,196.78,44,199,43.44Z"/><path class="cls-3" d="M220.54,86.32a9.82,9.82,0,0,1-2.46-.47,11.93,11.93,0,0,1,1.56-.41c.36-.06.75-.47.14-.36a14.88,14.88,0,0,0-2.2.6l-.27-.1-.12,0q-.6-.24-1.17-.51c-.26-.13-.86.17-.77.37-1.93.46-3.27,2.71-3.84,5.07a9.42,9.42,0,0,0-.84,1.57s0,.1.07.11a8.26,8.26,0,0,0,6.62-1.35,7.31,7.31,0,0,0,3.53-4.16C220.86,86.45,220.73,86.32,220.54,86.32Z"/><path class="cls-3" d="M250.9,109.86c-.25-.18-1,.17-.69.43l.07.06a3.58,3.58,0,0,0-.47.14,4.59,4.59,0,0,0-1.27.67.68.68,0,0,0-.34.17,7.43,7.43,0,0,0-.52.62c-.18.09-.31.22-.22.31a13.77,13.77,0,0,1-1.28,1.75s-.12.14-.08.2c.2.37.39.66.85.61h0a2.8,2.8,0,0,0-.22,1c0,1.67,2.21,2.62,3.45,3.17a.62.62,0,0,0,.74-.2c.23-.35.46-.73.67-1.13.23,0,.63-.08.7-.28C253.33,114.72,253.42,111.68,250.9,109.86Z"/></g><ellipse class="cls-4" cx="126.49" cy="182.93" rx="104.49" ry="7.47"/><path class="cls-5" d="M225.32,176.09a10,10,0,0,0-9.77-10.23,9.41,9.41,0,0,0-3.72.77,10.57,10.57,0,0,0-7.34-6.4,12.41,12.41,0,0,0,.37-3,12.71,12.71,0,0,0-11.06-12.6,12.5,12.5,0,0,0-21.86-1,9.23,9.23,0,0,0-7.72-4.12,9.12,9.12,0,0,0-9.21,9c0,.23,0,.46,0,.68h0a9.12,9.12,0,0,0-9.2,9c0,.29,0,.57,0,.85h0a9.13,9.13,0,0,0-9.19,8.62,9,9,0,0,0-5.47,8.26,8.87,8.87,0,0,0,.5,2.92h93.28A10.59,10.59,0,0,0,225.32,176.09Z"/><path class="cls-6" d="M200.66,163.66a6,6,0,0,0-1.58.22c-.68-5.52-5.79-9.81-12-9.81a12.69,12.69,0,0,0-7.47,2.38,9.47,9.47,0,0,0-11.17-2.53,10.29,10.29,0,0,0-15.37-1.86,9.37,9.37,0,0,0-2.39-.31,9.91,9.91,0,0,0-9.73,9.36,8.67,8.67,0,0,0-4.63,4.06,6.55,6.55,0,0,0-2.14-2.08,12.39,12.39,0,0,0-13.13.16,13.81,13.81,0,0,0-6,11.84,14.85,14.85,0,0,0,.55,3.5h11.72l78.95.57c1-1.46,1.54-4.89,1.54-6.89C207.77,167.51,204.58,163.66,200.66,163.66Z"/><polygon class="cls-7" points="111.1 36.87 105.64 42.66 128.49 75.39 158.49 75.39 111.1 36.87"/><rect class="cls-8" x="132.92" y="130.97" width="35.12" height="47.11"/><rect class="cls-9" x="130.85" y="172.57" width="35.48" height="5.63"/><polygon class="cls-1" points="131.44 116.54 166.56 116.54 173.84 129.38 130.76 128.93 131.44 116.54"/><path class="cls-10" d="M130.22,116.24c.51.11,36.1.41,36.1.41L173.56,129l-43.51-.29Z"/><polygon class="cls-11" points="130.79 128.93 130.79 133.19 131.05 133.19 130.9 178.32 133.32 178.31 133.43 133.19 166.16 133.19 166.04 178.36 170.51 178.36 170.43 133.19 173.67 133.19 173.67 128.93 130.79 128.93"/><path class="cls-12" d="M158.48,152.22c0-.05,0-5.68,0-5.74,0-1.46-.59-2.35-1.27-2.35S156,145,156,146.48v5.77Z"/><rect class="cls-13" x="133.43" y="133.19" width="32.73" height="3.24"/><path class="cls-14" d="M144.13,116.59c.85.57,13,12,13,12l-26.71.17-.1-12.14Z"/><rect class="cls-15" x="126.76" y="81.76" width="39.55" height="34.95"/><rect class="cls-16" x="130.3" y="82.09" width="13.88" height="34.55"/><polygon class="cls-17" points="130.59 78.46 158.26 78.46 166.42 78.46 166.25 84.34 130.76 84.32 130.59 78.46"/><path class="cls-18" d="M130.53,81.87h35.58l.23-3.69H130.51Z"/><path class="cls-19" d="M130.36,74l23.6.12,5.61,4.32-29.09-.12Z"/><polygon class="cls-20" points="107.29 42 111.16 39.25 158.75 78.83 164.97 79.09 111.5 35.33 104.79 40.06 107.29 42"/><path class="cls-21" d="M169.09,79.09,111.67,31.41,102.19,38l2.58,2c5.76-4.17,6.73-4.71,6.73-4.71L165,79.09Z"/><rect class="cls-22" x="130.66" y="81.84" width="13.82" height="2.44"/><rect class="cls-13" x="133.43" y="133.19" width="1.53" height="45.18"/><rect class="cls-12" x="134.97" y="140.52" width="25.23" height="37.73"/><rect class="cls-23" x="140.08" y="142.22" width="14.15" height="35.91"/><path class="cls-24" d="M145.82,151.53c0-.05,0-3.8,0-3.86,0-1.45-.86-2.63-1.92-2.63s-1.91,1.18-1.91,2.63v3.85Z"/><path class="cls-24" d="M151.75,151.53c0-.05,0-3.8,0-3.86,0-1.45-.86-2.63-1.92-2.63s-1.92,1.18-1.92,2.63v3.85Z"/><rect class="cls-24" x="141.97" y="152.58" width="3.95" height="9.16"/><rect class="cls-24" x="147.9" y="152.58" width="3.95" height="9.16"/><rect class="cls-25" x="141.97" y="166.98" width="3.95" height="6.61"/><rect class="cls-25" x="147.9" y="166.98" width="3.95" height="6.61"/><path class="cls-26" d="M138.79,152.22c0-.05,0-5.68,0-5.74,0-1.46-.59-2.35-1.27-2.35s-1.21.89-1.21,2.35v5.77Z"/><path class="cls-26" d="M158.17,152.22c0-.05,0-5.68,0-5.74,0-1.46-.59-2.35-1.28-2.35s-1.2.89-1.2,2.35v5.77Z"/><rect class="cls-26" x="136.22" y="153.47" width="2.59" height="24.55"/><rect class="cls-26" x="155.99" y="153.47" width="2.59" height="24.55"/><polyline class="cls-27" points="104.46 39.77 111.2 35.07 164.67 78.83"/><g class="cls-28"><line class="cls-29" x1="129.61" y1="84.44" x2="166.11" y2="84.64"/><line class="cls-29" x1="128.76" y1="87.25" x2="166.11" y2="87.4"/><line class="cls-29" x1="130.03" y1="90.41" x2="166.29" y2="90.59"/><line class="cls-29" x1="130.29" y1="93.52" x2="166.26" y2="93.8"/><line class="cls-29" x1="130.23" y1="96.65" x2="166.29" y2="96.87"/><line class="cls-29" x1="130.25" y1="99.8" x2="166.26" y2="100.11"/><line class="cls-29" x1="130.25" y1="102.96" x2="166.29" y2="103.29"/><line class="cls-29" x1="130.5" y1="106.2" x2="166.29" y2="106.47"/><line class="cls-29" x1="130.08" y1="109.33" x2="166.26" y2="109.6"/><line class="cls-29" x1="130.16" y1="112.5" x2="166.29" y2="112.81"/><line class="cls-29" x1="129.55" y1="115.65" x2="166.26" y2="115.88"/></g><rect class="cls-30" x="139.04" y="87.44" width="13.41" height="22.16"/><rect class="cls-31" x="139.04" y="87.44" width="5.48" height="22.16"/><rect class="cls-32" x="142.18" y="91.19" width="7.44" height="16.82"/><rect class="cls-33" x="142.18" y="91.19" width="2.56" height="16.59"/><polygon class="cls-30" points="146.27 100.13 146.27 90.57 145.22 90.57 145.22 100.13 141.86 100.13 141.86 101.31 149.62 101.31 149.62 100.13 146.27 100.13"/><path class="cls-34" d="M53.59,61.07c1.14-.9,39.55-27.73,39.55-27.73l38.19,29.78-78.08-.45Z"/><rect class="cls-35" x="52.57" y="70.17" width="79.43" height="49.44"/><g class="cls-28"><line class="cls-29" x1="52.8" y1="75.05" x2="132.3" y2="75.37"/><line class="cls-29" x1="52.8" y1="78.46" x2="132.3" y2="78.78"/><line class="cls-29" x1="52.8" y1="82.38" x2="132.02" y2="82.72"/><line class="cls-29" x1="52.8" y1="86.31" x2="132.07" y2="86.67"/><line class="cls-29" x1="52.8" y1="90.23" x2="132.07" y2="90.55"/><line class="cls-29" x1="52.8" y1="94.15" x2="132.02" y2="94.45"/><line class="cls-29" x1="52.8" y1="98.07" x2="132.02" y2="98.39"/><line class="cls-29" x1="52.8" y1="101.99" x2="132.02" y2="102.33"/><line class="cls-29" x1="52.8" y1="105.91" x2="132.09" y2="106.19"/><line class="cls-29" x1="52.48" y1="109.83" x2="131.98" y2="110.14"/><line class="cls-29" x1="52.8" y1="113.75" x2="132.01" y2="114.09"/><line class="cls-29" x1="52.8" y1="117.67" x2="131.97" y2="118"/></g><rect class="cls-11" x="52.4" y="119.61" width="79.95" height="5.97"/><rect class="cls-36" x="52.4" y="125.57" width="79.95" height="56.6"/><line class="cls-37" x1="52.75" y1="130.04" x2="132.25" y2="130.17"/><line class="cls-37" x1="52.76" y1="133.45" x2="132.26" y2="133.58"/><line class="cls-37" x1="52.76" y1="137.37" x2="132.27" y2="137.5"/><line class="cls-37" x1="52.77" y1="141.29" x2="132.27" y2="141.42"/><line class="cls-37" x1="52.78" y1="145.21" x2="132.28" y2="145.34"/><line class="cls-37" x1="52.79" y1="149.13" x2="132.29" y2="149.26"/><line class="cls-37" x1="52.8" y1="153.05" x2="132.3" y2="153.19"/><line class="cls-37" x1="52.81" y1="156.97" x2="132.31" y2="157.11"/><line class="cls-37" x1="52.82" y1="160.89" x2="132.32" y2="161.03"/><line class="cls-37" x1="52.83" y1="164.82" x2="132.33" y2="164.95"/><line class="cls-37" x1="52.84" y1="168.74" x2="132.34" y2="168.87"/><line class="cls-37" x1="52.84" y1="172.66" x2="132.35" y2="172.79"/><path class="cls-38" d="M47.11,62.67C47.8,62,93,30.45,93,30.45l41.94,32.22-5.8.17L92.46,35.73,54.27,62.67Z"/><polygon class="cls-35" points="115.82 57.55 69.45 57.55 69.45 57.55 92.8 39.99 115.82 57.55"/><path class="cls-39" d="M87.36,62.38c.45-.23,6.81-5.17,6.81-5.17l21.27,0,7,5.15Z"/><rect class="cls-40" x="74.05" y="76.47" width="37.85" height="37.85"/><polygon class="cls-41" points="88.37 62.21 104.05 48.8 92.8 39.99 62 62.55 88.37 62.21"/><polygon class="cls-19" points="88.94 62.33 94.17 57.21 69.05 57.44 62 62.55 88.94 62.33"/><path class="cls-41" d="M91.89,41.19c.34.11,21.6,16.48,21.6,16.48l2.33-.12L92.8,40l-1.13,1.65"/><polygon class="cls-19" points="112.8 57.16 119.39 62.33 122.48 62.33 115.32 57.11 112.8 57.16"/><rect class="cls-42" x="74.22" y="76.47" width="12.79" height="37.68"/><rect class="cls-42" x="74.05" y="76.47" width="37.51" height="8.01"/><rect class="cls-30" x="74.05" y="76.47" width="3.07" height="37.85"/><rect class="cls-30" x="109" y="76.47" width="3.07" height="37.85"/><rect class="cls-30" x="91.35" y="58.83" width="3.24" height="37.85" transform="translate(170.73 -15.22) rotate(90)"/><rect class="cls-30" x="91.8" y="94.4" width="2.35" height="37.85" transform="translate(206.29 20.35) rotate(90)"/><path class="cls-30" d="M112.07,93V90.66H101.76V86h9.51V85.1h-9.51V78.31h-.86V85.1H94.34V76.47H91.27V85.1H84.71V77.63h-.86V85.1H74.79V86h9.06v4.7H75.58V93h8.27v6H75.13v.86h8.72v14.28h.86V99.83h6.56v14.49h3.07V99.83h6.56V113h.86V99.83h9.85V99h-9.85V93ZM100.9,86v4.7H94.34V86ZM84.71,86h6.56v4.7H84.71Zm0,13V93h6.56v6Zm16.19,0H94.34V93h6.56Z"/><rect class="cls-43" x="52.4" y="125.57" width="79.84" height="5.06"/><rect class="cls-41" x="52.57" y="70.17" width="79.44" height="2.5"/><path class="cls-27" d="M54.27,62.67c.52-.35,38.19-26.94,38.19-26.94l36.65,27.11"/><rect class="cls-44" x="68.76" y="141.26" width="48.59" height="40.86"/><rect class="cls-45" x="71.09" y="151.77" width="42.28" height="30.23"/><rect class="cls-46" x="71.44" y="143.81" width="19.32" height="5.8"/><path class="cls-30" d="M91.32,143.59H71.21v6.28h.06v0H90.53v0h.79Zm-9.43,1h3.87v4.38H81.89Zm-1,4.38H76.72v-4.38h4.15Zm5.91-4.38H90.3v4.38H86.78Zm-11.08,0v4.38H72.23v-4.38Z"/><rect class="cls-46" x="94.45" y="143.81" width="19.32" height="5.8"/><path class="cls-30" d="M114.34,143.59H94.22v6.28h.06v0h19.26v0h.8Zm-9.43,1h3.86v4.38h-3.86Zm-1,4.38H99.74v-4.38h4.14Zm5.91-4.38h3.53v4.38h-3.53Zm-11.08,0v4.38H95.25v-4.38Z"/><rect class="cls-46" x="68.76" y="152.85" width="5.8" height="1.53"/><rect class="cls-46" x="68.59" y="178.16" width="5.8" height="1.53"/><rect class="cls-46" x="111.38" y="152.85" width="5.8" height="1.53"/><rect class="cls-46" x="111.21" y="178.16" width="5.8" height="1.53"/><g class="cls-47"><line class="cls-45" x1="70.96" y1="156.17" x2="113.49" y2="156.3"/><line class="cls-45" x1="70.98" y1="160.97" x2="113.52" y2="161.1"/><line class="cls-45" x1="71.01" y1="165.76" x2="113.54" y2="165.9"/><line class="cls-45" x1="71.04" y1="170.56" x2="113.57" y2="170.69"/><line class="cls-45" x1="71.07" y1="175.36" x2="113.6" y2="175.49"/><line class="cls-45" x1="71.1" y1="180.16" x2="113.63" y2="180.29"/></g><path class="cls-43" d="M188.39,167.59a10.89,10.89,0,0,1-1.23.28c-.61,1.88-1.44,4.37-3.36,4.94.2-1.3.78-1.93,1-3.36h-1.7l-.2,2.79a.43.43,0,0,1-.11.32c-.22.17-.47-.14-.57-.39-.34-.94-.68-1.88-1-2.82l-1.87.12a8.74,8.74,0,0,1,1.7,4.32,26.23,26.23,0,0,1,0,4.69l1.78-.07a.46.46,0,0,0,.38-.13.44.44,0,0,0,.07-.3,31.63,31.63,0,0,1,.29-3.59,10,10,0,0,0,3.54-2.54A5.28,5.28,0,0,0,188.39,167.59Z"/><path class="cls-48" d="M193.1,151.93c-.31-10.08-7.32-16.89-11.36-16.89h-.25c-4,0-11.05,6.81-11.35,16.89-.09,2.8-1,9.25-.51,11.59,1.15,5.34,8.64,6.94,11.81,7.09h.35c3.17-.15,10.67-1.75,11.81-7.09C194.11,161.18,193.18,154.73,193.1,151.93Z"/><path class="cls-49" d="M193.29,151.77c-.3-10-7.4-16.72-11.47-16.72h-.26c-4.07,0-11.16,6.74-11.47,16.72-.06,2.12-.35,4.23-.51,6.35s-.78,4.15,1.08,6a3.72,3.72,0,0,0,2.64,1.22,2.73,2.73,0,0,0,2.72-1.6.63.63,0,0,1,.74-.31.28.28,0,0,1,.14.12L178,165a2.39,2.39,0,0,0,1.39,1,4.53,4.53,0,0,0,3.41-.78,5.09,5.09,0,0,0,1.8-2.05,9.46,9.46,0,0,0,1.24,1.53A4.14,4.14,0,0,0,189,166a3.19,3.19,0,0,0,2-.75c.4-.39,2.1-.93,2.23-1.3a19,19,0,0,0,.53-5.9C193.64,155.93,193.36,153.85,193.29,151.77Z"/><path class="cls-50" d="M193.23,151.3c-.3-9.76-7.32-16.36-11.35-16.36h-.26c-4,0-11,6.6-11.35,16.36-.06,2.07-1.7,4.84,1.22,6.57a6.46,6.46,0,0,0,3,.83,6.77,6.77,0,0,0,3.6-.9,6.08,6.08,0,0,0,1.8-1.82,8,8,0,0,0,1.88,2.53,8.36,8.36,0,0,0,4.13,1.74,6.58,6.58,0,0,0,2.17,0A2.64,2.64,0,0,0,190,159a3.66,3.66,0,0,0,.49-2.76,2.85,2.85,0,0,0,.8,1.33,1.26,1.26,0,0,0,.56.35c2.86.91,1.74-2.22,1.71-2.55C193.43,154,193.27,152.64,193.23,151.3Z"/><path class="cls-51" d="M174.88,151.82A13.62,13.62,0,0,0,176,150c.42-.59,1.27-1,1.84-.58a1.61,1.61,0,0,1,.46.76c.52,1.42.82,3.07,2.07,3.91a2.77,2.77,0,0,0,3.84-1,13,13,0,0,0,.64-2.65c.25-.88,1-1.79,1.87-1.67,1.62.21,1.36,3,2.75,3.81,1.07.66,2.43-.16,3.38-1l.5-.41c0-.49-.06-.93-.07-1.31C193,139.81,186,133,181.92,133h-.26c-4,0-11,6.82-11.35,16.89,0,0,0,.07,0,.1a3.85,3.85,0,0,0,.32.79C171.43,152.27,173.69,153,174.88,151.82Z"/><polygon class="cls-52" points="132.01 70 52.4 70 46.94 62.49 134.88 62.55 132.01 70"/><polygon class="cls-18" points="52.57 70.17 49.95 66.3 133.43 66.34 132.01 70.17 52.57 70.17"/><path class="cls-43" d="M45.78,171.91a10,10,0,0,1-1.23.27c-.6,1.89-1.43,4.37-3.36,4.95.2-1.31.78-1.94,1-3.36H40.52l-.19,2.79a.46.46,0,0,1-.12.33c-.21.17-.47-.14-.56-.4-.35-.94-.69-1.88-1-2.82l-1.88.13a8.61,8.61,0,0,1,1.7,4.32,26.12,26.12,0,0,1,0,4.68l1.78-.06c.14,0,.3,0,.38-.13a.46.46,0,0,0,.07-.31,34.12,34.12,0,0,1,.29-3.59,9.75,9.75,0,0,0,3.54-2.53A5.26,5.26,0,0,0,45.78,171.91Z"/><path class="cls-48" d="M50.49,156.24c-.3-10.07-7.32-16.89-11.35-16.89h-.26c-4,0-11.05,6.82-11.35,16.89-.08,2.81-1,9.26-.51,11.6,1.15,5.33,8.64,6.94,11.81,7.08h.36c3.17-.14,10.66-1.75,11.81-7.08C51.5,165.5,50.57,159.05,50.49,156.24Z"/><path class="cls-49" d="M50.69,156.08c-.31-10-7.4-16.72-11.47-16.72H39c-4.08,0-11.17,6.75-11.48,16.72-.06,2.12-.35,4.24-.51,6.36s-.78,4.15,1.08,6a3.67,3.67,0,0,0,2.64,1.22,2.72,2.72,0,0,0,2.72-1.59.64.64,0,0,1,.74-.32.34.34,0,0,1,.14.12l1.14,1.47a2.29,2.29,0,0,0,1.39,1,4.6,4.6,0,0,0,3.41-.79A5.06,5.06,0,0,0,42,167.48,9.14,9.14,0,0,0,43.26,169a4.11,4.11,0,0,0,3.12,1.28,3.28,3.28,0,0,0,2-.75c.4-.39,2.1-.94,2.23-1.31a18.61,18.61,0,0,0,.53-5.9C51,160.25,50.75,158.17,50.69,156.08Z"/><path class="cls-50" d="M50.62,155.61c-.3-9.76-7.32-16.36-11.35-16.36H39c-4,0-11.05,6.6-11.36,16.36-.06,2.08-1.7,4.85,1.23,6.57a6.5,6.5,0,0,0,3,.84,6.68,6.68,0,0,0,3.6-.91,6.08,6.08,0,0,0,1.8-1.82,7.25,7.25,0,0,0,6,4.27,6.52,6.52,0,0,0,2.16,0,2.7,2.7,0,0,0,1.88-1.29,3.63,3.63,0,0,0,.48-2.75,2.82,2.82,0,0,0,.8,1.32,1.32,1.32,0,0,0,.56.36c2.86.9,1.74-2.22,1.71-2.55C50.82,158.3,50.67,157,50.62,155.61Z"/><path class="cls-51" d="M32.27,156.13a13,13,0,0,0,1.11-1.84c.42-.58,1.27-1,1.84-.57a1.61,1.61,0,0,1,.47.76c.51,1.41.81,3.07,2.06,3.91a2.79,2.79,0,0,0,3.85-1,13.67,13.67,0,0,0,.64-2.65c.24-.88,1-1.78,1.87-1.66,1.62.2,1.35,2.94,2.75,3.8,1.07.66,2.42-.15,3.38-1l.49-.4c0-.49-.06-.94-.07-1.31-.3-10.08-7.32-16.89-11.35-16.89h-.26c-4,0-11,6.81-11.35,16.89v.1a4.79,4.79,0,0,0,.31.79C28.82,156.58,31.09,157.36,32.27,156.13Z"/></g></g></g></svg>