<svg width="18" height="20" viewBox="0 0 18 20" fill="none" xmlns="http://www.w3.org/2000/svg">
<path fill-rule="evenodd" clip-rule="evenodd" d="M15.2222 8.22219C15.2222 4.61402 13.2325 2.10973 10.6581 1.35792C10.5649 1.11672 10.4175 0.892482 10.2173 0.704328C9.53303 0.061448 8.46685 0.061448 7.78262 0.704328C7.5828 0.892074 7.43567 1.11575 7.34243 1.35635C4.76471 2.10491 2.77775 4.60371 2.77775 8.22219C2.77775 10.5634 2.30574 11.8753 1.43194 12.826C1.28587 12.985 0.890151 13.349 0.622029 13.5956L0.621925 13.5957L0.62189 13.5958C0.495036 13.7125 0.396767 13.8029 0.367053 13.8328L0.111084 14.0924V17.1236H5.52262C5.70561 18.0676 6.21784 18.6992 7.14415 19.2645C8.28366 19.9599 9.71629 19.9599 10.8558 19.2645C11.6733 18.7656 12.2214 17.9989 12.4438 17.1236H17.8889V14.0924L17.6329 13.8328C17.606 13.8055 17.5117 13.7185 17.3885 13.6049L17.3884 13.6048C17.1211 13.3582 16.7175 12.9859 16.5692 12.8239C15.6948 11.8688 15.2222 10.5552 15.2222 8.22219ZM10.5437 17.1236H7.38098C7.50656 17.3572 7.72061 17.5336 8.07021 17.7469C8.6411 18.0953 9.35885 18.0953 9.92974 17.7469C10.1941 17.5856 10.4007 17.3722 10.5437 17.1236ZM15.2579 14.0244C15.445 14.2287 15.8459 14.6022 16.1111 14.8462V15.3459H1.88888V14.8466C2.15205 14.6054 2.55415 14.2323 2.74086 14.0291C3.92818 12.7373 4.55554 10.9936 4.55554 8.22224C4.55554 4.86215 6.62911 2.89991 8.99999 2.89991C11.3642 2.89991 13.4444 4.87228 13.4444 8.22224C13.4444 10.9847 14.072 12.7289 15.2579 14.0244Z" fill="#F2AB3E"/>
</svg>
