<svg width="16" height="16" viewBox="0 0 16 16" fill="none" xmlns="http://www.w3.org/2000/svg">
<g clip-path="url(#clip0)">
<path d="M13.9105 4.15901H4.16552C3.26253 4.15901 2.52433 3.4241 2.52433 2.51782C2.52433 1.61483 3.25924 0.876622 4.16552 0.876622H13.9138C14.1577 0.876622 14.3521 0.678888 14.3521 0.438311C14.3521 0.194439 14.1544 0 13.9138 0H4.16552C2.77809 0 1.64771 1.13038 1.64771 2.51782V13.4822C1.64771 14.8696 2.77809 16 4.16552 16H13.9138C14.1577 16 14.3521 15.8023 14.3521 15.5617V4.59732C14.3488 4.35675 14.1544 4.15901 13.9105 4.15901ZM13.4722 15.1234H4.16552C3.26253 15.1234 2.52433 14.3885 2.52433 13.4822V4.42925C2.96593 4.80824 3.53936 5.03893 4.16552 5.03893H13.4722V15.1234Z" fill="#08384D"/>
<path d="M4.30403 2.11914C4.06016 2.11914 3.86572 2.31687 3.86572 2.55745C3.86572 2.79803 4.06346 2.99576 4.30403 2.99576H12.5364C12.7802 2.99576 12.9747 2.79803 12.9747 2.55745C12.9747 2.31687 12.7769 2.11914 12.5364 2.11914H4.30403Z" fill="#08384D"/>
<path d="M5.84627 13.2051C5.8957 13.2215 5.94514 13.2314 5.99457 13.2314C6.17583 13.2314 6.3439 13.1194 6.40652 12.9414L6.9404 11.4485H8.99684C9.01332 11.4485 9.03309 11.4485 9.04957 11.4452L9.58345 12.9414C9.64607 13.1194 9.81744 13.2314 9.9954 13.2314C10.0448 13.2314 10.0943 13.2215 10.1437 13.2051C10.3711 13.1227 10.4897 12.8722 10.4073 12.6448L8.41023 7.04563C8.40693 7.03244 8.40034 7.01926 8.39375 7.00608C8.39045 6.99949 8.38716 6.9929 8.38386 6.9863C8.38057 6.97971 8.37727 6.97312 8.37398 6.96653C8.37068 6.95994 8.36409 6.95335 8.36079 6.94346C8.3575 6.94017 8.3542 6.93358 8.35091 6.93028C8.34761 6.92369 8.34102 6.9171 8.33443 6.91051C8.33113 6.90721 8.32784 6.90062 8.32125 6.89732C8.31795 6.89073 8.31136 6.88744 8.30477 6.88085C8.29818 6.87426 8.29488 6.87096 8.28829 6.86437C8.285 6.86107 8.2784 6.85778 8.27511 6.85119C8.26852 6.84459 8.26193 6.8413 8.25533 6.83471C8.25204 6.83141 8.24545 6.82812 8.24215 6.82482C8.23556 6.82153 8.22897 6.81493 8.22238 6.81164C8.21579 6.80834 8.2092 6.80505 8.20261 6.80175C8.19601 6.79846 8.18942 6.79516 8.18283 6.79187C8.16965 6.78527 8.15647 6.77868 8.14329 6.77539H8.13999C8.12681 6.77209 8.11363 6.7688 8.10044 6.7655C8.09385 6.7655 8.09056 6.76221 8.08397 6.76221C8.07408 6.75891 8.06749 6.75891 8.0576 6.75561C8.05101 6.75561 8.04442 6.75561 8.03783 6.75232C8.03124 6.75232 8.02135 6.74902 8.01476 6.74902C8.00817 6.74902 8.00158 6.74902 7.99498 6.74902C7.98839 6.74902 7.9818 6.74902 7.97192 6.74902C7.96532 6.74902 7.95544 6.74902 7.94885 6.75232C7.94226 6.75232 7.93566 6.75232 7.92907 6.75561C7.91919 6.75561 7.9126 6.75891 7.90271 6.76221C7.89612 6.76221 7.89282 6.7655 7.88623 6.7655C7.87305 6.7688 7.85987 6.77209 7.84998 6.77539H7.84668C7.8335 6.77868 7.82032 6.78527 7.80714 6.79187C7.80055 6.79516 7.79395 6.79846 7.78736 6.80175C7.78077 6.80505 7.77418 6.80834 7.76759 6.81164C7.761 6.81493 7.75441 6.82153 7.74452 6.82482C7.74123 6.82812 7.73463 6.83141 7.73134 6.83471C7.72475 6.8413 7.71816 6.84459 7.71157 6.85119C7.70827 6.85448 7.70168 6.85778 7.69838 6.86437C7.69179 6.87096 7.6885 6.87426 7.68191 6.88085C7.67531 6.88744 7.67202 6.89073 7.66543 6.89732C7.66213 6.90062 7.65884 6.90721 7.65225 6.91051C7.64565 6.9171 7.64236 6.92369 7.63577 6.93028C7.63247 6.93358 7.62918 6.94017 7.62588 6.94346C7.62258 6.95005 7.61599 6.95664 7.6127 6.96324C7.6094 6.96983 7.60611 6.97642 7.60281 6.98301C7.59952 6.9896 7.59622 6.99619 7.59292 7.00278C7.58633 7.01597 7.57974 7.02915 7.57645 7.04233L5.57274 12.6415C5.50024 12.8722 5.61888 13.1227 5.84627 13.2051ZM7.99828 8.49568L8.73978 10.5719H7.25348L7.99828 8.49568Z" fill="#08384D"/>
</g>
<defs>
<clipPath id="clip0">
<rect width="16" height="16" fill="white"/>
</clipPath>
</defs>
</svg>
