<svg width="16" height="16" viewBox="0 0 16 16" fill="none" xmlns="http://www.w3.org/2000/svg">
<path fill-rule="evenodd" clip-rule="evenodd" d="M3.33337 3.33335C2.96518 3.33335 2.66671 3.63183 2.66671 4.00002V13.3334C2.66671 13.7015 2.96518 14 3.33337 14H12.6667C13.0349 14 13.3334 13.7015 13.3334 13.3334V4.00002C13.3334 3.63183 13.0349 3.33335 12.6667 3.33335H3.33337ZM1.33337 4.00002C1.33337 2.89545 2.2288 2.00002 3.33337 2.00002H12.6667C13.7713 2.00002 14.6667 2.89545 14.6667 4.00002V13.3334C14.6667 14.4379 13.7713 15.3334 12.6667 15.3334H3.33337C2.2288 15.3334 1.33337 14.4379 1.33337 13.3334V4.00002Z" fill="#959595"/>
<path fill-rule="evenodd" clip-rule="evenodd" d="M10.6667 0.666687C11.0349 0.666687 11.3334 0.965164 11.3334 1.33335V4.00002C11.3334 4.36821 11.0349 4.66669 10.6667 4.66669C10.2985 4.66669 10 4.36821 10 4.00002V1.33335C10 0.965164 10.2985 0.666687 10.6667 0.666687Z" fill="#959595"/>
<path fill-rule="evenodd" clip-rule="evenodd" d="M5.33337 0.666687C5.70156 0.666687 6.00004 0.965164 6.00004 1.33335V4.00002C6.00004 4.36821 5.70156 4.66669 5.33337 4.66669C4.96518 4.66669 4.66671 4.36821 4.66671 4.00002V1.33335C4.66671 0.965164 4.96518 0.666687 5.33337 0.666687Z" fill="#959595"/>
<path fill-rule="evenodd" clip-rule="evenodd" d="M1.33337 6.66669C1.33337 6.2985 1.63185 6.00002 2.00004 6.00002H14C14.3682 6.00002 14.6667 6.2985 14.6667 6.66669C14.6667 7.03488 14.3682 7.33335 14 7.33335H2.00004C1.63185 7.33335 1.33337 7.03488 1.33337 6.66669Z" fill="#959595"/>
</svg>
