<svg width="20" height="20" viewBox="0 0 20 20" fill="none" xmlns="http://www.w3.org/2000/svg">
<path fill-rule="evenodd" clip-rule="evenodd" d="M11.471 2.22127C10.4926 4.68682 8.81534 6.63971 6.72597 8.14361C6.86964 8.26549 6.99511 8.4133 7.09433 8.58518L8.68253 11.336C8.7955 11.5317 8.86448 11.7411 8.893 11.9528C11.254 10.899 13.8076 10.4437 16.4431 10.8332L11.471 2.22127ZM12.2861 0.138612V0.138534C12.7816 -0.147482 13.4209 0.0238467 13.7069 0.519237L18.9832 9.65799C19.2693 10.1535 19.0979 10.7928 18.6025 11.0788L18.6025 11.0788C18.1071 11.3649 17.4677 11.1935 17.1817 10.6981L11.9054 1.55939C11.6194 1.064 11.7907 0.424628 12.2861 0.138612ZM1.60417 10.3042L2.22667 9.94471L1.94761 9.46127C1.85925 9.3083 1.91214 9.11088 2.06511 9.02252L3.4294 8.23487C3.58237 8.14658 3.77979 8.19947 3.86815 8.35244L4.14722 8.83588L4.75644 8.48416C5.45581 8.08041 6.35831 8.32221 6.76206 9.02151L8.13855 11.4056C8.48097 11.9987 8.35901 12.7379 7.88745 13.1951C8.19206 15.3687 8.44011 16.7385 9.73597 18.8932C9.80479 19.0078 9.76886 19.157 9.65534 19.2275L8.77456 19.7753C8.42347 19.9936 8.04151 20.0533 7.64058 19.9524C7.23972 19.8514 6.93151 19.6181 6.72557 19.2596L4.42097 15.2468C3.72573 15.6284 2.84167 15.3839 2.44323 14.6938L1.06675 12.3097C0.662997 11.6104 0.904871 10.7078 1.60417 10.3042ZM5.068 12.6485C5.37081 12.4736 5.758 12.5774 5.93284 12.8802C6.10769 13.183 6.00386 13.5702 5.70112 13.745C5.39831 13.9198 5.01112 13.816 4.83636 13.5132C4.66151 13.2105 4.76526 12.8232 5.068 12.6485ZM0.427606 12.3089L0.516512 12.2576C0.546278 12.3434 0.584481 12.4276 0.631434 12.5091L2.00792 14.8931C2.01565 14.9064 2.02354 14.9196 2.03159 14.9325L1.96464 14.9711C1.55667 15.2067 1.03026 15.0656 0.794715 14.6577L0.11409 13.4789C-0.121457 13.0709 0.0196371 12.5445 0.427606 12.3089ZM8.64026 15.2842L9.10761 15.0005C9.31628 14.8739 9.4769 14.6903 9.31253 14.4056L8.49487 13.2796L8.32284 13.4544L8.64026 15.2842Z" fill="#F2AB3E"/>
</svg>
