<svg width="20" height="20" viewBox="0 0 20 20" fill="none" xmlns="http://www.w3.org/2000/svg">
<path fill-rule="evenodd" clip-rule="evenodd" d="M6.80662 2.03777C6.96118 1.80594 7.22137 1.66669 7.5 1.66669H12.5C12.7786 1.66669 13.0388 1.80594 13.1934 2.03777L14.6127 4.16669H17.5C18.163 4.16669 18.7989 4.43008 19.2678 4.89892C19.7366 5.36776 20 6.00365 20 6.66669V15.8334C20 16.4964 19.7366 17.1323 19.2678 17.6011C18.7989 18.07 18.163 18.3334 17.5 18.3334H2.5C1.83696 18.3334 1.20107 18.07 0.732233 17.6011C0.263392 17.1323 0 16.4964 0 15.8334V6.66669C0 6.00365 0.263392 5.36776 0.732233 4.89892C1.20107 4.43008 1.83696 4.16669 2.5 4.16669H5.38735L6.80662 2.03777ZM7.94599 3.33335L6.52671 5.46227C6.37215 5.6941 6.11196 5.83335 5.83333 5.83335H2.5C2.27899 5.83335 2.06702 5.92115 1.91074 6.07743C1.75446 6.23371 1.66667 6.44567 1.66667 6.66669V15.8334C1.66667 16.0544 1.75446 16.2663 1.91074 16.4226C2.06702 16.5789 2.27899 16.6667 2.5 16.6667H17.5C17.721 16.6667 17.933 16.5789 18.0893 16.4226C18.2455 16.2663 18.3333 16.0544 18.3333 15.8334V6.66669C18.3333 6.44567 18.2455 6.23371 18.0893 6.07743C17.933 5.92115 17.721 5.83335 17.5 5.83335H14.1667C13.888 5.83335 13.6278 5.6941 13.4733 5.46227L12.054 3.33335H7.94599Z" fill="#11BDCF"/>
<path fill-rule="evenodd" clip-rule="evenodd" d="M10 8.33335C8.61929 8.33335 7.5 9.45264 7.5 10.8334C7.5 12.2141 8.61929 13.3334 10 13.3334C11.3807 13.3334 12.5 12.2141 12.5 10.8334C12.5 9.45264 11.3807 8.33335 10 8.33335ZM5.83333 10.8334C5.83333 8.53217 7.69881 6.66669 10 6.66669C12.3012 6.66669 14.1667 8.53217 14.1667 10.8334C14.1667 13.1345 12.3012 15 10 15C7.69881 15 5.83333 13.1345 5.83333 10.8334Z" fill="#11BDCF"/>
</svg>
