<svg width="20" height="20" viewBox="0 0 20 20" fill="none" xmlns="http://www.w3.org/2000/svg">
<path fill-rule="evenodd" clip-rule="evenodd" d="M6.80662 2.03771C6.96118 1.80588 7.22137 1.66663 7.5 1.66663H12.5C12.7786 1.66663 13.0388 1.80588 13.1934 2.03771L14.6127 4.16663H17.5C18.163 4.16663 18.7989 4.43002 19.2678 4.89886C19.7366 5.3677 20 6.00358 20 6.66663V15.8333C20 16.4963 19.7366 17.1322 19.2678 17.6011C18.7989 18.0699 18.163 18.3333 17.5 18.3333H2.5C1.83696 18.3333 1.20107 18.0699 0.732233 17.6011C0.263392 17.1322 0 16.4963 0 15.8333V6.66663C0 6.00358 0.263392 5.3677 0.732233 4.89886C1.20107 4.43002 1.83696 4.16663 2.5 4.16663H5.38735L6.80662 2.03771ZM7.94599 3.33329L6.52671 5.46221C6.37215 5.69404 6.11196 5.83329 5.83333 5.83329H2.5C2.27899 5.83329 2.06702 5.92109 1.91074 6.07737C1.75446 6.23365 1.66667 6.44561 1.66667 6.66663V15.8333C1.66667 16.0543 1.75446 16.2663 1.91074 16.4225C2.06703 16.5788 2.27899 16.6666 2.5 16.6666H17.5C17.721 16.6666 17.933 16.5788 18.0893 16.4225C18.2455 16.2663 18.3333 16.0543 18.3333 15.8333V6.66663C18.3333 6.44561 18.2455 6.23365 18.0893 6.07737C17.933 5.92109 17.721 5.83329 17.5 5.83329H14.1667C13.888 5.83329 13.6278 5.69404 13.4733 5.46221L12.054 3.33329H7.94599Z" fill="#F2AB3E"/>
<path fill-rule="evenodd" clip-rule="evenodd" d="M10 8.33329C8.61929 8.33329 7.5 9.45258 7.5 10.8333C7.5 12.214 8.61929 13.3333 10 13.3333C11.3807 13.3333 12.5 12.214 12.5 10.8333C12.5 9.45258 11.3807 8.33329 10 8.33329ZM5.83333 10.8333C5.83333 8.53211 7.69881 6.66663 10 6.66663C12.3012 6.66663 14.1667 8.53211 14.1667 10.8333C14.1667 13.1345 12.3012 15 10 15C7.69881 15 5.83333 13.1345 5.83333 10.8333Z" fill="#F2AB3E"/>
</svg>
