<svg width="16" height="17" viewBox="0 0 16 17" fill="none" xmlns="http://www.w3.org/2000/svg">
<path fill-rule="evenodd" clip-rule="evenodd" d="M3.33325 3.16665C3.15644 3.16665 2.98687 3.23688 2.86185 3.36191C2.73682 3.48693 2.66659 3.6565 2.66659 3.83331V12.8905L4.19518 11.3619C4.32021 11.2369 4.48977 11.1666 4.66659 11.1666H12.6666C12.8434 11.1666 13.013 11.0964 13.138 10.9714C13.263 10.8464 13.3333 10.6768 13.3333 10.5V3.83331C13.3333 3.6565 13.263 3.48693 13.138 3.36191C13.013 3.23688 12.8434 3.16665 12.6666 3.16665H3.33325ZM1.91904 2.4191C2.29411 2.04403 2.80282 1.83331 3.33325 1.83331H12.6666C13.197 1.83331 13.7057 2.04403 14.0808 2.4191C14.4559 2.79417 14.6666 3.30288 14.6666 3.83331V10.5C14.6666 11.0304 14.4559 11.5391 14.0808 11.9142C13.7057 12.2893 13.197 12.5 12.6666 12.5H4.94273L2.47132 14.9714C2.28066 15.1621 1.99391 15.2191 1.7448 15.1159C1.49568 15.0127 1.33325 14.7696 1.33325 14.5V3.83331C1.33325 3.30288 1.54397 2.79417 1.91904 2.4191Z" fill="#033966"/>
</svg>
