<svg width="64" height="64" viewBox="0 0 64 64" fill="none" xmlns="http://www.w3.org/2000/svg">
<path d="M61.1945 62.3264C60.7463 62.777 60.2139 63.1344 59.628 63.3783C59.042 63.6222 58.4139 63.7478 57.7795 63.7478C57.1452 63.7478 56.5171 63.6222 55.9311 63.3783C55.3451 63.1344 54.8128 62.777 54.3645 62.3264L35.033 42.9206C34.5845 42.4704 34.2287 41.9359 33.986 41.3476C33.7433 40.7593 33.6184 40.1288 33.6184 39.4921C33.6184 38.2061 34.1272 36.9728 35.033 36.0635C35.9387 35.1542 37.1671 34.6433 38.448 34.6433C39.7289 34.6433 40.9573 35.1542 41.863 36.0635L61.1996 55.4794C62.1029 56.3882 62.6098 57.62 62.6089 58.9039C62.6079 60.1878 62.0992 61.4188 61.1945 62.3264Z" fill="url(#paint0_linear)"/>
<path d="M47.2764 41.5035H37.0491V44.9397L50.6763 58.6184H50.6914V44.9295L47.2764 41.5035Z" fill="#F0A53C"/>
<path d="M27.4136 2.50159C32.4168 2.50159 37.3076 3.99108 41.4676 6.78172C45.6276 9.57236 48.8699 13.5388 50.7845 18.1795C52.6991 22.8201 53.2001 27.9266 52.224 32.8531C51.2479 37.7796 48.8387 42.3049 45.3009 45.8567C41.7631 49.4085 37.2558 51.8273 32.3487 52.8072C27.4417 53.7872 22.3554 53.2842 17.7331 51.362C13.1108 49.4398 9.16002 46.1846 6.38041 42.0081C3.6008 37.8316 2.11719 32.9214 2.11719 27.8984C2.11719 21.1628 4.78234 14.703 9.52634 9.94015C14.2703 5.17732 20.7046 2.50159 27.4136 2.50159Z" fill="#11BDCF"/>
<path d="M27.4136 8.14476C31.3051 8.14476 35.1091 9.30329 38.3448 11.4739C41.5804 13.6444 44.1023 16.7295 45.5915 20.339C47.0807 23.9485 47.4703 27.9203 46.7111 31.7522C45.9519 35.584 44.078 39.1038 41.3263 41.8664C38.5747 44.629 35.0688 46.5103 31.2521 47.2725C27.4354 48.0347 23.4793 47.6435 19.8841 46.1484C16.2889 44.6533 13.2159 42.1214 11.054 38.873C8.89199 35.6245 7.73804 31.8053 7.73804 27.8984C7.73804 22.6594 9.81099 17.635 13.5009 13.9305C17.1908 10.2259 22.1953 8.14476 27.4136 8.14476Z" fill="white"/>
<path d="M39.9229 24.0711V40.9778C39.9138 41.1722 39.8293 41.3554 39.6875 41.4883C39.5458 41.6211 39.3579 41.6931 39.1641 41.6889H17.743C17.5513 41.6979 17.3638 41.6302 17.2215 41.5008C17.0793 41.3713 16.994 41.1906 16.9841 40.9981V24.0711L27.8616 14.2806C28.0277 14.1414 28.2372 14.0651 28.4535 14.0651C28.6699 14.0651 28.8794 14.1414 29.0455 14.2806L39.9229 24.0711Z" fill="#DBF5F8"/>
<path d="M45.0277 26.0775L30.2799 12.8305C29.7638 12.3885 29.1064 12.148 28.428 12.1531C27.7497 12.1583 27.096 12.4087 26.5866 12.8584L18.8914 19.7765V18.8698C18.8914 18.3606 18.6899 17.8723 18.3313 17.5122C17.9726 17.1521 17.4862 16.9498 16.979 16.9498C16.4718 16.9498 15.9854 17.1521 15.6267 17.5122C15.2681 17.8723 15.0666 18.3606 15.0666 18.8698V23.2127L11.8894 26.0775C11.5357 26.4211 11.3276 26.8884 11.3083 27.3821C11.2891 27.8758 11.4602 28.358 11.786 28.7283C12.1119 29.0986 12.5674 29.3286 13.0578 29.3703C13.5482 29.412 14.0357 29.2624 14.419 28.9524L28.4408 16.3505L42.4727 28.9524C42.8525 29.2925 43.3512 29.4673 43.8593 29.4383C44.3674 29.4092 44.8432 29.1787 45.182 28.7975C45.5208 28.4162 45.6949 27.9155 45.6659 27.4054C45.637 26.8953 45.4074 26.4176 45.0277 26.0775Z" fill="#2A4F77"/>
<defs>
<linearGradient id="paint0_linear" x1="33.6214" y1="49.1962" x2="62.6061" y2="49.1962" gradientUnits="userSpaceOnUse">
<stop stop-color="#F0A53C"/>
<stop offset="0.52" stop-color="#F7B73B"/>
</linearGradient>
</defs>
</svg>
