<svg width="24" height="24" viewBox="0 0 24 24" fill="none" xmlns="http://www.w3.org/2000/svg">
<path d="M23.0306 1.46557H12.5157V0.491803C12.5157 0.221311 12.2945 0 12.0241 0C11.7538 0 11.5326 0.221311 11.5326 0.491803V1.46557H0.983257C0.712912 1.46557 0.491699 1.68688 0.491699 1.95738V15.0098C0.491699 15.2803 0.712912 15.5016 0.983257 15.5016H5.99734L5.25014 17.8672V17.8721L3.51486 23.3607C3.43131 23.6213 3.57875 23.8967 3.83439 23.9754C3.88357 23.9902 3.9327 24 3.98188 24C4.18834 24 4.38496 23.8672 4.4489 23.6557L6.07111 18.5066H17.4364L19.0586 23.6557C19.1225 23.8672 19.3192 24 19.5256 24C19.5748 24 19.6239 23.9902 19.6731 23.9754C19.9337 23.8918 20.0762 23.6164 19.9926 23.3607L17.5102 15.5016H23.0158C23.2861 15.5016 23.5074 15.2803 23.5074 15.0098V1.95738C23.5222 1.68688 23.3009 1.46557 23.0306 1.46557ZM6.39063 17.5279L7.02968 15.5016H16.4926L17.1316 17.5279H6.39063ZM22.539 14.518H16.8514H16.8465H6.67086H6.66594H1.47486V2.44918H22.539V14.518Z" fill="#08384D"/>
<path d="M4.28673 9.43296C4.53254 9.55591 4.82255 9.45263 4.94546 9.21165L5.555 7.98214H7.43772L8.04726 9.21165C8.13082 9.38378 8.30782 9.48706 8.48969 9.48706C8.56341 9.48706 8.63718 9.47231 8.70598 9.43788C8.95178 9.31001 9.05501 9.01493 8.93211 8.77395L6.94124 4.751C6.85769 4.58378 6.6856 4.47559 6.49882 4.47559C6.31203 4.47559 6.13995 4.58378 6.05639 4.751L4.06547 8.77395C3.94754 9.01493 4.04585 9.31001 4.28673 9.43296ZM6.49882 6.07395L6.95108 6.99362H6.04655L6.49882 6.07395Z" fill="#08384D"/>
<path d="M11.493 11.9997H12.5057C13.0316 11.9997 13.4987 11.7391 13.7887 11.2817C13.7936 11.2768 13.7985 11.2669 13.8034 11.262C14.0738 10.7751 14.0738 10.2243 13.8083 9.77678C13.7592 9.66858 13.6904 9.57022 13.6166 9.48169C13.6805 9.41284 13.7395 9.33416 13.7887 9.25055C14.0689 8.79809 14.0738 8.23743 13.8083 7.74562C13.5773 7.28825 13.0808 6.99316 12.545 6.99316H11.493C11.2227 6.99316 11.0015 7.21448 11.0015 7.48497V11.5079C11.0014 11.7784 11.2226 11.9997 11.493 11.9997ZM11.9944 7.97677H12.5499C12.7121 7.97677 12.8743 8.07022 12.9382 8.19317C12.9431 8.19809 12.9431 8.20792 12.948 8.21284C13.0463 8.39481 13.0513 8.58169 12.9628 8.72923C12.8546 8.90137 12.7071 8.98497 12.5154 8.98497H11.9944V7.97677ZM11.9895 9.96858H12.5105C12.5204 9.96858 12.5253 9.96858 12.5351 9.96858C12.54 9.96858 12.5449 9.96858 12.5499 9.96858C12.6777 9.96858 12.8497 10.0276 12.9284 10.2046C12.9382 10.2243 12.948 10.244 12.9628 10.2637C13.0463 10.4112 13.0463 10.5932 12.9529 10.7702C12.8448 10.9325 12.6973 11.0161 12.5105 11.0161H11.9895V9.96858Z" fill="#08384D"/>
<path d="M17.5439 13.5045C17.5439 13.775 17.7652 13.9963 18.0355 13.9963H20.5131C20.7834 13.9963 21.0046 13.775 21.0046 13.5045C21.0046 13.234 20.7834 13.0127 20.5131 13.0127H18.0355C17.7652 13.0127 17.5439 13.234 17.5439 13.5045Z" fill="#08384D"/>
<path d="M18.5228 9.48179H19.0094C19.2797 9.48179 19.501 9.26048 19.501 8.98999C19.501 8.7195 19.2797 8.49818 19.0094 8.49818H18.5228C17.982 8.49818 17.456 8.24245 17.2102 7.85884L17.1955 7.83917C16.9398 7.47524 16.9398 7.02769 17.2053 6.62933L17.2102 6.62442C17.4609 6.23097 17.9525 5.98507 18.4883 5.98507H19.0143C19.2847 5.98507 19.5059 5.76376 19.5059 5.49327C19.5059 5.22278 19.2847 5.00146 19.0143 5.00146H18.4883C17.6231 5.00146 16.817 5.4195 16.3844 6.08835C15.8977 6.82114 15.8977 7.70638 16.3893 8.39982C16.817 9.05884 17.6527 9.48179 18.5228 9.48179Z" fill="#08384D"/>
</svg>
