<svg width="24" height="24" viewBox="0 0 24 24" fill="none" xmlns="http://www.w3.org/2000/svg">
<path d="M23.6388 20.6723C23.6155 20.6591 21.4622 19.4372 19.9333 17.7479C21.0147 16.03 21.5838 14.0581 21.5838 12.0106C21.5838 9.128 20.4612 6.41786 18.4228 4.37952C16.3845 2.34137 13.6743 1.21875 10.7919 1.21875C7.90925 1.21875 5.1991 2.34137 3.16095 4.37952C1.12262 6.41786 0 9.128 0 12.0106C0 14.8931 1.12262 17.6032 3.16095 19.6416C5.1991 21.6799 7.90925 22.8023 10.7919 22.8023C12.6317 22.8023 14.4335 22.3351 16.0302 21.4475C19.1768 23.1969 23.3086 22.023 23.4899 21.9701C23.7636 21.8901 23.9629 21.6539 23.9953 21.3706C24.0279 21.0872 23.8874 20.8122 23.6388 20.6723ZM16.4235 20.0307C16.1948 19.8813 15.9004 19.8769 15.6671 20.0191C14.2026 20.9127 12.5167 21.3851 10.7919 21.3851C5.62281 21.3851 1.41724 17.1797 1.41724 12.0106C1.41724 6.84138 5.62281 2.63599 10.7919 2.63599C15.961 2.63599 20.1664 6.84138 20.1664 12.0106C20.1664 13.9505 19.5788 15.8121 18.4668 17.3941C18.2849 17.6529 18.2965 18.0009 18.4953 18.2469C19.3752 19.3362 20.5104 20.2641 21.4144 20.9134C20.0041 21.0672 17.9762 21.0442 16.4235 20.0307Z" fill="#959595"/>
<path d="M15.596 14.4521H5.98767C5.59619 14.4521 5.27905 14.7695 5.27905 15.1608C5.27905 15.5521 5.59619 15.8694 5.98767 15.8694H15.596C15.9873 15.8694 16.3046 15.5521 16.3046 15.1608C16.3046 14.7695 15.9873 14.4521 15.596 14.4521Z" fill="#959595"/>
<path d="M15.596 11.3018H5.98767C5.59619 11.3018 5.27905 11.6191 5.27905 12.0105C5.27905 12.4018 5.59619 12.7192 5.98767 12.7192H15.596C15.9873 12.7192 16.3046 12.4018 16.3046 12.0105C16.3046 11.6191 15.9873 11.3018 15.596 11.3018Z" fill="#959595"/>
<path d="M15.596 8.15234H5.98767C5.59619 8.15234 5.27905 8.46967 5.27905 8.86097C5.27905 9.25245 5.59619 9.56959 5.98767 9.56959H15.596C15.9873 9.56959 16.3046 9.25245 16.3046 8.86097C16.3046 8.46967 15.9873 8.15234 15.596 8.15234Z" fill="#959595"/>
</svg>
