<svg width="32" height="32" viewBox="0 0 32 32" fill="none" xmlns="http://www.w3.org/2000/svg">
<path d="M27.8955 10.23L22.8405 5.16998C22.7717 5.10481 22.6803 5.06895 22.5855 5.06998H12.2555C12.2085 5.06932 12.1618 5.07801 12.1181 5.09556C12.0745 5.1131 12.0347 5.13914 12.0012 5.17217C11.9677 5.2052 11.9412 5.24456 11.923 5.28796C11.9048 5.33136 11.8955 5.37794 11.8955 5.42498V14.47H12.6105V5.77998H22.1755V10.54C22.1755 10.6341 22.2129 10.7244 22.2795 10.791C22.3461 10.8576 22.4364 10.895 22.5305 10.895H27.2855V26.215H12.6105V17.53H11.8955V26.57C11.8955 26.6655 11.9334 26.757 12.0009 26.8245C12.0685 26.8921 12.16 26.93 12.2555 26.93H27.6455C27.6926 26.93 27.7391 26.9206 27.7825 26.9025C27.8259 26.8843 27.8653 26.8577 27.8983 26.8242C27.9313 26.7907 27.9574 26.751 27.9749 26.7074C27.9925 26.6637 28.0012 26.617 28.0005 26.57V10.5C28.0018 10.4503 27.9932 10.4008 27.9751 10.3544C27.9571 10.3081 27.93 10.2658 27.8955 10.23ZM22.8955 10.185V6.22998L26.8455 10.185H22.8955Z" fill="#2A4F77"/>
<path d="M10.765 26.22H8.645V16.355H20.645L19.035 18C18.969 18.0665 18.932 18.1564 18.932 18.25C18.932 18.3437 18.969 18.4335 19.035 18.5C19.0676 18.5333 19.1065 18.5597 19.1494 18.5777C19.1923 18.5957 19.2384 18.605 19.285 18.605C19.3316 18.6053 19.3778 18.5962 19.4207 18.5781C19.4637 18.5601 19.5026 18.5335 19.535 18.5L21.775 16.26C21.8091 16.2265 21.8348 16.1854 21.85 16.14C21.8576 16.097 21.8576 16.053 21.85 16.01C21.8576 15.967 21.8576 15.923 21.85 15.88C21.836 15.8356 21.81 15.7958 21.775 15.765L19.535 13.5C19.5024 13.4668 19.4635 13.4403 19.4206 13.4223C19.3777 13.4043 19.3316 13.395 19.285 13.395C19.2384 13.395 19.1923 13.4043 19.1494 13.4223C19.1065 13.4403 19.0676 13.4668 19.035 13.5C18.969 13.5665 18.932 13.6564 18.932 13.75C18.932 13.8437 18.969 13.9335 19.035 14L20.665 15.63H8.665V5.78002H10.785C10.8725 5.76965 10.9532 5.72753 11.0118 5.66164C11.0703 5.59575 11.1026 5.51067 11.1026 5.42252C11.1026 5.33438 11.0703 5.2493 11.0118 5.18341C10.9532 5.11752 10.8725 5.07539 10.785 5.06502H8.285C8.23796 5.06502 8.19138 5.07437 8.14798 5.09252C8.10458 5.11067 8.06522 5.13727 8.03219 5.17076C7.99916 5.20426 7.97312 5.24399 7.95557 5.28764C7.93803 5.33129 7.92934 5.37799 7.93 5.42502V15.645H4.875C4.85006 15.6427 4.82495 15.6427 4.8 15.645V5.82502H6.87C6.97609 5.82502 7.07783 5.78288 7.15284 5.70787C7.22786 5.63285 7.27 5.53111 7.27 5.42502C7.27 5.31894 7.22786 5.2172 7.15284 5.14218C7.07783 5.06717 6.97609 5.02502 6.87 5.02502H4.4C4.34747 5.02502 4.29546 5.03537 4.24693 5.05547C4.1984 5.07557 4.1543 5.10504 4.11716 5.14218C4.08001 5.17932 4.05055 5.22342 4.03045 5.27195C4.01035 5.32048 4 5.3725 4 5.42502V26.575C4 26.6811 4.04214 26.7829 4.11716 26.8579C4.19217 26.9329 4.29391 26.975 4.4 26.975H6.87C6.97609 26.975 7.07783 26.9329 7.15284 26.8579C7.22786 26.7829 7.27 26.6811 7.27 26.575C7.27 26.4689 7.22786 26.3672 7.15284 26.2922C7.07783 26.2172 6.97609 26.175 6.87 26.175H4.8V16.34H4.875H7.935V26.575C7.93434 26.6221 7.94303 26.6688 7.96057 26.7124C7.97812 26.7561 8.00416 26.7958 8.03719 26.8293C8.07022 26.8628 8.10958 26.8894 8.15298 26.9075C8.19638 26.9257 8.24296 26.935 8.29 26.935H10.79C10.8775 26.9247 10.9582 26.8825 11.0168 26.8166C11.0753 26.7507 11.1076 26.6657 11.1076 26.5775C11.1076 26.4894 11.0753 26.4043 11.0168 26.3384C10.9582 26.2725 10.8775 26.2304 10.79 26.22H10.765Z" fill="#2A4F77"/>
</svg>
