<svg width="24" height="24" viewBox="0 0 24 24" fill="none" xmlns="http://www.w3.org/2000/svg">
<path d="M19.584 8.52C20.8805 10.1944 21.587 12.2505 21.5935 14.3681C21.6 16.4858 20.9061 18.5461 19.6199 20.2284C18.3336 21.9107 16.5272 23.1205 14.482 23.6694C12.4367 24.2183 10.2673 24.0756 8.31157 23.2633C6.35586 22.4511 4.72358 21.0151 3.66889 19.1787C2.61421 17.3424 2.1963 15.2089 2.48024 13.1103C2.76418 11.0118 3.73404 9.06602 5.2388 7.57599C6.74356 6.08596 8.69877 5.13529 10.8 4.872V2.4H13.2V4.872C14.952 5.088 16.56 5.784 17.88 6.816L19.632 5.064L21.336 6.768L19.584 8.508V8.52ZM12 21.6C13.9096 21.6 15.7409 20.8414 17.0912 19.4912C18.4414 18.1409 19.2 16.3096 19.2 14.4C19.2 12.4904 18.4414 10.6591 17.0912 9.30883C15.7409 7.95857 13.9096 7.2 12 7.2C10.0904 7.2 8.25909 7.95857 6.90883 9.30883C5.55857 10.6591 4.8 12.4904 4.8 14.4C4.8 16.3096 5.55857 18.1409 6.90883 19.4912C8.25909 20.8414 10.0904 21.6 12 21.6ZM8.4 0H15.6V2.4H8.4V0ZM14.544 10.152L16.248 11.856L12 16.08L10.308 14.4L14.544 10.152Z" fill="#DDF1FA"/>
</svg>
