<svg width="20" height="20" viewBox="0 0 20 20" fill="none" xmlns="http://www.w3.org/2000/svg">
<path fill-rule="evenodd" clip-rule="evenodd" d="M8.33337 9.99992C8.33337 9.07944 9.07957 8.33325 10 8.33325C10.9205 8.33325 11.6667 9.07944 11.6667 9.99992C11.6667 10.9204 10.9205 11.6666 10 11.6666C9.07957 11.6666 8.33337 10.9204 8.33337 9.99992Z" fill="#757575"/>
<path fill-rule="evenodd" clip-rule="evenodd" d="M14.1666 9.99992C14.1666 9.07944 14.9128 8.33325 15.8333 8.33325C16.7538 8.33325 17.5 9.07944 17.5 9.99992C17.5 10.9204 16.7538 11.6666 15.8333 11.6666C14.9128 11.6666 14.1666 10.9204 14.1666 9.99992Z" fill="#757575"/>
<path fill-rule="evenodd" clip-rule="evenodd" d="M2.5 9.99992C2.5 9.07944 3.24619 8.33325 4.16667 8.33325C5.08714 8.33325 5.83333 9.07944 5.83333 9.99992C5.83333 10.9204 5.08714 11.6666 4.16667 11.6666C3.24619 11.6666 2.5 10.9204 2.5 9.99992Z" fill="#757575"/>
</svg>
