<svg xmlns="http://www.w3.org/2000/svg" viewBox="0 0 127 127"><defs><style>.cls-1{fill:none;}.cls-2{fill:#ddf1fa;}.cls-3{fill:#60d2b0;}.cls-4{fill:#f2ab3e;}.cls-5{fill:#fe747d;}.cls-6{fill:#acabb1;}.cls-7{fill:#c6c5ca;}</style></defs><title>empty_report</title><g id="Layer_2" data-name="Layer 2"><g id="Layer_1-2" data-name="Layer 1"><rect class="cls-1" width="127" height="127"/><path class="cls-2" d="M41,4.11H114.7a8.19,8.19,0,0,1,8.2,8.19V114.7a8.19,8.19,0,0,1-8.2,8.19H41a8.19,8.19,0,0,1-8.19-8.19V12.3A8.19,8.19,0,0,1,41,4.11Z"/><path class="cls-3" d="M32.78,39.19A32.79,32.79,0,0,0,13.69,94.88l7.25-7.25A22.52,22.52,0,0,1,36.88,49.16V38.92A31.25,31.25,0,0,0,32.78,39.19Z"/><path class="cls-4" d="M59.4,71.69H69.65a32.77,32.77,0,0,1-32.77,32.77,35.1,35.1,0,0,1-4.1-.24V93.85A22.55,22.55,0,0,0,59.4,71.69Z"/><path class="cls-4" d="M32.78,93.85v10.37a32.79,32.79,0,0,1-19.09-9.34l7.25-7.25A22.4,22.4,0,0,0,32.78,93.85Z"/><path class="cls-5" d="M69.65,71.69H59.4A22.52,22.52,0,0,0,36.88,49.16V38.92A32.77,32.77,0,0,1,69.65,71.69Z"/><path class="cls-5" d="M110.61,4.11V24.59l-6.15-6.15-6.14,6.15V4.11Z"/><path class="cls-6" d="M43,14.35h8.19v4.09H43Z"/><path class="cls-7" d="M55.31,14.35H75.79v4.09H55.31Z"/><path class="cls-7" d="M43,22.54H75.79v4.09H43Z"/><path class="cls-4" d="M100.37,41a4.1,4.1,0,1,1-4.1-4.09A4.11,4.11,0,0,1,100.37,41Z"/><path class="cls-5" d="M69,48.56l-2.89-2.89,6.14-6.15a2.09,2.09,0,0,1,1.45-.6H86V43H74.59Z"/><path class="cls-4" d="M79.89,110.61H67.6a2.05,2.05,0,0,1-1.45-.6L60,103.86,62.9,101l5.54,5.54H79.89Z"/><path class="cls-4" d="M84,106.51H96.27v4.1H84Z"/><path class="cls-4" d="M84,98.32H96.27v4.09H84Z"/><path class="cls-7" d="M84,59.4h28.68v4.1H84Z"/><path class="cls-7" d="M84,67.6h28.68v4.09H84Z"/><path class="cls-7" d="M84,75.79h28.68v4.1H84Z"/></g></g></svg>