<svg width="24" height="24" viewBox="0 0 24 24" fill="none" xmlns="http://www.w3.org/2000/svg">
<path d="M21.6 2.3999C22.2365 2.3999 22.847 2.65276 23.2971 3.10285C23.7471 3.55293 24 4.16338 24 4.7999V19.1999C24 19.8364 23.7471 20.4469 23.2971 20.897C22.847 21.347 22.2365 21.5999 21.6 21.5999H2.4C1.76348 21.5999 1.15303 21.347 0.702944 20.897C0.252856 20.4469 0 19.8364 0 19.1999V4.7999C0 3.4799 1.08 2.3999 2.4 2.3999H21.6ZM16.356 13.3199L24 19.1999V16.7999L17.856 12.1199L24 7.1999V4.7999L12 14.3999L0 4.7999V7.1999L6.144 12.1199L0 16.7999V19.1999L7.644 13.3199L12 16.7999L16.356 13.3199Z" fill="#F2AB3E"/>
</svg>
