<svg width="20" height="20" viewBox="0 0 20 20" fill="none" xmlns="http://www.w3.org/2000/svg">
<path fill-rule="evenodd" clip-rule="evenodd" d="M0.910665 2.14923C1.04721 1.85492 1.34216 1.66663 1.6666 1.66663H18.3333C18.6577 1.66663 18.9526 1.85492 19.0892 2.14923C19.2257 2.44353 19.1791 2.79033 18.9696 3.03806L12.4999 10.6884V17.5C12.4999 17.7888 12.3504 18.057 12.1047 18.2088C11.859 18.3607 11.5522 18.3745 11.2939 18.2453L7.96058 16.5786C7.67826 16.4375 7.49993 16.1489 7.49993 15.8333V10.6884L1.03029 3.03806C0.82079 2.79033 0.774116 2.44353 0.910665 2.14923ZM3.46268 3.33329L8.96957 9.84519C9.09679 9.99563 9.1666 10.1863 9.1666 10.3833V15.3183L10.8333 16.1516V10.3833C10.8333 10.1863 10.9031 9.99563 11.0303 9.84519L16.5372 3.33329H3.46268Z" fill="#2A4F77"/>
</svg>
