<svg xmlns="http://www.w3.org/2000/svg" viewBox="0 0 252.99 220.84"><defs><style>.cls-1{fill:none;}.cls-2{opacity:0.25;}.cls-3{fill:#f7b73b;}.cls-4{fill:#ffc397;}.cls-5{fill:#e5995a;}.cls-6{fill:#fff;}.cls-7{fill:#98a0b6;}.cls-8{fill:#7c4231;}.cls-9{fill:#965642;}.cls-10{fill:#f9b88c;}.cls-11{fill:#43291e;}.cls-12{fill:#60d2b0;}</style></defs><title>Free</title><g id="Layer_2" data-name="Layer 2"><g id="Layer_1-2" data-name="Layer 1"><g id="Free"><rect class="cls-1" x="21.09" y="5.02" width="210.8" height="210.8"/><g class="cls-2"><path class="cls-3" d="M190,154c.05-.11.12-.22.18-.34,2.48-3.44,7.35-5.46,11.17-6.48a10.76,10.76,0,0,0,4.67-2.78,9.45,9.45,0,0,0,2.82-3.34c.66-1.78-3-1.78-3.89-1.85-2.78-.26-6.37-.56-7.52-3.49,3.79-.2,7.25-1.54,5.51-6a50,50,0,0,0-3.31-6,11.36,11.36,0,0,1-.7-8.84c1.5-5.29,8.24-11.89,4.65-17.53a9.84,9.84,0,0,0-2.77-2.31c-.18-.12-.34-.26-.5-.39-.32-2.29-.81-4.55-1.25-6.8a23,23,0,0,0-1-5,4.81,4.81,0,0,0-.92-2.28c-.16-.17-.92,0-.84.28,0,.09.06.18.1.27-.54-.28-1.11-.5-1.66-.73-.76-.32-1.49-.68-2.22-1.06-2.46-2.62-5.12-5.06-7.36-7.93-.46-.59-1.29-1.43-1.29-2.24,0-1,1-2.29,1.38-3.22s.58-2-.35-2.65c-.38-.26-3-1.93-4.06-1.79a6.51,6.51,0,0,0-2.07-2.11c-1.83-1.16-1.11-2.5-.26-4.27a6.2,6.2,0,0,1,3.79-3.54,19.77,19.77,0,0,0,4-1.88c2.14-1.52,1.22-4.33-.45-5.85s-4.78-.15-6.49.68c-3.48,1.69-6.61,4-10,5.87a12.81,12.81,0,0,1-4.73,1.7c-.76.07-.72.14-.49-.36s.49-1.18.72-1.78a17.93,17.93,0,0,0,.82-2.86c1.14-5.88-6-3.64-9.32-4.44s-2.57-4.76-1.4-7.07c1.45-2.88,3.76-5.24,5.5-7.94,1.12-1.75,2.54-4.25,1.37-6.34-.94-1.67-2.73-2.94-4.62-2.09-2.18,1-3.54,3.89-4.57,5.88C151.1,28,150,31,148.69,34c-.93,2.22-2.17,4.07-2.71,6.46-.66,2.9-4.43,2.54-6.71,1.84-2.68-.82-3.28-3.54-2.94-6,0-.22-.23-.31-.4-.29-5.71.64-12.76,3.75-17.1-1.65-4.88-6.07.1-14.2-2.62-20.94-.14-.33-.61-.22-.8,0-2.88,3.06-3.37,6.95-3.36,11,0,4.34.61,9.17-2.32,12.72a20.69,20.69,0,0,0-4.36-3.05.54.54,0,0,0-.77.28c-1.87,9.23-11.68,15.85-20.58,17-4.64.59-12.55.42-13.52,6.19a27.09,27.09,0,0,1-4.63-6c-.05-.11-.25-.14-.35-.13a2.19,2.19,0,0,0-1.81,1.21c-.56.92-3.12.14-4.23.13-.19,0-.56.2-.47.44,1.89,5.08,3.7,10.65,2.9,16.12-1.16-1.8-3.06-4-5.24-3.1S54.3,69.88,54.75,72a5.82,5.82,0,0,0,.25.84,31.8,31.8,0,0,0-3.4,6.74c-.35.33-.69.66-1,1-1.88,1.88-4.39,4.62-3.63,7.52a.29.29,0,0,0,.18.18,42.12,42.12,0,0,1-3.61,3.57c-1.67,1.55-4.25,3.59-4.68,6s3.92,2.11,5.19,2c1.62-.09,1.76.09,2,1.69a7.48,7.48,0,0,1-.12,2.71,5.05,5.05,0,0,1-3.24,3.37C40,108.76,37,109,34.39,110.25a6.81,6.81,0,0,0-3.92,5.68c-.12,1.76,1.46,2.1,2.87,1.87,3.26-.54,6.38-2.64,9.12-4.36a50.38,50.38,0,0,0,5.92-4,14.16,14.16,0,0,1-1.76,9.34c-1.23,2.18-2.88,4.12-3.65,6.54-.88,2.79.39,5.54,1.93,7.83.25.36,2.12,2.29,1.6,2.69a32.36,32.36,0,0,1-3.75,2.36,29.47,29.47,0,0,0-5.79,4c-.18.18,0,.39.2.4a12.39,12.39,0,0,1,11.58,8.77,11.79,11.79,0,0,1-.29,7.58,7.17,7.17,0,0,1-3.7,4.27c-2.47,1.36-5.78,2.65-7.43,5.07-1.09,1.6-.41,4.81,2,4.76,2.76-.06,4.78-4.05,6.23-5.91a7.73,7.73,0,0,1,5-3.17,9.76,9.76,0,0,1,7.6,1.21c3.51,2.24,5,6.8,4.91,10.76,0,3.54-1.67,5.81-3.58,8.59-.76,1.11-2.51,3.18-2.19,4.68s2.76.91,3.78.66c5.72-1.44,5.57-8.9,10.57-11.46-.51,2-.61,4.16-1.2,6.19-.12.4.66.17.79.06,1.18-1.05,2.66-1.4,4-2.21.87-.54,3.13,1.18,3.87,1.64a8.2,8.2,0,0,1,4,5.81c0,.44,0,.88.09,1.31,0,.25,0,.51,0,.76a.22.22,0,0,0,.19.24,9.28,9.28,0,0,0,.77,2.28h0c0,.33,0,.65,0,1C84,198,86.17,199.29,88.6,199c3.24-.46,6-3.3,8.94-4.61a9,9,0,0,1,7.91.13c1.42.76,1.7,2.68,2.29,4,1,2.38,4.31,2.38,6.33,1.27,1.78-1,2.68-7.93,4.54-7.53,3,.65,6,1.74,9,2.49a14,14,0,0,0,8.51-1c.07,1.78.36,3.75,2.17,4.52s3.88-.63,5.24-1.49a.31.31,0,0,0,.15-.3c-.19-1-.73-3.25,1.18-3.05.72.08,1.45.29,2.16.43a5.62,5.62,0,0,0,3.79-.38,10.91,10.91,0,0,0,3.61-3.51c1.13-1.5,2-1.46,3.87-1.46,1,0,2.61.23,3.42-.52a65,65,0,0,0,5.15-5.47c3.22-3.75,6.37-7.77,11-9.91,2.21-1,5.11-1.75,7.39-.66,1.19.57,2.24,1.4,3.48,1.87,2.9,1.1,3.64-2.81,4-4.75.59-3.68-2.19-5.41-3.58-8.34C188.07,158.59,189,156,190,154Z"/><path class="cls-3" d="M25.72,55.9c1.4.07,4.43,0,5-1.74.36-1.19-1.42-2.58-2.21-3.1L28.32,51s0-.08,0-.1L28,50.8a4.34,4.34,0,0,0-1.14-.29,5.9,5.9,0,0,0-3.69.05c-1,.4-2.34,1.5-2.38,2.69C20.68,55.43,24.19,55.83,25.72,55.9Z"/><path class="cls-3" d="M38.28,40.45c1.11,1.25,1.27,1.49,2.9,1.49.18,0,.56-.08.59-.31.53-4.48-.61-8.6-2-12.81-.11-.33-1-.09-.86.23,0,.08.05.16.07.24A24,24,0,0,0,35,22.08c0-.06-.21-.06-.37,0-1.14-1.06-2.42-.84-3.16,1.07-1.66,4.31.13,8.14,2.47,11.76A46.31,46.31,0,0,0,38.28,40.45Z"/><path class="cls-3" d="M62.44,36.47c.2,0,.68,0,.78-.24.66-1.36,1.27-3,.28-4.39a4.41,4.41,0,0,0-2.44-1.43c-1.54-.61-3.67-.74-4.1,1.22C56.3,34.62,60.17,36.23,62.44,36.47Z"/><path class="cls-3" d="M81.06,32.09a6.19,6.19,0,0,0,4.53-4c1.06-2.86-.77-5.21-3.2-6.46.24-.12.4-.3-.06-.19l-.23.06L82,21.42c-.22-.11-.88.25-.82.28l.06,0c-2.65.9-5.18,2.85-5.31,5.84A4.43,4.43,0,0,0,81.06,32.09Z"/><path class="cls-3" d="M119.62,28.49h2a.69.69,0,0,0,.61-.29c1.93-4.05,2.65-8.49,4-12.74,0-.16-.23-.18-.48-.11.38-2,.29-4.16-1.31-5.09-1.31-.76-2.45.9-2.91,1.86-1.28,2.64-1.62,5.86-2,8.74a26.71,26.71,0,0,0-.24,7.52C119.38,28.48,119.55,28.49,119.62,28.49Z"/><path class="cls-3" d="M187.24,65.11c.4,1.42,2.75,1.27,3.84,1.11,1.28-.18,3.39-.69,4-2,.69-1.63-2.1-2.59-3.55-3l1.46-.47c.51-.16.39-.65-.13-.48-.74.24-1.49.44-2.19.7l-.17,0c-.25-.07-.78.23-.67.41a4.8,4.8,0,0,0-1.65,1.35A3.05,3.05,0,0,0,187.24,65.11Z"/><path class="cls-3" d="M229.81,140a.57.57,0,0,0-.41.28,16.3,16.3,0,0,0-1.81.53c-.07,0-.32.15-.27.27,1.67,3.67,6,4.1,9.53,4.14a16.91,16.91,0,0,0,6.4-.62c.17-.05.41-.18.36-.39C242,137.42,234.94,139.28,229.81,140Z"/><path class="cls-3" d="M217,154.42a1.85,1.85,0,0,0-.55-1.25c.29-.11.57-.35.22-.42l-1.09-.17c-1.57-.71-3.76-.3-5.27.18-.33.1-.39.33-.26.44l-.2.11-.76.11c-.41.07-.71.58-.12.48l.19,0a3,3,0,0,0-.48,3.59,4.27,4.27,0,0,0,4,2.18c2.58-.06,4.66-2,6.14-4,0,0,0-.14,0-.18A14.75,14.75,0,0,0,217,154.42Z"/><path class="cls-3" d="M205.36,174.3c-.14-.11-.56,0-.74.16a3.2,3.2,0,0,0-2.32.41c-.88.54-.88,2-1.12,3,0,.06,0,.09.07.11,1.55.43,3.3,1,4.89.42,1.38-.48,1.67-2.1,1.93-3.35a.07.07,0,0,0,0-.08C207.23,174.36,206.16,174.89,205.36,174.3Z"/><path class="cls-3" d="M198,198.09a3.86,3.86,0,0,0-1.84,2.63,5.91,5.91,0,0,0-.09,4c.73,1.54,2.67,1.57,4,.83a3.65,3.65,0,0,0,1.81-3.48c.22.34,1,.11.84-.26C202,200.26,200.26,197,198,198.09Z"/><path class="cls-3" d="M158.1,212.87l.18-.1c.51-.26-.27-.32-.52-.2s-.29.15-.43.23a8.6,8.6,0,0,0-2.71.36c-.51.16-.42.52.09.36a6.78,6.78,0,0,1,2-.3,3.33,3.33,0,0,0-.39.36l-.35.16c-1.66.94-2.13,3.32-2.39,5a.15.15,0,0,0,.09.16,3.71,3.71,0,0,0,2.75.47,3.93,3.93,0,0,0,1.32-.82c1.76-.5,3.56-1.55,3.12-3.52A2.94,2.94,0,0,0,158.1,212.87Z"/><path class="cls-3" d="M138.92,213.17a3.37,3.37,0,0,0-2.76.33,3.59,3.59,0,0,0-2.21.39,7.82,7.82,0,0,0-3,3.08,2.45,2.45,0,0,0,1.41,3.57,5.29,5.29,0,0,0,4.79-.71c2.12-1.47,2.27-4.29,1.86-6.6A.08.08,0,0,0,138.92,213.17Z"/><path class="cls-3" d="M84.12,208.07a1.66,1.66,0,0,0-1.2-.17c-.46.08-.84.51-1.27.57a.72.72,0,0,0-.3.11,4.1,4.1,0,0,0-1.55.58c-1.46,1-1.33,3.45-1.34,5,0,.11.31.07.35.06,2-.33,4.15-.7,5.1-2.64a6.94,6.94,0,0,0,.51-1.62c.09-.35.15-.7.21-1.06S84.55,208.36,84.12,208.07Z"/><path class="cls-3" d="M6.19,144.87c0-.07,0-.12-.21-.12l-.6,0c-.34,0-.68,0-1,0a6.25,6.25,0,0,0-2.7.39c-1.55.71-1.65,2.5-1.67,4a.11.11,0,0,0,.08.07c2.36.9,5.84,1,7.52-1.29a1.69,1.69,0,0,0-.09-2.28A2.74,2.74,0,0,0,6.19,144.87Z"/><path class="cls-3" d="M33,98.67s.06-.12,0-.16a10.31,10.31,0,0,0-9.15-1.59,7.09,7.09,0,0,0-4,1.23c-1.32,1-1,2.57,0,3.65C23.74,106.12,30.27,102.11,33,98.67Z"/><path class="cls-3" d="M28.65,80.13c.22,0,.42-.19.38-.35a10.65,10.65,0,0,0-4.54-6.47l.5.16c.35.12,1-.37.51-.55-2.43-.87-7.53-1.29-8.81,1.73-.67,1.56,1,3,2.07,3.86a17,17,0,0,0,6.33,3.15C26.65,82,28.4,81.54,28.65,80.13Z"/><path class="cls-3" d="M38.18,6.52c1.78.88,6,1.17,6.82-1.17a2.11,2.11,0,0,0-.25-1.7,5,5,0,0,0,.37-2.32c0-.06-.12-.07-.15-.06a13,13,0,0,0-2.25.23,7.07,7.07,0,0,0-1.9-.86A7.79,7.79,0,0,1,44.44,1c.32.12,1-.35.51-.52-2.53-.88-5.54-.73-7.48,1.31A2.82,2.82,0,0,0,38.18,6.52Z"/><path class="cls-3" d="M199,43.44A4,4,0,0,0,201.78,40a4.23,4.23,0,0,0-.45-2.82c.29,0,.93-.27.62-.42a10.44,10.44,0,0,0-1.88-.7,2.76,2.76,0,0,0-1-.18,5.43,5.43,0,0,0-2.49.35c-1.94.78-2.86,3-3.42,4.81a.11.11,0,0,0,0,.11C194.74,42.61,196.78,44,199,43.44Z"/><path class="cls-3" d="M220.54,86.32a9.82,9.82,0,0,1-2.46-.47,11.93,11.93,0,0,1,1.56-.41c.36-.06.75-.47.14-.36a14.88,14.88,0,0,0-2.2.6l-.27-.1-.12,0q-.6-.24-1.17-.51c-.26-.13-.86.17-.77.37-1.93.46-3.27,2.71-3.84,5.07a9.42,9.42,0,0,0-.84,1.57s0,.1.07.11a8.26,8.26,0,0,0,6.62-1.35,7.31,7.31,0,0,0,3.53-4.16C220.86,86.45,220.73,86.32,220.54,86.32Z"/><path class="cls-3" d="M250.9,109.86c-.25-.18-1,.17-.69.43l.07.06a3.58,3.58,0,0,0-.47.14,4.59,4.59,0,0,0-1.27.67.68.68,0,0,0-.34.17,7.43,7.43,0,0,0-.52.62c-.18.09-.31.22-.22.31a13.77,13.77,0,0,1-1.28,1.75s-.12.14-.08.2c.2.37.39.66.85.61h0a2.8,2.8,0,0,0-.22,1c0,1.67,2.21,2.62,3.45,3.17a.62.62,0,0,0,.74-.2c.23-.35.46-.73.67-1.13.23,0,.63-.08.7-.28C253.33,114.72,253.42,111.68,250.9,109.86Z"/></g><rect class="cls-4" x="60.4" y="49.44" width="126.66" height="131.98"/><rect class="cls-5" x="70.85" y="62.28" width="19.14" height="30.24"/><rect class="cls-5" x="97.23" y="62.28" width="19.14" height="30.24"/><rect class="cls-5" x="138.49" y="62.28" width="34.54" height="30.24"/><rect class="cls-6" x="72.42" y="63.84" width="15.98" height="27.13"/><rect class="cls-7" x="74.01" y="65.61" width="12.81" height="23.58"/><rect class="cls-6" x="98.81" y="63.84" width="15.98" height="27.13"/><rect class="cls-7" x="100.39" y="65.61" width="12.81" height="23.58"/><rect class="cls-6" x="140.07" y="63.84" width="31.25" height="27.13"/><rect class="cls-7" x="141.66" y="65.61" width="12.81" height="23.58"/><rect class="cls-7" x="156.83" y="65.61" width="12.81" height="23.58"/><rect class="cls-5" x="71.14" y="137.61" width="34.54" height="28.69"/><rect class="cls-6" x="72.71" y="137.61" width="31.25" height="27.13"/><rect class="cls-7" x="74.3" y="139.39" width="12.81" height="23.58"/><rect class="cls-7" x="89.47" y="139.39" width="12.81" height="23.58"/><polygon class="cls-8" points="60.57 30.3 54.61 54.13 112.52 54.13 123.4 54.13 195.6 54.13 189.9 30.3 60.57 30.3"/><polygon class="cls-9" points="189.9 30.3 189.1 26.97 123.4 26.97 112.52 26.97 58.36 26.97 51.86 54.13 54.61 54.13 60.57 30.3 189.9 30.3"/><rect class="cls-10" x="113.21" y="130.73" width="82.39" height="50.69"/><rect class="cls-11" x="51.86" y="54.13" width="143.75" height="1.79"/><rect class="cls-11" x="109.57" y="128.94" width="89.8" height="1.79"/><rect class="cls-5" x="60.4" y="55.93" width="126.66" height="2.18"/><polygon class="cls-8" points="111.87 128.94 199.37 128.94 195.59 104.89 114.86 104.89 111.87 128.94"/><polygon class="cls-9" points="112.89 102.94 109.57 128.94 111.87 128.94 114.86 104.89 195.59 104.89 195.29 102.94 112.89 102.94"/><rect class="cls-5" x="68.47" y="132.85" width="39.81" height="4.76"/><rect class="cls-5" x="119.26" y="135.23" width="24.6" height="46.19"/><rect class="cls-6" x="120.95" y="136.9" width="21.04" height="44.53"/><rect class="cls-7" x="122.48" y="138.49" width="8.18" height="18.02"/><rect class="cls-7" x="132.02" y="138.49" width="8.18" height="18.02"/><rect class="cls-5" x="156.83" y="135.58" width="19.14" height="30.24"/><rect class="cls-6" x="158.41" y="137.13" width="15.98" height="27.13"/><rect class="cls-7" x="159.99" y="138.91" width="12.81" height="23.58"/><rect class="cls-4" x="82.02" y="14.27" width="10.18" height="21.24"/><rect class="cls-5" x="82.02" y="32.58" width="10.18" height="2.93"/><rect class="cls-6" x="73.16" y="81.8" width="14.46" height="1.23"/><rect class="cls-6" x="67.33" y="76.86" width="26.17" height="1.23" transform="translate(157.89 -2.94) rotate(90)"/><rect class="cls-6" x="99.57" y="81.8" width="14.46" height="1.23"/><rect class="cls-6" x="93.73" y="76.86" width="26.17" height="1.23" transform="translate(184.29 -29.34) rotate(90)"/><rect class="cls-6" x="159.17" y="155.5" width="14.46" height="1.23"/><rect class="cls-6" x="153.33" y="150.57" width="26.17" height="1.23" transform="translate(317.6 -15.24) rotate(90)"/><rect class="cls-6" x="140.83" y="81.72" width="14.46" height="1.23"/><rect class="cls-6" x="134.99" y="76.79" width="26.17" height="1.23" transform="translate(225.48 -70.68) rotate(90)"/><rect class="cls-6" x="156.01" y="81.72" width="14.46" height="1.23"/><rect class="cls-6" x="150.17" y="76.79" width="26.17" height="1.23" transform="translate(240.66 -85.85) rotate(90)"/><rect class="cls-6" x="88.65" y="155.5" width="14.46" height="1.23"/><rect class="cls-6" x="82.81" y="150.57" width="26.17" height="1.23" transform="translate(247.08 55.28) rotate(90)"/><rect class="cls-6" x="73.8" y="155.5" width="14.46" height="1.23"/><rect class="cls-6" x="67.96" y="150.57" width="26.17" height="1.23" transform="translate(232.22 70.14) rotate(90)"/><path class="cls-12" d="M195.65,181.42H58.77c-3.76,0-5.48,5.1-5.48,5.1H201.13S199.41,181.42,195.65,181.42Z"/></g></g></g></svg>