<svg width="32" height="32" viewBox="0 0 32 32" fill="none" xmlns="http://www.w3.org/2000/svg">
<g clip-path="url(#clip0)">
<path d="M29.5119 25.1786H2.46443C1.24497 25.1786 0.256348 24.1899 0.256348 22.9705V2.54695C0.256348 1.32749 1.24497 0.338867 2.46443 0.338867H29.5119C30.7314 0.338867 31.72 1.32749 31.72 2.54695V22.9705C31.7198 24.1899 30.7314 25.1786 29.5119 25.1786Z" fill="#11BDCF"/>
<path d="M1.91211 17.7263V2.82263C1.91211 2.36539 2.28287 1.99463 2.74011 1.99463H29.2358C29.693 1.99463 30.0638 2.36539 30.0638 2.82263V17.7263C30.0638 18.1838 29.693 18.5543 29.2358 18.5543H2.74011C2.28287 18.5543 1.91211 18.1838 1.91211 17.7263Z" fill="#FABEA8"/>
<path d="M31.7198 23.1912V20.2104H0.256348V23.1912C0.256348 24.2889 1.24497 25.1784 2.46417 25.1784H29.5119C30.7314 25.1784 31.7198 24.2886 31.7198 23.1912Z" fill="#DDF1FA"/>
<path d="M25.5633 31.6643H6.41273C5.98484 31.6643 5.63818 31.3174 5.63818 30.8898V30.507C5.63818 30.0793 5.98484 29.7324 6.41273 29.7324H25.5633C25.991 29.7324 26.3376 30.0793 26.3376 30.507V30.8898C26.3379 31.3174 25.991 31.6643 25.5633 31.6643Z" fill="#E0EBFC"/>
<path d="M16.0587 24.0741H15.9172C15.1972 24.0741 14.6082 23.4851 14.6082 22.765V22.6235C14.6082 21.9035 15.1972 21.3145 15.9172 21.3145H16.0587C16.7788 21.3145 17.3681 21.9035 17.3681 22.6235V22.765C17.3681 23.4851 16.7788 24.0741 16.0587 24.0741Z" fill="#11BDCF"/>
<path d="M29.5239 25.4471H2.47614C1.11072 25.4471 0 24.3361 0 22.9707V2.54694C0 1.18152 1.11072 0.0708008 2.47614 0.0708008H29.5237C30.8891 0.0708008 32.0001 1.18152 32.0001 2.54694V22.9707C32.0001 24.3361 30.8891 25.4471 29.5239 25.4471ZM2.47614 0.607428C1.40655 0.607428 0.536627 1.47761 0.536627 2.54694V22.9707C0.536627 24.04 1.40655 24.9102 2.47614 24.9102H29.5237C30.5935 24.9102 31.4634 24.04 31.4634 22.9707V2.54694C31.4634 1.47761 30.5935 0.607428 29.5237 0.607428H2.47614Z" fill="#2A4F77"/>
<path d="M29.2477 18.8234H2.75232C2.14783 18.8234 1.65601 18.3316 1.65601 17.7271V2.82336C1.65601 2.21887 2.14783 1.72705 2.75232 1.72705H29.2477C29.8522 1.72705 30.3441 2.21887 30.3441 2.82336V17.7271C30.3441 18.3316 29.8522 18.8234 29.2477 18.8234ZM2.75232 2.26368C2.44365 2.26368 2.19263 2.51496 2.19263 2.82336V17.7271C2.19263 18.0357 2.44365 18.2868 2.75232 18.2868H29.2477C29.5564 18.2868 29.8074 18.0357 29.8074 17.7271V2.82336C29.8074 2.51496 29.5564 2.26368 29.2477 2.26368H2.75232Z" fill="#2A4F77"/>
<path d="M25.5755 31.9326H6.42494C5.84979 31.9326 5.38208 31.4649 5.38208 30.89V30.507C5.38208 29.9321 5.84979 29.4644 6.42494 29.4644H25.5755C26.1504 29.4644 26.6181 29.9321 26.6181 30.507V30.89C26.6181 31.4649 26.1504 31.9326 25.5755 31.9326ZM6.42494 30.001C6.14562 30.001 5.91871 30.2279 5.91871 30.507V30.89C5.91871 31.1691 6.14562 31.396 6.42494 31.396H25.5755C25.8546 31.396 26.0815 31.1691 26.0815 30.89V30.507C26.0815 30.2279 25.8546 30.001 25.5755 30.001H6.42494Z" fill="#2A4F77"/>
<path d="M9.51128 25.1787L8.39819 29.7324H23.5778L22.4647 25.1787H9.51128Z" fill="#11BDCF"/>
<path d="M23.5899 30.0013H8.41028C8.32774 30.0013 8.24992 29.9633 8.19909 29.8986C8.14826 29.8338 8.12992 29.7492 8.14957 29.669L9.26291 25.1153C9.29226 24.995 9.39995 24.9106 9.52336 24.9106H22.4768C22.6005 24.9106 22.7082 24.995 22.7373 25.1153L23.8506 29.669C23.8703 29.7492 23.8519 29.8338 23.8011 29.8986C23.7503 29.9633 23.6722 30.0013 23.5899 30.0013ZM8.75196 29.4646H23.2482L22.2662 25.4473H9.73403L8.75196 29.4646Z" fill="#2A4F77"/>
<path d="M15.9912 17.1616H5.32076C5.02886 17.1616 4.79199 16.9248 4.79199 16.6329V4.04781C4.79199 3.75591 5.02886 3.51904 5.32076 3.51904H15.9912V17.1616Z" fill="#2A4F77"/>
<path d="M26.6673 17.1616H15.9968V3.51904H26.6673C26.9592 3.51904 27.196 3.75591 27.196 4.04781V16.6329C27.196 16.925 26.9592 17.1616 26.6673 17.1616Z" fill="#2A4F77"/>
<path d="M15.9912 17.4302H5.32076C4.88135 17.4302 4.52368 17.0725 4.52368 16.6331V4.04806C4.52368 3.60864 4.88135 3.25098 5.32076 3.25098H15.9912C16.1392 3.25098 16.2595 3.37125 16.2595 3.51929V17.1621C16.2595 17.3102 16.1395 17.4302 15.9912 17.4302ZM5.32076 3.7876C5.17717 3.7876 5.06031 3.90447 5.06031 4.04806V16.6331C5.06031 16.777 5.17717 16.8938 5.32076 16.8938H15.7229V3.7876H5.32076Z" fill="#2A4F77"/>
<path d="M26.6673 17.4302H15.9968C15.8488 17.4302 15.7285 17.3099 15.7285 17.1619V3.51929C15.7285 3.37125 15.8488 3.25098 15.9968 3.25098H26.6673C27.1069 3.25098 27.4643 3.60864 27.4643 4.04806V16.6331C27.4643 17.0728 27.1069 17.4302 26.6673 17.4302ZM16.2651 16.8936H26.6673C26.8109 16.8936 26.9277 16.7767 26.9277 16.6331V4.04806C26.9277 3.90447 26.8109 3.7876 26.6673 3.7876H16.2651V16.8936Z" fill="#2A4F77"/>
<path d="M5.93311 15.1623C5.93311 15.1623 16.244 11.0522 15.9959 16.2094H5.93311V15.1623Z" fill="#E0EBFC"/>
<path d="M15.988 4.371V4.21824H15.9692C15.3702 0.0266249 5.93311 3.78799 5.93311 3.78799V15.1418C5.93311 15.1418 15.5982 11.289 15.988 15.7248V4.83531H15.9959C16.0038 4.67102 16.0006 4.51668 15.988 4.371Z" fill="#E0EBFC"/>
<path d="M26.0675 15.1623V16.2094H16.0044C15.7565 11.0522 26.0675 15.1623 26.0675 15.1623Z" fill="#E0EBFC"/>
<path d="M16.0126 4.371V4.21824H16.0312C16.6302 0.0266249 26.0675 3.78799 26.0675 3.78799V15.1418C26.0675 15.1418 16.4022 11.289 16.0126 15.7248V4.83531H16.0047C15.9966 4.67102 15.9997 4.51668 16.0126 4.371Z" fill="#E0EBFC"/>
<path d="M15.9878 15.9934C15.8494 15.9934 15.7328 15.8876 15.7208 15.7484C15.6634 15.096 15.3885 14.627 14.8805 14.3141C12.4945 12.8447 6.09661 15.3656 6.03242 15.3913C5.94988 15.4243 5.85607 15.4141 5.78244 15.3641C5.70882 15.3143 5.66479 15.2309 5.66479 15.1421V3.78832C5.66479 3.67853 5.73161 3.57975 5.8338 3.53913C6.10238 3.43223 12.4478 0.93251 15.099 2.46719C15.7155 2.82433 16.0918 3.36724 16.2191 4.08205C16.2427 4.12214 16.2564 4.16878 16.2564 4.21856V4.36006C16.2695 4.5157 16.2718 4.68025 16.264 4.84847C16.2632 4.86655 16.2605 4.88411 16.2564 4.90088V15.7251C16.2564 15.8687 16.1432 15.9869 15.9998 15.9932C15.9956 15.9932 15.9917 15.9934 15.9878 15.9934ZM6.20142 3.97278V14.7525C7.64675 14.218 12.8715 12.4469 15.1619 13.8569C15.3796 13.991 15.5657 14.1493 15.7197 14.3314V4.83563C15.7197 4.80943 15.7234 4.78401 15.7305 4.76017C15.7341 4.63387 15.731 4.51125 15.7208 4.39491C15.72 4.38705 15.7197 4.37918 15.7197 4.37132V4.31708C15.7119 4.29769 15.7066 4.27752 15.7037 4.2563C15.6175 3.65547 15.3319 3.22234 14.8302 2.93176C12.6263 1.65544 7.22594 3.58682 6.20142 3.97278ZM15.9959 4.83563H15.9972H15.9959Z" fill="#2A4F77"/>
<path d="M16.013 15.9934C16.009 15.9934 16.0051 15.9934 16.0009 15.9931C15.8576 15.9868 15.7444 15.8684 15.7444 15.725V4.89923C15.7402 4.88272 15.7376 4.86569 15.7368 4.8484C15.7287 4.67991 15.7313 4.51562 15.7444 4.35972V4.21823C15.7444 4.1687 15.758 4.12206 15.7813 4.08224C15.9084 3.36717 16.285 2.82425 16.9018 2.46711C19.5524 0.932697 25.8984 3.43189 26.167 3.53906C26.2692 3.57967 26.336 3.67846 26.336 3.78824V15.1418C26.336 15.2309 26.2919 15.3139 26.2183 15.364C26.1447 15.414 26.0509 15.424 25.9683 15.3912C25.9042 15.3656 19.5058 12.8446 17.12 14.3138C16.6122 14.6266 16.3374 15.0959 16.28 15.7484C16.2679 15.8875 16.1513 15.9934 16.013 15.9934ZM19.2401 13.3236C21.7049 13.3236 24.7494 14.3641 25.7993 14.7527V3.97271C24.7746 3.58701 19.3729 1.65615 17.1703 2.93168C16.6686 3.22227 16.383 3.65566 16.297 4.25648C16.2939 4.27744 16.2884 4.29762 16.281 4.31675V4.37125C16.281 4.37911 16.2808 4.38697 16.28 4.39483C16.2698 4.51196 16.2664 4.63537 16.2705 4.76245C16.2774 4.78577 16.281 4.81014 16.281 4.83556V14.3313C16.4351 14.1495 16.6211 13.991 16.8389 13.8568C17.4654 13.4711 18.3117 13.3236 19.2401 13.3236ZM16.0127 4.37125H16.014H16.0127Z" fill="#2A4F77"/>
<path d="M7.34582 6.37964C7.20668 6.37964 7.07672 6.29239 7.02877 6.15378C6.96824 5.97874 7.061 5.78773 7.23603 5.7272C9.68177 4.88086 12.9951 4.06622 14.89 4.99117C15.0564 5.0724 15.1256 5.27311 15.0444 5.4395C14.9631 5.60614 14.7622 5.67506 14.5958 5.59383C12.8187 4.72653 9.35922 5.70231 7.45508 6.36104C7.41918 6.37362 7.38198 6.37964 7.34582 6.37964Z" fill="#DBF5F8"/>
<path d="M7.34582 8.3863C7.20668 8.3863 7.07672 8.29931 7.02877 8.1607C6.96824 7.98541 7.061 7.79439 7.23603 7.73386C9.68177 6.88779 12.9951 6.07315 14.89 6.99784C15.0564 7.07906 15.1256 7.27977 15.0444 7.44642C14.9631 7.61281 14.7622 7.68198 14.5958 7.60049C12.8187 6.73319 9.35922 7.70897 7.45508 8.36796C7.41918 8.38028 7.38198 8.3863 7.34582 8.3863Z" fill="#DBF5F8"/>
<path d="M7.34582 10.3927C7.20668 10.3927 7.07672 10.3057 7.02877 10.1669C6.96824 9.99183 7.061 9.80082 7.23603 9.74029C9.68177 8.89422 12.9951 8.07959 14.89 9.00401C15.0564 9.08549 15.1256 9.2862 15.0444 9.45259C14.9631 9.61897 14.7622 9.68815 14.5958 9.60692C12.8187 8.73962 9.35922 9.7154 7.45508 10.3741C7.41918 10.387 7.38198 10.3927 7.34582 10.3927Z" fill="#DBF5F8"/>
<path d="M7.34582 12.3997C7.20668 12.3997 7.07672 12.3125 7.02877 12.1739C6.96824 11.9988 7.061 11.8078 7.23603 11.7473C9.68177 10.901 12.9951 10.0863 14.89 11.011C15.0564 11.0925 15.1256 11.2932 15.0444 11.4596C14.9631 11.626 14.7622 11.6952 14.5958 11.6139C12.8187 10.7466 9.35922 11.7224 7.45508 12.3811C7.41918 12.3937 7.38198 12.3997 7.34582 12.3997Z" fill="#DBF5F8"/>
<path d="M24.6706 6.37959C24.6342 6.37959 24.5972 6.37356 24.5611 6.36099C22.657 5.70225 19.1977 4.72647 17.4204 5.59378C17.254 5.675 17.053 5.60583 16.9721 5.43944C16.8908 5.27306 16.9598 5.07208 17.1261 4.99112C19.0211 4.06617 22.3347 4.88107 24.7804 5.72715C24.9554 5.78767 25.0482 5.97869 24.9877 6.15372C24.9397 6.29233 24.8098 6.37959 24.6706 6.37959Z" fill="#DBF5F8"/>
<path d="M24.6706 8.3863C24.6342 8.3863 24.5972 8.38054 24.5611 8.36796C22.657 7.70923 19.1977 6.73345 17.4204 7.60049C17.254 7.68172 17.053 7.61281 16.9721 7.44642C16.8908 7.27977 16.9598 7.07906 17.1261 6.99784C19.0211 6.07315 22.3347 6.88779 24.7804 7.73386C24.9554 7.79439 25.0482 7.98541 24.9877 8.1607C24.9397 8.29905 24.8098 8.3863 24.6706 8.3863Z" fill="#DBF5F8"/>
<path d="M24.6706 10.3926C24.6342 10.3926 24.5972 10.3869 24.5611 10.3743C22.6572 9.71531 19.1977 8.73953 17.4204 9.60683C17.254 9.68806 17.053 9.61889 16.9721 9.45276C16.8908 9.28611 16.9598 9.0854 17.1261 9.00418C19.0208 8.07949 22.3344 8.89413 24.7804 9.74047C24.9554 9.80099 25.0482 9.99201 24.9877 10.167C24.9397 10.3057 24.8098 10.3926 24.6706 10.3926Z" fill="#DBF5F8"/>
<path d="M24.6706 12.3997C24.6342 12.3997 24.5972 12.3937 24.5611 12.3811C22.657 11.7224 19.1977 10.7466 17.4204 11.6139C17.254 11.6951 17.053 11.6259 16.9721 11.4595C16.8908 11.2932 16.9598 11.0922 17.1261 11.011C19.0211 10.0863 22.3347 10.9012 24.7804 11.7472C24.9554 11.8078 25.0482 11.9988 24.9877 12.1738C24.9397 12.3124 24.8098 12.3997 24.6706 12.3997Z" fill="#DBF5F8"/>
<path d="M20.007 8.54953C20.007 10.766 18.2103 12.5624 15.9941 12.5624C13.7779 12.5624 11.9812 10.766 11.9812 8.54953C11.9812 6.33332 13.7779 4.53662 15.9941 4.53662C18.2103 4.53662 20.007 6.33332 20.007 8.54953Z" fill="#F9A7A7"/>
<path d="M14.6921 6.82883V10.2975C14.6921 10.4361 14.8397 10.5244 14.9618 10.4592L18.1991 8.72458C18.328 8.65566 18.328 8.47067 18.1991 8.40176L14.9618 6.66742C14.8397 6.60217 14.6921 6.69048 14.6921 6.82883Z" fill="#E0EBFC"/>
</g>
<defs>
<clipPath id="clip0">
<rect width="32" height="32" fill="white"/>
</clipPath>
</defs>
</svg>
