<svg width="32" height="32" viewBox="0 0 32 32" fill="none" xmlns="http://www.w3.org/2000/svg">
<g clip-path="url(#clip0)">
<path d="M22.6257 20.634H19.8874V27.6898H16.976V29.4265H20.3882V29.4685H22.1249V29.4265H25.5371V27.6898H22.6257V20.634Z" fill="#DBF5F8"/>
<path d="M30.2273 5.53613H12.2849C11.3054 5.53613 10.5121 6.33038 10.5121 7.30886V19.1199C10.5121 20.0994 11.3064 20.8926 12.2849 20.8926H30.2273C31.2068 20.8926 32.0001 20.0985 32.0001 19.1199V7.30886C32.001 6.33038 31.2068 5.53613 30.2273 5.53613Z" fill="#F5F5F5"/>
<path d="M30.2273 5.53613H12.2849C11.3054 5.53613 10.5121 6.33038 10.5121 7.30886V11.972C10.5953 12.1803 10.7846 12.3396 11.0219 12.3536C11.3575 12.3666 11.6399 12.0982 11.6399 11.7627V8.68794C11.6399 8.3524 11.9223 8.084 12.2578 8.09703C12.5803 8.11705 12.8157 8.39953 12.8157 8.72099V11.9039C12.8227 12.2193 13.0841 12.4747 13.4066 12.4747C13.7291 12.4747 13.9905 12.2063 13.9905 11.8838V8.13112C13.9905 7.86271 14.2188 7.6404 14.4873 7.6404C14.8528 7.6404 15.0241 7.85671 15.0241 8.10414V11.247C15.0241 11.5695 15.2594 11.8509 15.5809 11.8709C15.9164 11.884 16.1988 11.6156 16.1988 11.28V8.85629C16.1988 8.60093 16.3891 8.36557 16.7357 8.36557C17.0241 8.36557 17.2525 8.60093 17.2525 8.88237V11.0247C17.2525 11.3401 17.4938 11.6296 17.8163 11.6426C18.1519 11.6626 18.4343 11.3942 18.4343 11.0587V8.77522C18.4343 8.49377 18.6696 8.27843 18.9581 8.28546C18.9581 8.28546 18.9581 8.28546 18.9651 8.28546C18.9651 8.28546 18.9651 8.28546 18.9721 8.28546C19.2536 8.27843 19.4959 8.49377 19.4959 8.77522V11.1729C19.4959 11.4954 19.7313 11.7768 20.0467 11.7978C20.3832 11.8108 20.6587 11.5504 20.6676 11.2219V7.81159C20.6676 7.47508 20.9471 7.20764 21.2876 7.22268C21.6051 7.24172 21.8424 7.52517 21.8424 7.84264V11.7546C21.8515 12.0631 22.0868 12.3355 22.3963 12.3546C22.7388 12.3676 23.0142 12.0992 23.0142 11.7636L23.0213 8.68794C23.0213 8.3524 23.2967 8.084 23.6392 8.09703C23.9547 8.11705 24.1971 8.39953 24.1971 8.72099V11.9039C24.2041 12.2193 24.4655 12.4747 24.781 12.4747C25.1095 12.4747 25.3719 12.2063 25.3719 11.8838V8.13112C25.3719 7.86271 25.5932 7.6404 25.8687 7.6404H25.9087C26.1772 7.62038 26.4055 7.84173 26.4055 8.10414V11.247C26.4055 11.5695 26.6409 11.8509 26.9564 11.8709C27.2989 11.884 27.5813 11.6156 27.5813 11.28V8.85629C27.5813 8.58789 27.8026 8.36557 28.071 8.36557C28.4316 8.36557 28.6349 8.61293 28.6349 8.88237V11.0247C28.6349 11.3401 28.8763 11.6296 29.1917 11.6426C29.5273 11.6626 29.8157 11.3942 29.8157 11.0587V8.77522C29.8157 8.49377 30.051 8.27843 30.3325 8.28546C30.3395 8.28546 30.3395 8.28546 30.3395 8.28546C30.3466 8.28546 30.3466 8.28546 30.3526 8.28546C30.635 8.27843 30.8694 8.49377 30.8694 8.77522V11.1729C30.8694 11.4954 31.1107 11.7768 31.4272 11.7978C31.6866 11.8078 31.9059 11.6556 31.9981 11.4353V7.30899C32.001 6.33038 31.2068 5.53613 30.2273 5.53613Z" fill="#DDF1FA"/>
<path d="M6.69623 8.89722C8.45407 8.89722 9.87909 7.4722 9.87909 5.71436C9.87909 3.95651 8.45407 2.53149 6.69623 2.53149C4.93838 2.53149 3.51337 3.95651 3.51337 5.71436C3.51337 7.4722 4.93838 8.89722 6.69623 8.89722Z" fill="#A24B0C"/>
<path d="M9.58667 9.55908C8.78042 10.167 7.78089 10.5316 6.69623 10.5316C5.61156 10.5316 4.61204 10.167 3.80579 9.55908C1.55641 10.6388 0 12.9302 0 15.5924V20.7813C0 21.226 0.360522 21.5865 0.805221 21.5865C1.24992 21.5865 1.61044 21.226 1.61044 20.7813V16.7311C1.61044 16.2795 1.97703 15.9139 2.42767 15.9139C2.87934 15.9139 3.2449 16.2795 3.2449 16.7311L3.2489 28.1125C3.2489 28.8387 3.83781 29.4275 4.56389 29.4275C5.28997 29.4275 5.87887 28.8386 5.87887 28.1125V23.2731C5.87887 22.8215 6.24443 22.4559 6.6961 22.4559C7.14777 22.4559 7.51333 22.8215 7.51333 23.2731V28.1125C7.51333 28.8387 8.10223 29.4275 8.82831 29.4275C9.55439 29.4275 10.1433 28.8386 10.1433 28.1125L10.1453 16.7311C10.1453 16.2795 10.5119 15.9139 10.9625 15.9139C11.4142 15.9139 11.7798 16.2795 11.7798 16.7311V20.7813C11.7798 21.226 12.1403 21.5865 12.585 21.5865H12.587C13.0317 21.5865 13.3922 21.226 13.3922 20.7813V15.5924C13.3925 12.9313 11.8361 10.6388 9.58667 9.55908Z" fill="#2A4F77"/>
<path d="M18.954 16.9557H17.9935L17.612 15.9622H15.8643L15.5038 16.9557H14.5673L16.2709 12.583H17.2043L18.954 16.9557ZM17.3285 15.226L16.7256 13.6035L16.1347 15.226H17.3285Z" fill="#757575"/>
<path d="M19.4258 12.583H21.1735C21.519 12.583 21.7774 12.597 21.9476 12.6261C22.1179 12.6551 22.2701 12.7152 22.4043 12.8064C22.5385 12.8975 22.6507 13.0197 22.7399 13.1719C22.829 13.3241 22.8741 13.4944 22.8741 13.6837C22.8741 13.889 22.819 14.0763 22.7088 14.2475C22.5986 14.4188 22.4484 14.547 22.2601 14.6321C22.5265 14.7093 22.7319 14.8425 22.8751 15.0288C23.0183 15.216 23.0894 15.4354 23.0894 15.6878C23.0894 15.8861 23.0433 16.0804 22.9501 16.2676C22.858 16.4559 22.7318 16.6061 22.5715 16.7183C22.4113 16.8305 22.214 16.8996 21.9797 16.9257C21.8324 16.9417 21.4779 16.9517 20.915 16.9557H19.4257V12.583H19.4258ZM20.3081 13.3111V14.3226H20.887C21.2316 14.3226 21.4449 14.3176 21.528 14.3076C21.6793 14.2896 21.7985 14.2375 21.8846 14.1514C21.9707 14.0653 22.0148 13.9511 22.0148 13.8098C22.0148 13.6746 21.9777 13.5645 21.9026 13.4803C21.8285 13.3962 21.7173 13.3451 21.5701 13.3271C21.4829 13.3171 21.2305 13.3121 20.8159 13.3121H20.3081V13.3111ZM20.3081 15.0497V16.2185H21.1254C21.4439 16.2185 21.6451 16.2095 21.7313 16.1915C21.8626 16.1675 21.9697 16.1094 22.0518 16.0172C22.1339 15.9251 22.176 15.8009 22.176 15.6456C22.176 15.5144 22.144 15.4032 22.0809 15.3111C22.0168 15.22 21.9256 15.1529 21.8045 15.1108C21.6843 15.0687 21.4229 15.0477 21.0213 15.0477H20.3081V15.0497Z" fill="#757575"/>
<path d="M26.6317 15.3481L27.488 15.6195C27.3567 16.0963 27.1384 16.4509 26.8329 16.6832C26.5275 16.9145 26.1399 17.0307 25.6711 17.0307C25.0902 17.0307 24.6135 16.8324 24.2389 16.4358C23.8654 16.0392 23.6781 15.4964 23.6781 14.8083C23.6781 14.0802 23.8664 13.5153 24.242 13.1127C24.6175 12.7101 25.1123 12.5088 25.7242 12.5088C26.259 12.5088 26.6937 12.667 27.0272 12.9835C27.2265 13.1708 27.3747 13.4392 27.4748 13.7887L26.6015 13.997C26.5494 13.7707 26.4423 13.5914 26.2781 13.4602C26.1138 13.3291 25.9145 13.263 25.6801 13.263C25.3556 13.263 25.0932 13.3791 24.8909 13.6125C24.6886 13.8449 24.5884 14.2214 24.5884 14.7433C24.5884 15.2961 24.6876 15.6897 24.8869 15.924C25.0852 16.1584 25.3446 16.2756 25.6621 16.2756C25.8965 16.2756 26.0988 16.2005 26.2681 16.0522C26.4364 15.9029 26.5576 15.6686 26.6317 15.3481Z" fill="#757575"/>
</g>
<defs>
<clipPath id="clip0">
<rect width="32" height="32" fill="white"/>
</clipPath>
</defs>
</svg>
