<svg width="25" height="20" viewBox="0 0 25 20" fill="none" xmlns="http://www.w3.org/2000/svg">
<g opacity="0.75">
<path d="M21.25 0.225C20.95 -0.075 20.35 -0.075 20.05 0.225L16.95 3.325C13.05 1.525 8.95 2.025 4.95 4.525C1.95 6.525 0.15 8.925 0.15 9.025C-0.05 9.325 -0.05 9.825 0.15 10.125C1.85 12.225 3.55 13.825 5.35 14.925L2.55 17.725C2.25 18.025 2.25 18.625 2.55 18.925C2.75 19.125 2.95 19.225 3.15 19.225C3.35 19.225 3.65 19.125 3.75 18.925L21.25 1.425C21.65 1.125 21.65 0.525 21.25 0.225ZM9.75 10.425C9.65 10.125 9.55 9.825 9.55 9.525C9.55 8.925 9.75 8.325 10.25 7.825C10.95 7.125 12.05 6.925 12.85 7.325L9.75 10.425ZM14.15 6.025C12.55 5.025 10.35 5.225 8.95 6.625C8.25 7.425 7.85 8.425 7.85 9.525C7.85 10.325 8.05 11.125 8.55 11.725L6.75 13.525C5.05 12.625 3.45 11.325 1.95 9.525C2.65 8.725 3.95 7.325 5.85 6.025C9.15 3.925 12.35 3.425 15.55 4.625L14.15 6.025Z" fill="#F2AB3E"/>
<path d="M23.75 8.925C22.55 7.425 21.25 6.225 20.05 5.225C19.65 4.925 19.15 5.025 18.85 5.425C18.55 5.825 18.65 6.325 19.05 6.625C20.05 7.425 21.05 8.425 22.05 9.525C21.45 10.225 20.35 11.425 18.85 12.525C15.95 14.625 12.95 15.425 10.05 14.825C9.54998 14.725 9.14998 15.025 9.04998 15.525C8.94998 16.025 9.24998 16.425 9.74998 16.525C10.55 16.725 11.25 16.725 12.05 16.725C13.25 16.725 14.35 16.525 15.55 16.225C17.05 15.725 18.55 14.925 20.05 13.925C22.55 12.125 23.95 10.125 24.05 10.025C24.05 9.725 24.05 9.325 23.75 8.925Z" fill="#F2AB3E"/>
</g>
</svg>
