<svg xmlns="http://www.w3.org/2000/svg" viewBox="0 0 64 64">
    <defs><style>.cls-1{fill:none;}.cls-2{fill:#757575;}</style></defs>
    <rect class="cls-1" width="64" height="64"/>
    <path class="cls-2" d="M37.45,58.18a1.09,1.09,0,0,0,1.1-1.09V15.64a1.09,1.09,0,0,0-1.1-1.09H26.55a1.09,1.09,0,0,0-1.1,1.09V57.09a1.09,1.09,0,0,0,1.1,1.09ZM27.64,16.73h8.72V56H27.64Z"/>
    <path class="cls-2" d="M9.09,58.18H20a1.09,1.09,0,0,0,1.09-1.09V24.36A1.09,1.09,0,0,0,20,23.27H9.09A1.09,1.09,0,0,0,8,24.36V57.09A1.09,1.09,0,0,0,9.09,58.18Zm1.09-32.73h8.73V56H10.18Z"/>
    <rect class="cls-2" x="42.91" y="5.82" width="13.09" height="52.36" rx="1.09"/>
</svg>