<svg xmlns="http://www.w3.org/2000/svg" viewBox="0 0 512 512"><defs><style>.cls-1{fill:none;}.cls-2{fill:#08384d;}.cls-3{fill:#fff;}.cls-4{fill:#f2ab3e;}.cls-5{fill:#c8cacc;}.cls-6{fill:#60d2b0;}.cls-7{fill:#15bdb1;}.cls-8{fill:#ff5b61;}.cls-9{fill:#ec4b53;}.cls-10{fill:#666;}</style></defs><title>homework</title><g id="Layer_2" data-name="Layer 2"><g id="Layer_1-2" data-name="Layer 1"><rect class="cls-1" width="512" height="512"/><path class="cls-2" d="M256,506c137.7,0,250-112.3,250-250S393.7,6,256,6,6,118.3,6,256,118.31,506,256,506Z"/><path class="cls-3" d="M120.83,76H391.17V380.13L335.29,436H120.83Z"/><path class="cls-4" d="M335.29,380.13h55.88L335.29,436Z"/><path class="cls-5" d="M154.29,183.37H351.36v2.92H154.29Zm0,168.51h90.16v2.92H154.29v-2.92Zm0-15.61H351.36v2.93H154.29Zm0-19.11H351.36v2.92H154.29Zm0-19.11H351.36V301H154.29Zm0-19.12H351.36v2.93H154.29Zm0-19.11H351.36v2.92H154.29Zm0-19.11H351.36v2.92H154.29Zm0-19.12H351.36v2.93H154.29Zm0-19.11H351.36v2.93H154.29Z"/><path class="cls-6" d="M197.22,168.24a4,4,0,0,1-1.75-.37,3.72,3.72,0,0,1-1.27-1,4.54,4.54,0,0,1-.76-1.43,5.59,5.59,0,0,1-.26-1.61,7.26,7.26,0,0,1,.39-2c.24-.84.57-1.78,1-2.83s.83-2.14,1.3-3.27.94-2.25,1.38-3.28.83-2,1.14-2.91.55-1.6.68-2.1.28-1.25.47-2,.41-1.65.64-2.6.48-1.91.71-2.94.49-2.08.75-3.11c-.46.09-1,.17-1.64.26s-1.35.14-2.08.21c-1,.1-2.08.24-3.09.42s-2.06.41-3.12.65l-3.31.76c-1.14.26-2.36.56-3.66.83-1.9.42-3.81.88-5.71,1.38a22.84,22.84,0,0,1-5.95.77,3.31,3.31,0,0,1-1.77-.51,6.59,6.59,0,0,0-1.8-.73c-.64,1-1.23,2.1-1.81,3.25s-1.1,2.36-1.57,3.57-.91,2.44-1.28,3.63-.72,2.3-1,3.34a14.68,14.68,0,0,0-.4,2.23c-.11.89-.23,1.82-.31,2.76s-.19,1.82-.29,2.68-.2,1.54-.29,2.05a3.87,3.87,0,0,1-.57,1.4,5.73,5.73,0,0,1-1,1.26,5.24,5.24,0,0,1-1.38.93,3.6,3.6,0,0,1-1.53.36,3,3,0,0,1-2.16-.78,5.58,5.58,0,0,1-1.33-1.95,9.77,9.77,0,0,1-.7-2.55,18.07,18.07,0,0,1-.18-2.52,26.3,26.3,0,0,1,.72-6,46.21,46.21,0,0,1,1.91-6.31,68.71,68.71,0,0,1,2.86-6.49c1.09-2.17,2.28-4.33,3.54-6.49q1.59-2.91,3.9-6.71t5.22-7.83q2.86-4,6.23-7.88a63.39,63.39,0,0,1,7-6.87,36.74,36.74,0,0,1,7.43-4.87A17,17,0,0,1,200,99.1a13.92,13.92,0,0,1,6.6,1.43,11.43,11.43,0,0,1,4.21,3.86,16,16,0,0,1,2.21,5.66,35.08,35.08,0,0,1,.65,6.85,52.87,52.87,0,0,1-.41,6.56c-.28,2.26-.6,4.47-1,6.63s-.81,4.22-1.28,6.22-.88,3.82-1.25,5.43L208,148.22c-.07.2-.18.57-.36,1.14s-.39,1.26-.67,2.07-.56,1.68-.89,2.62-.67,1.85-1,2.76-.65,1.74-1,2.49-.55,1.38-.77,1.87l0,0c-.22.82-.45,1.65-.71,2.51a8.87,8.87,0,0,1-1,2.31,5.71,5.71,0,0,1-1.72,1.67,5.22,5.22,0,0,1-2.72.63Zm2.44-59.58h0a11,11,0,0,0-4.27.88,22.06,22.06,0,0,0-4.16,2.32,28.23,28.23,0,0,0-4,3.33q-1.92,1.91-3.66,3.9c-1.15,1.33-2.24,2.66-3.26,4s-1.94,2.6-2.76,3.74l-.51.74c-.19.3-.4.64-.61,1s-.41.74-.59,1.15-.36.75-.49,1.07h4.91a54.1,54.1,0,0,0,6.09-.39c2.29-.26,4.55-.55,6.79-.91s4.29-.7,6.16-1.05l4.24-.85a13.18,13.18,0,0,0,.35-1.66c.12-.69.21-1.47.31-2.33s.16-1.78.21-2.73.07-2,.07-3c0-.82,0-1.77-.08-2.84a11.64,11.64,0,0,0-.59-3,6,6,0,0,0-1.44-2.4,3.69,3.69,0,0,0-2.73-1Zm47.59,28.27h0c-1.82,8.54-2.71,14.18-2.71,16.94a2.53,2.53,0,0,1-1.69,2.19,7.49,7.49,0,0,1-3.41.86,4.77,4.77,0,0,1-3.09-1,2.92,2.92,0,0,1-1.18-2.37c0-3.39.89-8.85,2.71-16.37q-6.72.15-11.61.66c-1.9.2-3.2.3-3.87.3-1.8,0-2.7-1.6-2.7-4.76,0-1.24.88-2.23,2.63-3s7.67-1.17,17.73-1.33q4.77-16.14,6-18.07a4.24,4.24,0,0,1,3.77-1.91c2.59,0,3.9.61,3.9,1.85a10.06,10.06,0,0,1-.72,3q-.7,2-4.05,14.8,9-.27,14.8-.28c2.49,0,3.72,1.23,3.72,3.7,0,2.93-1.81,4.39-5.47,4.39q-6.19,0-14.8.28Z"/><path class="cls-6" d="M317.45,198.67l17.37,13.67,118-149.92L435.45,48.75l-118,149.92Z"/><path class="cls-7" d="M402.66,126.14l3.41-4.33-17.34-13.7-3.41,4.34,17.34,13.69Z"/><path class="cls-8" d="M313.69,228l21.13-15.7-17.37-13.67-10.24,24.27Z"/><path class="cls-9" d="M313.71,228l21.11-15.68-3.77-3-18.61,17.67,1.27,1Z"/><path class="cls-8" d="M450.53,36.92,460.77,45c2.81,2.22,3.14,6.54.72,9.61l-54.85,69.7-20.48-16.12L441,38.48c2.41-3.07,6.69-3.77,9.51-1.56Z"/><path class="cls-9" d="M459.65,53.14l-7.12,9L435,84.45,404.8,122.84l.28.23,1.55,1.22L436,87l25.49-32.39c2.42-3.07,2.09-7.39-.72-9.61l-.49-.38a7.41,7.41,0,0,1-.63,8.54Z"/><path class="cls-10" d="M298.84,239.48l.72.57,14.13-12-6.48-5.1Z"/><path class="cls-3" d="M433.63,47.85l23.83,19a1.59,1.59,0,0,1,.17,2.31l-31.86,40.48-.83.59-4.12,1.43c-2,.59-3.16-2-.8-3.12l3.61-1.25,30.49-38.74-22.6-18,2.11-2.67Z"/><path class="cls-7" d="M333.38,211.21l1.44,1.13,67.85-86.2L401.23,125Z"/></g></g></svg>