<svg width="21" height="15" viewBox="0 0 21 15" fill="none" xmlns="http://www.w3.org/2000/svg">
<path fill-rule="evenodd" clip-rule="evenodd" d="M9.95596 11.0168C10.092 11.1529 10.2824 11.2345 10.5 11.2345C10.6904 11.2345 10.8808 11.1529 11.0168 11.0168C11.1528 10.8808 11.2345 10.6904 11.2345 10.5C11.2345 10.2824 11.1528 10.092 11.0168 9.95596C10.8808 9.81995 10.6904 9.73834 10.5 9.73834C10.2824 9.73834 10.092 9.81995 9.95596 9.95596C9.81995 10.092 9.73834 10.2824 9.73834 10.5C9.73834 10.6904 9.81995 10.8808 9.95596 11.0168ZM8.89508 8.89508C9.30311 8.48705 9.87435 8.24223 10.5 8.24223C10.8536 8.24223 11.1801 8.32383 11.4793 8.45984L13.4106 6.5013C13.7098 6.22927 14.1995 6.22927 14.4715 6.5013C14.7707 6.80052 14.7707 7.29016 14.4715 7.56218L12.5402 9.52073C12.6762 9.81995 12.7578 10.1464 12.7578 10.5C12.7578 11.1256 12.4858 11.6697 12.0777 12.0777C11.6697 12.4858 11.1256 12.7578 10.5 12.7578C9.87435 12.7578 9.30311 12.4858 8.89508 12.0777C8.48705 11.6697 8.24223 11.1256 8.24223 10.5C8.24223 9.87435 8.48705 9.30311 8.89508 8.89508ZM17.3821 2.55699C15.7228 1.08808 13.5738 0.163212 11.2345 0V0.0272021V1.52332C11.2345 1.93135 10.908 2.28497 10.5 2.28497C10.0648 2.28497 9.73834 1.93135 9.73834 1.52332V0.0272021V0C7.39896 0.163212 5.2772 1.08808 3.59067 2.55699H3.61788L4.67876 3.61788C4.97798 3.9171 4.97798 4.37953 4.67876 4.67876C4.37953 4.97798 3.9171 4.97798 3.61788 4.67876L2.55699 3.61788H2.52979C1.08808 5.2772 0.163212 7.39896 0 9.73834H0.0272021H1.52332C1.93135 9.73834 2.28497 10.092 2.28497 10.5C2.28497 10.908 1.93135 11.2617 1.52332 11.2617H0.0272021H0C0.0816062 12.4313 0.353627 13.5466 0.78886 14.5803H20.1839C20.6192 13.5466 20.9184 12.4041 21 11.2345H20.9728H19.4767C19.0415 11.2345 18.715 10.908 18.715 10.5C18.715 10.0648 19.0415 9.73834 19.4767 9.73834H20.9728H21C20.8096 7.39896 19.8847 5.2772 18.443 3.61788L17.3821 4.67876C17.0829 4.97798 16.6205 4.97798 16.3212 4.67876C16.022 4.37953 16.022 3.9171 16.3212 3.61788L17.3821 2.55699Z" fill="#959595"/>
</svg>
