<svg width="16" height="16" viewBox="0 0 16 16" fill="none" xmlns="http://www.w3.org/2000/svg">
<path fill-rule="evenodd" clip-rule="evenodd" d="M8.51667 1.83382C9.27108 1.10518 10.2815 0.702006 11.3303 0.711119C12.3791 0.720233 13.3823 1.14091 14.1239 1.88254C14.8656 2.62417 15.2863 3.62742 15.2954 4.67621C15.3045 5.725 14.9013 6.73541 14.1727 7.48982L14.1645 7.49808L12.1646 9.49799C11.7591 9.90365 11.2711 10.2174 10.7337 10.4178C10.1963 10.6183 9.62207 10.7008 9.04995 10.6599C8.47784 10.6189 7.92123 10.4554 7.41787 10.1803C6.91452 9.90534 6.47619 9.5253 6.13263 9.06599C5.91209 8.77116 5.97232 8.35337 6.26716 8.13283C6.56199 7.91229 6.97978 7.97252 7.20032 8.26736C7.42936 8.57356 7.72157 8.82692 8.05714 9.01026C8.39271 9.19359 8.76379 9.30262 9.1452 9.32993C9.52661 9.35725 9.90943 9.30222 10.2677 9.16857C10.626 9.03493 10.9513 8.82579 11.2217 8.55536L13.2174 6.55959C13.7008 6.05708 13.9681 5.38516 13.9621 4.6878C13.956 3.9886 13.6756 3.31977 13.1811 2.82535C12.6867 2.33093 12.0179 2.05048 11.3187 2.0444C10.621 2.03834 9.94882 2.30594 9.44623 2.7897L8.30317 3.92612C8.04206 4.18571 7.61995 4.18448 7.36036 3.92337C7.10077 3.66226 7.10201 3.24015 7.36311 2.98056L8.50978 1.84056L8.51667 1.83382Z" fill="#2A4F77"/>
<path fill-rule="evenodd" clip-rule="evenodd" d="M5.26591 5.5822C5.80331 5.38173 6.37755 5.29918 6.94966 5.34016C7.52178 5.38113 8.07839 5.54466 8.58174 5.81967C9.0851 6.09468 9.52342 6.47472 9.86698 6.93402C10.0875 7.22886 10.0273 7.64665 9.73246 7.86718C9.43763 8.08772 9.01984 8.02749 8.7993 7.73266C8.57026 7.42646 8.27804 7.1731 7.94247 6.98976C7.6069 6.80642 7.23583 6.6974 6.85442 6.67008C6.47301 6.64277 6.09018 6.6978 5.73191 6.83144C5.37364 6.96509 5.0483 7.17422 4.77796 7.44466L2.7822 9.44042C2.29884 9.94294 2.03148 10.6149 2.03754 11.3122C2.04361 12.0114 2.32406 12.6802 2.81848 13.1747C3.31291 13.6691 3.98174 13.9495 4.68093 13.9556C5.37829 13.9617 6.0502 13.6943 6.55272 13.211L7.6884 12.0753C7.94875 11.8149 8.37086 11.8149 8.63121 12.0753C8.89156 12.3356 8.89156 12.7577 8.63121 13.0181L7.49121 14.1581L7.48295 14.1662C6.72854 14.8948 5.71813 15.298 4.66934 15.2889C3.62056 15.2798 2.61731 14.8591 1.87567 14.1175C1.13404 13.3758 0.713366 12.3726 0.704253 11.3238C0.695139 10.275 1.09832 9.26461 1.82695 8.5102L1.83507 8.50194L3.83498 6.50202C3.83496 6.50205 3.83501 6.50199 3.83498 6.50202C4.24048 6.09641 4.72854 5.78265 5.26591 5.5822Z" fill="#2A4F77"/>
</svg>
