<svg width="16" height="16" viewBox="0 0 16 16" fill="none" xmlns="http://www.w3.org/2000/svg">
<path fill-rule="evenodd" clip-rule="evenodd" d="M2.6665 3.33333C2.30136 3.33333 1.99984 3.63486 1.99984 4V12C1.99984 12.3651 2.30136 12.6667 2.6665 12.6667H13.3332C13.6983 12.6667 13.9998 12.3651 13.9998 12V4C13.9998 3.63486 13.6983 3.33333 13.3332 3.33333H2.6665ZM0.666504 4C0.666504 2.89848 1.56498 2 2.6665 2H13.3332C14.4347 2 15.3332 2.89848 15.3332 4V12C15.3332 13.1015 14.4347 14 13.3332 14H2.6665C1.56498 14 0.666504 13.1015 0.666504 12V4Z" fill="#2A4F77"/>
<path fill-rule="evenodd" clip-rule="evenodd" d="M0.787073 3.6177C0.998216 3.31607 1.4139 3.24271 1.71554 3.45385L7.99989 7.8529L14.2843 3.45385C14.5859 3.24271 15.0016 3.31607 15.2127 3.6177C15.4239 3.91933 15.3505 4.33502 15.0489 4.54616L8.3822 9.21283C8.15266 9.37351 7.84713 9.37351 7.61759 9.21283L0.95092 4.54616C0.649287 4.33502 0.57593 3.91933 0.787073 3.6177Z" fill="#2A4F77"/>
</svg>
