<svg width="16" height="16" viewBox="0 0 16 16" fill="none" xmlns="http://www.w3.org/2000/svg">
<path fill-rule="evenodd" clip-rule="evenodd" d="M5.00257 0.754525C5.19611 0.643935 5.43211 0.637384 5.63148 0.737069L10.6457 3.24417L15.0026 0.754525C15.2089 0.636619 15.4624 0.637466 15.668 0.756747C15.8735 0.876029 16 1.09571 16 1.33335V12C16 12.2393 15.8718 12.4602 15.6641 12.5788L10.9974 15.2455C10.8039 15.3561 10.5679 15.3627 10.3685 15.263L5.35431 12.7559L0.997426 15.2455C0.791091 15.3634 0.537592 15.3626 0.332049 15.2433C0.126506 15.124 0 14.9043 0 14.6667V4.00002C0 3.76078 0.128191 3.53989 0.335907 3.42119L5.00257 0.754525ZM5.35431 2.0892L1.33333 4.3869V13.5179L5.00257 11.4212C5.19611 11.3106 5.43211 11.3041 5.63148 11.4037L10.6457 13.9108L14.6667 11.6131V2.48214L10.9974 4.57885C10.8039 4.68944 10.5679 4.69599 10.3685 4.59631L5.35431 2.0892Z" fill="#959595"/>
<path fill-rule="evenodd" clip-rule="evenodd" d="M5.33329 0.666687C5.70148 0.666687 5.99996 0.965164 5.99996 1.33335V12C5.99996 12.3682 5.70148 12.6667 5.33329 12.6667C4.9651 12.6667 4.66663 12.3682 4.66663 12V1.33335C4.66663 0.965164 4.9651 0.666687 5.33329 0.666687Z" fill="#959595"/>
<path fill-rule="evenodd" clip-rule="evenodd" d="M10.6667 3.33331C11.0349 3.33331 11.3333 3.63179 11.3333 3.99998V14.6666C11.3333 15.0348 11.0349 15.3333 10.6667 15.3333C10.2985 15.3333 10 15.0348 10 14.6666V3.99998C10 3.63179 10.2985 3.33331 10.6667 3.33331Z" fill="#959595"/>
</svg>
