<svg width="16" height="16" viewBox="0 0 16 16" fill="none" xmlns="http://www.w3.org/2000/svg">
<path d="M7.99661 0C4.46118 0 1.58319 2.87799 1.58319 6.41342C1.58319 6.81593 1.62009 7.2218 1.69724 7.61761C1.70059 7.64109 1.71401 7.71153 1.74084 7.83228C1.83812 8.26499 1.98235 8.69099 2.17019 9.09686C2.86118 10.7237 4.38068 13.2226 7.71485 15.8994C7.7987 15.9665 7.89933 16 7.99996 16C8.10059 16 8.20122 15.9665 8.28508 15.8994C11.6159 13.2226 13.1387 10.7237 13.8297 9.09686C14.0176 8.69099 14.1618 8.26834 14.2591 7.83228C14.2859 7.71153 14.2993 7.64109 14.3027 7.61761C14.3765 7.2218 14.4167 6.81593 14.4167 6.41342C14.41 2.87799 11.532 0 7.99661 0ZM13.4037 7.45996C13.4037 7.46667 13.4004 7.47337 13.4004 7.48008C13.397 7.49686 13.387 7.54717 13.3702 7.62432C13.3702 7.62767 13.3702 7.62767 13.3702 7.63103C13.2863 8.00671 13.1622 8.37233 12.9979 8.72453C12.9945 8.72788 12.9945 8.73459 12.9912 8.73795C12.3639 10.2239 10.9886 12.4914 7.99661 14.9635C5.00457 12.4914 3.62931 10.2239 3.00206 8.73795C2.9987 8.73459 2.9987 8.72788 2.99535 8.72453C2.83434 8.37568 2.71023 8.00671 2.62302 7.63103C2.62302 7.62767 2.62302 7.62767 2.62302 7.62432C2.6029 7.54717 2.59619 7.49686 2.59283 7.48008C2.59283 7.47337 2.58948 7.46667 2.58948 7.4566C2.52239 7.11111 2.48885 6.76226 2.48885 6.41006C2.48885 3.37442 4.96097 0.902306 7.99661 0.902306C11.0322 0.902306 13.5044 3.37442 13.5044 6.41006C13.5044 6.76562 13.4708 7.11782 13.4037 7.45996Z" fill="#959595"/>
<path d="M7.99662 2.41162C5.75259 2.41162 3.9245 4.23971 3.9245 6.48374C3.9245 8.72776 5.75259 10.5559 7.99662 10.5559C10.2406 10.5559 12.0687 8.72776 12.0687 6.48374C12.0687 4.23971 10.2406 2.41162 7.99662 2.41162ZM7.99662 9.6502C6.24903 9.6502 4.83016 8.22797 4.83016 6.48374C4.83016 4.7395 6.25238 3.31728 7.99662 3.31728C9.74085 3.31728 11.1631 4.7395 11.1631 6.48374C11.1631 8.22797 9.74421 9.6502 7.99662 9.6502Z" fill="#959595"/>
</svg>
