<svg width="96" height="96" viewBox="0 0 96 96" fill="none" xmlns="http://www.w3.org/2000/svg">
<circle cx="48" cy="48" r="48" fill="#F9B88C"/>
<path fill-rule="evenodd" clip-rule="evenodd" d="M32 34C30.9046 34 30 34.9046 30 36V60C30 61.0954 30.9046 62 32 62H64C65.0954 62 66 61.0954 66 60V36C66 34.9046 65.0954 34 64 34H32ZM26 36C26 32.6954 28.6954 30 32 30H64C67.3046 30 70 32.6954 70 36V60C70 63.3046 67.3046 66 64 66H32C28.6954 66 26 63.3046 26 60V36Z" fill="#7C4231"/>
<path fill-rule="evenodd" clip-rule="evenodd" d="M26.3616 34.8531C26.995 33.9482 28.2421 33.7282 29.147 34.3616L48 47.5587L66.8531 34.3616C67.758 33.7282 69.0051 33.9482 69.6385 34.8531C70.2719 35.758 70.0519 37.0051 69.147 37.6385L49.147 51.6385C48.4583 52.1206 47.5418 52.1206 46.8531 51.6385L26.8531 37.6385C25.9482 37.0051 25.7282 35.758 26.3616 34.8531Z" fill="#7C4231"/>
</svg>
