<svg width="32" height="36" viewBox="0 0 32 36" fill="none" xmlns="http://www.w3.org/2000/svg">
<path d="M5.33346 14.1938C5.33253 11.9776 6.0219 9.81614 7.3058 8.00972C8.58969 6.20331 10.4044 4.84163 12.4977 4.1139C12.4169 3.60614 12.4472 3.08691 12.5865 2.59201C12.7258 2.09711 12.9708 1.63831 13.3046 1.24724C13.6384 0.85618 14.053 0.542159 14.5199 0.326833C14.9868 0.111507 15.4948 0 16.0089 0C16.523 0 17.0311 0.111507 17.4979 0.326833C17.9648 0.542159 18.3794 0.85618 18.7132 1.24724C19.047 1.63831 19.292 2.09711 19.4313 2.59201C19.5706 3.08691 19.6009 3.60614 19.5201 4.1139C21.6101 4.84462 23.4209 6.20757 24.7015 8.01374C25.982 9.8199 26.6688 11.9798 26.6665 14.1938V24.8607L32 28.4161V30.1973H0V28.4161L5.33346 24.8607V14.1938ZM19.5558 31.9699C19.5558 32.913 19.1811 33.8174 18.5143 34.4843C17.8475 35.1511 16.9431 35.5257 16 35.5257C15.057 35.5257 14.1525 35.1511 13.4857 34.4843C12.8189 33.8174 12.4442 32.913 12.4442 31.9699H19.5558Z" fill="#AC1D26"/>
</svg>
