<svg width="48" height="48" viewBox="0 0 48 48" fill="none" xmlns="http://www.w3.org/2000/svg">
<g clip-path="url(#clip0)">
<path d="M14.4 30.4C14.8424 30.4 15.2 30.0416 15.2 29.6001V23.7776C15.6759 23.5 15.9999 22.9897 15.9999 22.4001C15.9999 21.5177 15.2824 20.8 14.3999 20.8C13.5175 20.8 12.7999 21.5176 12.7999 22.4001C12.7999 22.9897 13.1239 23.5 13.5998 23.7776V29.6001C13.6 30.0416 13.9576 30.4 14.4 30.4Z" fill="#2A4F77"/>
<path d="M8.03045 12.6023C8.18326 14.1399 8.85207 15.4935 8.88404 15.5575C9.60967 17.0079 10.7056 19.1999 14.4 19.1999C18.0944 19.1999 19.1904 17.0079 19.916 15.5575C19.9479 15.4935 20.6168 14.1399 20.7696 12.6023C21.264 12.3304 21.6 11.8031 21.6 11.1999V9.59989C21.6 9.0087 21.2784 8.49186 20.8 8.21511V7.99995C20.8 5.35273 18.6473 3.19995 16 3.19995H12.8001C10.1529 3.19995 8.00007 5.35273 8.00007 7.99995V8.21511C7.52157 8.49186 7.20001 9.0087 7.20001 9.59989V11.1999C7.20001 11.8031 7.53601 12.3303 8.03045 12.6023ZM8.80004 9.59989C9.24245 9.59989 9.60001 9.24148 9.60001 8.79992V7.99995C9.60001 6.23511 11.0352 4.79998 12.8 4.79998H15.9999C17.7648 4.79998 19.1999 6.2352 19.1999 7.99995V8.79992C19.1999 9.24148 19.5575 9.59989 19.9999 9.59989V11.1999C19.5575 11.1999 19.1999 11.5583 19.1999 11.9999C19.1999 13.3839 18.4912 14.8287 18.4839 14.8423C17.6512 16.5079 16.9167 17.5999 14.3999 17.5999C11.8831 17.5999 11.1487 16.5079 10.3167 14.843C10.3088 14.8286 9.59992 13.3838 9.59992 11.9999C9.59992 11.5583 9.24236 11.1999 8.79995 11.1999V9.59989H8.80004Z" fill="#2A4F77"/>
<path d="M16 11.1998H16.8C17.2424 11.1998 17.6 10.8414 17.6 10.3998C17.6 9.95826 17.2424 9.59985 16.8 9.59985H16C15.5576 9.59985 15.2001 9.95826 15.2001 10.3998C15.2 10.8414 15.5576 11.1998 16 11.1998Z" fill="#2A4F77"/>
<path d="M12 11.1998H12.8C13.2424 11.1998 13.5999 10.8414 13.5999 10.3998C13.5999 9.95826 13.2424 9.59985 12.8 9.59985H12C11.5576 9.59985 11.2 9.95826 11.2 10.3998C11.2 10.8414 11.5576 11.1998 12 11.1998Z" fill="#2A4F77"/>
<path d="M5.59996 30.3999C5.15755 30.3999 4.79999 30.7583 4.79999 31.1999V43.9998C4.79999 44.4414 5.15755 44.7998 5.59996 44.7998C6.04236 44.7998 6.39993 44.4414 6.39993 43.9998V31.1999C6.40002 30.7583 6.04236 30.3999 5.59996 30.3999Z" fill="#2A4F77"/>
<path d="M42.4528 30.3999H42.4496C42.0097 30.3999 41.6513 30.7559 41.6497 31.1967L41.6001 43.9967C41.5985 44.4382 41.9544 44.7982 42.3968 44.7999H42.4C42.8408 44.7999 43.1984 44.4439 43.2 44.0031L43.2496 31.2032C43.2512 30.7615 42.8952 30.4015 42.4528 30.3999Z" fill="#2A4F77"/>
<path d="M35.1584 10.1471C35.0504 9.81988 34.7448 9.59985 34.4 9.59985C34.0552 9.59985 33.7504 9.81988 33.6415 10.1471C33.0399 11.9511 31.2696 11.9991 31.1999 11.9999C30.7575 11.9999 30.3999 12.3583 30.3999 12.7998V15.9998C30.3999 18.6718 32.2255 22.3998 35.1999 22.3998C38.1743 22.3998 39.9999 18.6719 39.9999 15.9998V12.7998C39.9999 12.3583 39.6424 11.9999 39.2 11.9999C39.1656 11.9999 35.76 11.9494 35.1584 10.1471ZM38.4 15.9999C38.4 18.1743 36.9727 20.7999 35.2 20.7999C33.4273 20.7999 32.0001 18.1743 32.0001 15.9999V13.5023C32.7832 13.3247 33.7505 12.8783 34.4609 11.9695C35.5817 13.0903 37.3689 13.4407 38.4001 13.5503V15.9999H38.4Z" fill="#2A4F77"/>
<path d="M46.0384 24.8006C44.4704 23.2358 42.1152 22.4094 39.224 22.4094C38.7759 22.4182 38.4023 22.759 38.4 23.207C38.3991 23.3703 38.344 27.1999 35.2 27.1999C32.056 27.1999 32.0008 23.371 32.0001 23.2079C31.9992 22.7671 31.6416 22.4103 31.2001 22.4103C30.7577 22.4103 30.4001 22.7678 30.4001 23.2102C30.4001 24.9991 31.2641 28.2575 34.4001 28.735V32.7998C34.4001 33.2414 34.7577 33.5998 35.2001 33.5998C35.6425 33.5998 36.0001 33.2414 36.0001 32.7998V28.7342C38.7001 28.3221 39.7169 25.8517 39.9465 24.0293C42.0681 24.1485 43.7729 24.7998 44.9081 25.9333C45.8706 26.8941 46.4001 28.1957 46.4001 29.5997V42.3996C46.4001 42.8412 46.7577 43.1996 47.2001 43.1996C47.6425 43.1996 48.0001 42.8412 48.0001 42.3996V29.5998C48 27.7678 47.3032 26.0638 46.0384 24.8006Z" fill="#2A4F77"/>
<path d="M23.2 30.3999C22.7576 30.3999 22.4001 30.7583 22.4001 31.1999V43.9998C22.4001 44.4414 22.7576 44.7998 23.2 44.7998C23.6424 44.7998 24 44.4414 24 43.9998V31.1999C24 30.7583 23.6424 30.3999 23.2 30.3999Z" fill="#2A4F77"/>
<path d="M34.4 6.40008H36C38.1056 6.40008 40.664 8.56167 40.8024 10.4617L41.6024 20.8617C41.6344 21.2808 41.9848 21.6 42.3992 21.6C42.4191 21.6 42.4408 21.5993 42.4616 21.5976C42.9016 21.564 43.2312 21.1792 43.1976 20.7384L42.3977 10.3416C42.184 7.40967 38.6424 4.80005 36 4.80005H34.4C31.488 4.80005 28.26 7.58883 28.0024 10.3384L27.2024 20.7384C27.1688 21.1792 27.4984 21.564 27.9384 21.5976C28.3872 21.6264 28.764 21.3016 28.7976 20.8616L29.5969 10.4744C29.7752 8.57049 32.3336 6.40008 34.4 6.40008Z" fill="#2A4F77"/>
<path d="M18.452 20.8102C18.056 20.8038 17.6968 21.0581 17.6168 21.447L14.4 36.8814L11.1832 21.4469C11.1023 21.0581 10.7312 20.8109 10.3463 20.8101C6.14391 20.8101 2.92875 21.7101 1.28953 23.3453C0.434437 24.1997 0 25.2278 0 26.3997V42.3998C0 42.8413 0.357563 43.1997 0.799969 43.1997C1.24238 43.1997 1.59994 42.8413 1.59994 42.3998V26.3997C1.59994 25.6573 1.86872 25.0286 2.41997 24.4773C3.66637 23.2333 6.31753 22.4933 9.75037 22.4165L13.6152 40.9517C13.6152 40.9533 13.6161 40.9549 13.6161 40.9565L13.6168 40.9629C13.6224 40.9877 13.6392 41.0068 13.6464 41.0308C13.6696 41.106 13.6944 41.1805 13.7384 41.2452C13.764 41.2844 13.8024 41.3116 13.8344 41.3453C13.8744 41.3853 13.908 41.4309 13.9552 41.4628C14.008 41.498 14.0696 41.5149 14.1296 41.5364C14.1665 41.55 14.1968 41.5749 14.2368 41.5828H14.2424C14.2928 41.5932 14.348 41.5837 14.4008 41.5837C14.4536 41.5837 14.5088 41.5932 14.56 41.5828H14.5632C14.5897 41.5772 14.6096 41.5604 14.6344 41.5525C14.7088 41.5293 14.7832 41.5045 14.8472 41.4612C14.8872 41.4341 14.9152 41.3949 14.9496 41.3612C14.988 41.3236 15.032 41.2908 15.0623 41.2452C15.1056 41.1821 15.1287 41.1085 15.152 41.0349C15.1599 41.01 15.1776 40.9893 15.1832 40.9629L15.1839 40.9565C15.1839 40.9549 15.1848 40.9533 15.1848 40.9517L19.0496 22.4165C22.4832 22.4933 25.1336 23.2341 26.38 24.4773C26.9313 25.0285 27.2001 25.6573 27.2001 26.3997V42.3998C27.2001 42.8413 27.5576 43.1997 28 43.1997C28.4424 43.1997 28.8 42.8413 28.8 42.3998V26.3997C28.8 25.2278 28.3656 24.1997 27.5104 23.3454C25.8712 21.7093 22.656 20.8102 18.452 20.8102Z" fill="#2A4F77"/>
</g>
<defs>
<clipPath id="clip0">
<rect width="48" height="48" fill="white"/>
</clipPath>
</defs>
</svg>
