<svg width="21" height="20" viewBox="0 0 21 20" fill="none" xmlns="http://www.w3.org/2000/svg">
<path d="M8.63636 0C3.86663 0 0 3.86664 0 8.63636C0 12.3101 2.12518 15.7483 5.35511 17.0028C3.35983 15.0361 2.27273 12.6326 2.27273 9.77273C2.27227 9.54391 2.4705 9.3325 2.69886 9.31818C5.75344 9.09191 8.43429 8.742 10.4688 7.81959C12.477 6.90927 14.0476 5.05977 14.7159 2.5C13.1553 0.953682 11.0069 0 8.63636 0ZM15.4332 3.30254C14.6147 5.81091 12.8906 7.72334 10.8452 8.65057C8.73072 9.60912 6.11318 9.94925 3.21733 10.1775C3.29321 12.9875 4.51086 15.1874 6.78267 17.0668C7.38064 17.1976 7.99909 17.2727 8.63636 17.2727C9.6375 17.2727 10.5973 17.0959 11.4915 16.7827C11.4075 16.4294 11.3636 16.0603 11.3636 15.6818C11.3636 13.0513 13.5058 10.9091 16.1364 10.9091C16.4128 10.9091 16.6893 10.9275 16.9531 10.973C17.1613 10.2302 17.2727 9.44566 17.2727 8.63636C17.2727 6.62414 16.5871 4.77093 15.4332 3.30254ZM12.2727 9.09091C12.7748 9.09091 13.1818 9.49793 13.1818 10C13.1818 10.5021 12.7748 10.9091 12.2727 10.9091C11.7706 10.9091 11.3636 10.5021 11.3636 10C11.3636 9.49793 11.7706 9.09091 12.2727 9.09091ZM6.36364 10.4545C6.86571 10.4545 7.27273 10.8616 7.27273 11.3636C7.27273 11.8657 6.86571 12.2727 6.36364 12.2727C5.86156 12.2727 5.45455 11.8657 5.45455 11.3636C5.45455 10.8616 5.86156 10.4545 6.36364 10.4545ZM19.5455 10.4545C19.0164 10.8073 18.4918 11.0229 18.2812 11.4205C18.3954 11.4781 18.5063 11.5388 18.6151 11.6051C18.7322 11.2216 19.2045 10.9659 19.5455 10.4545ZM16.1364 11.3636C13.7515 11.3636 11.8182 13.297 11.8182 15.6818C11.8182 18.0667 13.7515 20 16.1364 20C18.5212 20 20.4545 18.0667 20.4545 15.6818C20.4545 13.297 18.5212 11.3636 16.1364 11.3636ZM10.6676 12.9475C10.9837 12.9327 11.2374 13.326 11.0938 13.608C10.8581 14.0792 10.4035 14.2311 9.96449 14.3324C9.5255 14.4337 9.08177 14.477 8.66477 14.2685C8.45095 14.1625 8.35283 13.8715 8.45881 13.6577C8.5648 13.4438 8.85578 13.3457 9.0696 13.4517C9.10715 13.4706 9.45888 13.5139 9.75852 13.4447C10.0582 13.3756 10.2853 13.1865 10.277 13.2032C10.3814 13.0507 10.5353 12.957 10.6676 12.9475ZM14.3182 12.9545C14.6947 12.9545 15 13.2598 15 13.6363C15 14.0129 14.6947 14.3181 14.3182 14.3181C13.9416 14.3181 13.6364 14.0129 13.6364 13.6363C13.6364 13.2598 13.9416 12.9545 14.3182 12.9545ZM17.0455 13.6363C17.422 13.6363 17.7273 13.9416 17.7273 14.3181C17.7273 14.6947 17.422 15 17.0455 15C16.6689 15 16.3636 14.6947 16.3636 14.3181C16.3636 13.9416 16.6689 13.6363 17.0455 13.6363ZM13.1818 15L17.2727 16.5909C16.5909 17.5 15.4545 18.1818 14.3182 17.7272C13.1818 17.2727 12.9545 15.9091 13.1818 15Z" fill="#959595"/>
</svg>
