<svg xmlns="http://www.w3.org/2000/svg" viewBox="0 0 252.99 220.84"><defs><style>.cls-1,.cls-17,.cls-23{fill:none;}.cls-2{opacity:0.25;}.cls-3{fill:#fe747d;}.cls-4{fill:#a8a18e;}.cls-5,.cls-9{fill:#fff6de;}.cls-6{fill:#c4bda9;}.cls-7{fill:#153233;}.cls-8{fill:#afa794;}.cls-9{stroke:#c6bc9e;}.cls-17,.cls-23,.cls-9{stroke-miterlimit:10;stroke-width:0.62px;}.cls-10{fill:#d6d0bd;}.cls-11{fill:#bcb3a0;}.cls-12{fill:#968e7c;}.cls-13{fill:#2c555b;}.cls-14{fill:#214447;opacity:0.5;}.cls-15{fill:#bcae8f;opacity:0.3;}.cls-16{fill:#827671;}.cls-17{stroke:#fff;opacity:0.57;}.cls-18{fill:#bfb7a1;}.cls-19{fill:#938d7c;}.cls-20{fill:#5b504d;}.cls-21{fill:#427b7f;}.cls-22{fill:#1f3f42;}.cls-23{stroke:#fff6de;}.cls-24{fill:#3c6f70;}.cls-25{fill:#aaa393;}.cls-26{fill:#ede3cc;}.cls-27{fill:#ddd3ba;}.cls-28{fill:#60d2b0;opacity:0.2;}</style></defs><title>Premium</title><g id="Layer_2" data-name="Layer 2"><g id="Layer_1-2" data-name="Layer 1"><g id="Premium"><rect class="cls-1" x="21.09" y="5.02" width="210.8" height="210.8"/><g class="cls-2"><path class="cls-3" d="M190,154c.05-.11.12-.22.18-.34,2.48-3.44,7.35-5.46,11.17-6.48a10.76,10.76,0,0,0,4.67-2.78,9.45,9.45,0,0,0,2.82-3.34c.66-1.78-3-1.78-3.89-1.85-2.78-.26-6.37-.56-7.52-3.49,3.79-.2,7.25-1.54,5.51-6a50,50,0,0,0-3.31-6,11.36,11.36,0,0,1-.7-8.84c1.5-5.29,8.24-11.89,4.65-17.53a9.84,9.84,0,0,0-2.77-2.31c-.18-.12-.34-.26-.5-.39-.32-2.29-.81-4.55-1.25-6.8a23,23,0,0,0-1-5,4.81,4.81,0,0,0-.92-2.28c-.16-.17-.92,0-.84.28,0,.09.06.18.1.27-.54-.28-1.11-.5-1.66-.73-.76-.32-1.49-.68-2.22-1.06-2.46-2.62-5.12-5.06-7.36-7.93-.46-.59-1.29-1.43-1.29-2.24,0-1,1-2.29,1.38-3.22s.58-2-.35-2.65c-.38-.26-3-1.93-4.06-1.79a6.51,6.51,0,0,0-2.07-2.11c-1.83-1.16-1.11-2.5-.26-4.27a6.2,6.2,0,0,1,3.79-3.54,19.77,19.77,0,0,0,4-1.88c2.14-1.52,1.22-4.33-.45-5.85s-4.78-.15-6.49.68c-3.48,1.69-6.61,4-10,5.87a12.81,12.81,0,0,1-4.73,1.7c-.76.07-.72.14-.49-.36s.49-1.18.72-1.78a17.93,17.93,0,0,0,.82-2.86c1.14-5.88-6-3.64-9.32-4.44s-2.57-4.76-1.4-7.07c1.45-2.88,3.76-5.24,5.5-7.94,1.12-1.75,2.54-4.25,1.37-6.34-.94-1.67-2.73-2.94-4.62-2.09-2.18,1-3.54,3.89-4.57,5.88C151.1,28,150,31,148.69,34c-.93,2.22-2.17,4.07-2.71,6.46-.66,2.9-4.43,2.54-6.71,1.84-2.68-.82-3.28-3.54-2.94-6,0-.22-.23-.31-.4-.29-5.71.64-12.76,3.75-17.1-1.65-4.88-6.07.1-14.2-2.62-20.94-.14-.33-.61-.22-.8,0-2.88,3.06-3.37,6.95-3.36,11,0,4.34.61,9.17-2.32,12.72a20.69,20.69,0,0,0-4.36-3.05.54.54,0,0,0-.77.28c-1.87,9.23-11.68,15.85-20.58,17-4.64.59-12.55.42-13.52,6.19a27.09,27.09,0,0,1-4.63-6c-.05-.11-.25-.14-.35-.13a2.19,2.19,0,0,0-1.81,1.21c-.56.92-3.12.14-4.23.13-.19,0-.56.2-.47.44,1.89,5.08,3.7,10.65,2.9,16.12-1.16-1.8-3.06-4-5.24-3.1S54.3,69.88,54.75,72a5.82,5.82,0,0,0,.25.84,31.8,31.8,0,0,0-3.4,6.74c-.35.33-.69.66-1,1-1.88,1.88-4.39,4.62-3.63,7.52a.29.29,0,0,0,.18.18,42.12,42.12,0,0,1-3.61,3.57c-1.67,1.55-4.25,3.59-4.68,6s3.92,2.11,5.19,2c1.62-.09,1.76.09,2,1.69a7.48,7.48,0,0,1-.12,2.71,5.05,5.05,0,0,1-3.24,3.37C40,108.76,37,109,34.39,110.25a6.81,6.81,0,0,0-3.92,5.68c-.12,1.76,1.46,2.1,2.87,1.87,3.26-.54,6.38-2.64,9.12-4.36a50.38,50.38,0,0,0,5.92-4,14.16,14.16,0,0,1-1.76,9.34c-1.23,2.18-2.88,4.12-3.65,6.54-.88,2.79.39,5.54,1.93,7.83.25.36,2.12,2.29,1.6,2.69a32.36,32.36,0,0,1-3.75,2.36,29.47,29.47,0,0,0-5.79,4c-.18.18,0,.39.2.4a12.39,12.39,0,0,1,11.58,8.77,11.79,11.79,0,0,1-.29,7.58,7.17,7.17,0,0,1-3.7,4.27c-2.47,1.36-5.78,2.65-7.43,5.07-1.09,1.6-.41,4.81,2,4.76,2.76-.06,4.78-4.05,6.23-5.91a7.73,7.73,0,0,1,5-3.17,9.76,9.76,0,0,1,7.6,1.21c3.51,2.24,5,6.8,4.91,10.76,0,3.54-1.67,5.81-3.58,8.59-.76,1.11-2.51,3.18-2.19,4.68s2.76.91,3.78.66c5.72-1.44,5.57-8.9,10.57-11.46-.51,2-.61,4.16-1.2,6.19-.12.4.66.17.79.06,1.18-1.05,2.66-1.4,4-2.21.87-.54,3.13,1.18,3.87,1.64a8.2,8.2,0,0,1,4,5.81c0,.44,0,.88.09,1.31,0,.25,0,.51,0,.76a.22.22,0,0,0,.19.24,9.28,9.28,0,0,0,.77,2.28h0c0,.33,0,.65,0,1C84,198,86.17,199.29,88.6,199c3.24-.46,6-3.3,8.94-4.61a9,9,0,0,1,7.91.13c1.42.76,1.7,2.68,2.29,4,1,2.38,4.31,2.38,6.33,1.27,1.78-1,2.68-7.93,4.54-7.53,3,.65,6,1.74,9,2.49a14,14,0,0,0,8.51-1c.07,1.78.36,3.75,2.17,4.52s3.88-.63,5.24-1.49a.31.31,0,0,0,.15-.3c-.19-1-.73-3.25,1.18-3.05.72.08,1.45.29,2.16.43a5.62,5.62,0,0,0,3.79-.38,10.91,10.91,0,0,0,3.61-3.51c1.13-1.5,2-1.46,3.87-1.46,1,0,2.61.23,3.42-.52a65,65,0,0,0,5.15-5.47c3.22-3.75,6.37-7.77,11-9.91,2.21-1,5.11-1.75,7.39-.66,1.19.57,2.24,1.4,3.48,1.87,2.9,1.1,3.64-2.81,4-4.75.59-3.68-2.19-5.41-3.58-8.34C188.07,158.59,189,156,190,154Z"/><path class="cls-3" d="M25.72,55.9c1.4.07,4.43,0,5-1.74.36-1.19-1.42-2.58-2.21-3.1L28.32,51s0-.08,0-.1L28,50.8a4.34,4.34,0,0,0-1.14-.29,5.9,5.9,0,0,0-3.69.05c-1,.4-2.34,1.5-2.38,2.69C20.68,55.43,24.19,55.83,25.72,55.9Z"/><path class="cls-3" d="M38.28,40.45c1.11,1.25,1.27,1.49,2.9,1.49.18,0,.56-.08.59-.31.53-4.48-.61-8.6-2-12.81-.11-.33-1-.09-.86.23,0,.08.05.16.07.24A24,24,0,0,0,35,22.08c0-.06-.21-.06-.37,0-1.14-1.06-2.42-.84-3.16,1.07-1.66,4.31.13,8.14,2.47,11.76A46.31,46.31,0,0,0,38.28,40.45Z"/><path class="cls-3" d="M62.44,36.47c.2,0,.68,0,.78-.24.66-1.36,1.27-3,.28-4.39a4.41,4.41,0,0,0-2.44-1.43c-1.54-.61-3.67-.74-4.1,1.22C56.3,34.62,60.17,36.23,62.44,36.47Z"/><path class="cls-3" d="M81.06,32.09a6.19,6.19,0,0,0,4.53-4c1.06-2.86-.77-5.21-3.2-6.46.24-.12.4-.3-.06-.19l-.23.06L82,21.42c-.22-.11-.88.25-.82.28l.06,0c-2.65.9-5.18,2.85-5.31,5.84A4.43,4.43,0,0,0,81.06,32.09Z"/><path class="cls-3" d="M119.62,28.49h2a.69.69,0,0,0,.61-.29c1.93-4.05,2.65-8.49,4-12.74,0-.16-.23-.18-.48-.11.38-2,.29-4.16-1.31-5.09-1.31-.76-2.45.9-2.91,1.86-1.28,2.64-1.62,5.86-2,8.74a26.71,26.71,0,0,0-.24,7.52C119.38,28.48,119.55,28.49,119.62,28.49Z"/><path class="cls-3" d="M187.24,65.11c.4,1.42,2.75,1.27,3.84,1.11,1.28-.18,3.39-.69,4-2,.69-1.63-2.1-2.59-3.55-3l1.46-.47c.51-.16.39-.65-.13-.48-.74.24-1.49.44-2.19.7l-.17,0c-.25-.07-.78.23-.67.41a4.8,4.8,0,0,0-1.65,1.35A3.05,3.05,0,0,0,187.24,65.11Z"/><path class="cls-3" d="M229.81,140a.57.57,0,0,0-.41.28,16.3,16.3,0,0,0-1.81.53c-.07,0-.32.15-.27.27,1.67,3.67,6,4.1,9.53,4.14a16.91,16.91,0,0,0,6.4-.62c.17-.05.41-.18.36-.39C242,137.42,234.94,139.28,229.81,140Z"/><path class="cls-3" d="M217,154.42a1.85,1.85,0,0,0-.55-1.25c.29-.11.57-.35.22-.42l-1.09-.17c-1.57-.71-3.76-.3-5.27.18-.33.1-.39.33-.26.44l-.2.11-.76.11c-.41.07-.71.58-.12.48l.19,0a3,3,0,0,0-.48,3.59,4.27,4.27,0,0,0,4,2.18c2.58-.06,4.66-2,6.14-4,0,0,0-.14,0-.18A14.75,14.75,0,0,0,217,154.42Z"/><path class="cls-3" d="M205.36,174.3c-.14-.11-.56,0-.74.16a3.2,3.2,0,0,0-2.32.41c-.88.54-.88,2-1.12,3,0,.06,0,.09.07.11,1.55.43,3.3,1,4.89.42,1.38-.48,1.67-2.1,1.93-3.35a.07.07,0,0,0,0-.08C207.23,174.36,206.16,174.89,205.36,174.3Z"/><path class="cls-3" d="M198,198.09a3.86,3.86,0,0,0-1.84,2.63,5.91,5.91,0,0,0-.09,4c.73,1.54,2.67,1.57,4,.83a3.65,3.65,0,0,0,1.81-3.48c.22.34,1,.11.84-.26C202,200.26,200.26,197,198,198.09Z"/><path class="cls-3" d="M158.1,212.87l.18-.1c.51-.26-.27-.32-.52-.2s-.29.15-.43.23a8.6,8.6,0,0,0-2.71.36c-.51.16-.42.52.09.36a6.78,6.78,0,0,1,2-.3,3.33,3.33,0,0,0-.39.36l-.35.16c-1.66.94-2.13,3.32-2.39,5a.15.15,0,0,0,.09.16,3.71,3.71,0,0,0,2.75.47,3.93,3.93,0,0,0,1.32-.82c1.76-.5,3.56-1.55,3.12-3.52A2.94,2.94,0,0,0,158.1,212.87Z"/><path class="cls-3" d="M138.92,213.17a3.37,3.37,0,0,0-2.76.33,3.59,3.59,0,0,0-2.21.39,7.82,7.82,0,0,0-3,3.08,2.45,2.45,0,0,0,1.41,3.57,5.29,5.29,0,0,0,4.79-.71c2.12-1.47,2.27-4.29,1.86-6.6A.08.08,0,0,0,138.92,213.17Z"/><path class="cls-3" d="M84.12,208.07a1.66,1.66,0,0,0-1.2-.17c-.46.08-.84.51-1.27.57a.72.72,0,0,0-.3.11,4.1,4.1,0,0,0-1.55.58c-1.46,1-1.33,3.45-1.34,5,0,.11.31.07.35.06,2-.33,4.15-.7,5.1-2.64a6.94,6.94,0,0,0,.51-1.62c.09-.35.15-.7.21-1.06S84.55,208.36,84.12,208.07Z"/><path class="cls-3" d="M6.19,144.87c0-.07,0-.12-.21-.12l-.6,0c-.34,0-.68,0-1,0a6.25,6.25,0,0,0-2.7.39c-1.55.71-1.65,2.5-1.67,4a.11.11,0,0,0,.08.07c2.36.9,5.84,1,7.52-1.29a1.69,1.69,0,0,0-.09-2.28A2.74,2.74,0,0,0,6.19,144.87Z"/><path class="cls-3" d="M33,98.67s.06-.12,0-.16a10.31,10.31,0,0,0-9.15-1.59,7.09,7.09,0,0,0-4,1.23c-1.32,1-1,2.57,0,3.65C23.74,106.12,30.27,102.11,33,98.67Z"/><path class="cls-3" d="M28.65,80.13c.22,0,.42-.19.38-.35a10.65,10.65,0,0,0-4.54-6.47l.5.16c.35.12,1-.37.51-.55-2.43-.87-7.53-1.29-8.81,1.73-.67,1.56,1,3,2.07,3.86a17,17,0,0,0,6.33,3.15C26.65,82,28.4,81.54,28.65,80.13Z"/><path class="cls-3" d="M38.18,6.52c1.78.88,6,1.17,6.82-1.17a2.11,2.11,0,0,0-.25-1.7,5,5,0,0,0,.37-2.32c0-.06-.12-.07-.15-.06a13,13,0,0,0-2.25.23,7.07,7.07,0,0,0-1.9-.86A7.79,7.79,0,0,1,44.44,1c.32.12,1-.35.51-.52-2.53-.88-5.54-.73-7.48,1.31A2.82,2.82,0,0,0,38.18,6.52Z"/><path class="cls-3" d="M199,43.44A4,4,0,0,0,201.78,40a4.23,4.23,0,0,0-.45-2.82c.29,0,.93-.27.62-.42a10.44,10.44,0,0,0-1.88-.7,2.76,2.76,0,0,0-1-.18,5.43,5.43,0,0,0-2.49.35c-1.94.78-2.86,3-3.42,4.81a.11.11,0,0,0,0,.11C194.74,42.61,196.78,44,199,43.44Z"/><path class="cls-3" d="M220.54,86.32a9.82,9.82,0,0,1-2.46-.47,11.93,11.93,0,0,1,1.56-.41c.36-.06.75-.47.14-.36a14.88,14.88,0,0,0-2.2.6l-.27-.1-.12,0q-.6-.24-1.17-.51c-.26-.13-.86.17-.77.37-1.93.46-3.27,2.71-3.84,5.07a9.42,9.42,0,0,0-.84,1.57s0,.1.07.11a8.26,8.26,0,0,0,6.62-1.35,7.31,7.31,0,0,0,3.53-4.16C220.86,86.45,220.73,86.32,220.54,86.32Z"/><path class="cls-3" d="M250.9,109.86c-.25-.18-1,.17-.69.43l.07.06a3.58,3.58,0,0,0-.47.14,4.59,4.59,0,0,0-1.27.67.68.68,0,0,0-.34.17,7.43,7.43,0,0,0-.52.62c-.18.09-.31.22-.22.31a13.77,13.77,0,0,1-1.28,1.75s-.12.14-.08.2c.2.37.39.66.85.61h0a2.8,2.8,0,0,0-.22,1c0,1.67,2.21,2.62,3.45,3.17a.62.62,0,0,0,.74-.2c.23-.35.46-.73.67-1.13.23,0,.63-.08.7-.28C253.33,114.72,253.42,111.68,250.9,109.86Z"/></g><rect class="cls-4" x="74.79" y="132.54" width="62.24" height="37.97"/><path class="cls-5" d="M75.72,143.87c1.66-3.61,6-8.27,6-8.27l-2.08.05c-1.32.71-2.88,3-3.89,4.71v-3.1h.52v-1.82H72.51v1.82h.72v24.61h.11v13.61h4.14V162.57h.91v-1.4H75.72Z"/><polygon class="cls-6" points="216.91 171.96 202.39 172.06 202.07 139 216.91 138.97 216.91 171.96"/><polygon class="cls-7" points="198.26 109.51 220.59 135.26 201.99 134.64 201.84 127.79 197.79 115.97 198.26 109.51"/><rect class="cls-5" x="202.69" y="159.82" width="15.35" height="2.07"/><rect class="cls-5" x="214" y="138.35" width="3.01" height="22.2"/><rect class="cls-8" x="202.67" y="168.12" width="14.45" height="3.94"/><rect class="cls-9" x="202.23" y="134.69" width="18.83" height="2.21"/><polygon class="cls-10" points="37.37 104.69 37.37 108.26 49.08 108.26 51.99 104.69 37.37 104.69"/><polygon class="cls-4" points="38.38 107.95 38.38 117.76 48.18 107.95 38.38 107.95"/><polygon class="cls-10" points="166.8 76.73 163.95 76.79 156.43 66.67 156.53 43.95 166.8 43.95 166.8 76.73"/><path class="cls-11" d="M158.81,71V52a2.87,2.87,0,0,1,2.86-2.86h0A2.87,2.87,0,0,1,164.52,52l.26,25.83"/><rect class="cls-5" x="155.82" y="42.33" width="11.84" height="1.71"/><rect class="cls-10" x="155.2" y="40.89" width="13.28" height="1.48"/><rect class="cls-11" x="160.45" y="38.28" width="3.08" height="2.65"/><rect class="cls-12" x="120.85" y="132.69" width="12.6" height="37.81"/><polygon class="cls-13" points="22.5 132.85 86.92 69.67 111.82 69.05 91.07 106.81 91.28 125.38 72.06 133.47 22.5 132.85"/><path class="cls-7" d="M52.44,84.2C51.79,85,33,101.63,33.61,101.42S55.68,101,55.68,101L72.14,84.38Z"/><polygon class="cls-9" points="33.55 101.18 33.55 103.13 52.41 103.18 54.57 101.02 33.55 101.18"/><polygon class="cls-9" points="50.59 105 52.3 103.28 34.56 103.28 34.56 105.07 37.6 105.07 37.6 105 50.59 105"/><polygon class="cls-14" points="90.45 113.87 72.14 84.38 22.82 132.85 24.22 133 66.94 133.05 95.22 123.93 90.45 113.87"/><polygon class="cls-10" points="135.03 43.4 115.11 70.17 146.24 110.21 165.74 83.03 135.03 43.4"/><polygon class="cls-11" points="165.87 81.92 142.24 52.56 142.32 52.45 135.26 43.33 115.56 69.67 115.35 70.09 122.4 79.32 140.14 55.83 163.64 85.39 165.87 81.92"/><polygon class="cls-10" points="202.69 174.86 134.64 174.82 134.64 131.36 168.15 83.9 202.23 129.58 202.69 174.86"/><polygon class="cls-5" points="135.55 42.31 165.41 82.12 166.72 80.45 135.24 38.53 114.73 66.72 118.15 70.92 116.59 68.9 135.55 42.31"/><polygon class="cls-9" points="164.26 83.76 165.81 81.89 135.32 40.91 116.36 67.5 117.92 69.52 135.29 44.55 164.26 83.76"/><polygon class="cls-6" points="114.21 69.78 90.14 102.56 90.35 125.69 134.85 126 145.43 111.53 114.21 69.78"/><rect class="cls-5" x="21.81" y="133.06" width="51.01" height="1.87"/><rect class="cls-9" x="22.92" y="134.82" width="50.52" height="2.07"/><path class="cls-15" d="M67,133.05s1,4,1.13,4l6,.16.12-4.13Z"/><path class="cls-16" d="M137.44,87V73.82s3.09-2.12,4.75-2.12L142.11,87Z"/><path class="cls-16" d="M147.92,87V73.8s-3.09-2.13-4.75-2.13l.08,15.3Z"/><path class="cls-17" d="M131.66,87.65l2.36.07L133.81,74a7.93,7.93,0,0,0-11.25.31l.21,1.77Z"/><path class="cls-17" d="M121.16,70.71s7.05-5.6,12.45-.41l.2-16Z"/><path class="cls-17" d="M150,70.63s-7.06-5.6-12.45-.41l-.21-16Z"/><polygon class="cls-17" points="151.27 86.71 150.96 73.25 162.08 86.79 151.27 86.71"/><polygon class="cls-17" points="137.11 94.65 137.15 90.53 147.92 90.37 147.92 106.4 146.93 108.07 137.11 94.65"/><polygon class="cls-17" points="151.19 101.73 150.96 90.14 159.59 90.21 151.19 101.73"/><polygon class="cls-13" points="163.95 76.79 185.89 76.73 203.52 95.61 182.78 95.4 168.85 77.74 166.72 80.45 163.95 76.79"/><polygon class="cls-10" points="27.95 137.52 27.95 174.86 73.54 174.55 73.54 137.21 27.95 137.52"/><polygon class="cls-5" points="185.32 99.34 202.23 99.24 202.07 97.48 184.33 97.68 185.32 99.34"/><path class="cls-10" d="M187.91,102.4c.21-.05,11.52,0,11.52,0l-.16-3-13.69.11Z"/><polygon class="cls-4" points="197.87 102.45 198.23 116.2 187.91 102.4 197.87 102.45"/><path class="cls-17" d="M189.31,104.37H196l.11,8.77"/><rect class="cls-5" x="205.08" y="138.97" width="6.33" height="3.11"/><rect class="cls-5" x="205.91" y="141.98" width="4.56" height="18.88"/><rect class="cls-18" x="27.87" y="171.65" width="45.57" height="3.94"/><path class="cls-19" d="M123.05,121.52V104.75c0-3-3.63-5.65-8.47-5.41h0c-4.13,0-7.51,2.44-7.51,5.41v16.74Z"/><rect class="cls-16" x="108.4" y="102.51" width="5.45" height="16.39"/><rect class="cls-16" x="116.07" y="102.51" width="5.45" height="16.39"/><path class="cls-20" d="M102.85,99.91s2.85-.15,4.15,1.51l0,19.24-4.21,0Z"/><path class="cls-20" d="M127.3,100.07s-2.85-.16-4.15,1.5l.06,19.25,4.2-.06Z"/><polygon class="cls-6" points="121.55 109.05 116.1 109.05 116.1 102.51 113.73 102.51 113.73 109.05 108.38 109.05 108.38 110.13 113.73 110.13 113.73 120.14 116.1 120.14 116.1 110.13 121.55 110.13 121.55 109.05"/><rect class="cls-4" x="114.57" y="136.54" width="0.93" height="30.77"/><path class="cls-21" d="M67.89,131.4c.41-.21,22.38-6,22.38-6l43.18-.1,1.56.1-4.75,6.22Z"/><ellipse class="cls-16" cx="88.33" cy="147.44" rx="3.89" ry="4.01"/><path class="cls-5" d="M146.68,109.66l1.47-1.86L113.79,62.88,78.48,112.39c1.17.08,2.18,0,3.15.08l32.47-45.8Z"/><path class="cls-9" d="M145.22,112l1.46-2.33-32.47-43.1L81.32,112.19c.83,0,2,.08,2.88,0L114.52,72Z"/><polygon class="cls-4" points="90.14 104.74 90.24 109.51 116.9 74.65 114.49 71.76 90.14 104.74"/><polygon class="cls-22" points="84.44 112.78 90.27 125.38 90.14 104.74 84.44 112.78"/><polygon class="cls-4" points="114.78 76.21 142.68 113.76 144.34 111.06 115.24 72.79 114.78 76.21"/><path class="cls-16" d="M160.19,159.77V128.28a8.11,8.11,0,0,1,8.09-8.09h0c5.21-.36,9.57,3.49,9.57,7.94l-.44,31.33c0,.1.07.31,0,.31-3.38,0-12.29.15-17.19.15C160.14,159.92,160.19,159.82,160.19,159.77Z"/><path class="cls-23" d="M163.39,159.83l.41-28c0-4.45,2.17-7.4,5-7.49l-.11,0c4.62-.31,5.54,3,5.54,7.47v27.82c0,.11,0,0,0,0"/><rect class="cls-16" x="149.32" y="129.58" width="8.4" height="30.03"/><rect class="cls-5" x="149.31" y="137.05" width="8.43" height="1.01"/><rect class="cls-5" x="149.31" y="138.76" width="8.42" height="1.01"/><rect class="cls-5" x="153.11" y="129.58" width="0.83" height="17.22"/><rect class="cls-5" x="149.36" y="146.36" width="8.42" height="1.01"/><rect class="cls-5" x="149.33" y="144.57" width="8.42" height="1.01"/><rect class="cls-16" x="179.97" y="129.58" width="8.4" height="30.03"/><rect class="cls-5" x="179.96" y="137.05" width="8.43" height="1.01"/><rect class="cls-5" x="179.96" y="138.76" width="8.42" height="1.01"/><rect class="cls-5" x="183.76" y="129.58" width="0.83" height="17.22"/><rect class="cls-5" x="180.01" y="146.36" width="8.42" height="1.01"/><rect class="cls-5" x="179.99" y="144.57" width="8.42" height="1.01"/><rect class="cls-5" x="160.11" y="137" width="17.48" height="2.07"/><rect class="cls-5" x="146.99" y="160.86" width="43.67" height="1.87"/><line class="cls-23" x1="168.82" y1="120.19" x2="168.82" y2="124.54"/><line class="cls-23" x1="176.86" y1="124.76" x2="173.24" y2="126.78"/><line class="cls-23" x1="177.93" y1="131.78" x2="174.14" y2="131.77"/><line class="cls-23" x1="160.97" y1="124.76" x2="164.8" y2="126.82"/><line class="cls-23" x1="160.18" y1="131.93" x2="163.97" y2="131.93"/><path class="cls-9" d="M184.33,97.68l19.76-.26-.1-1.76-21.47-.21Z"/><polygon class="cls-24" points="90.27 125.38 130.26 130.98 134.46 125.3 90.27 125.38 90.27 125.38"/><rect class="cls-18" x="27.8" y="137.21" width="45.12" height="3.53"/><rect class="cls-25" x="212.31" y="138.96" width="1.76" height="20.91"/><path class="cls-5" d="M92.53,144.9c.88-3.66,6.48-9.72,6.48-9.72l-2.07.06c-1.58.84-3.51,4-4.41,5.59v-3.52h.62v-1.82H89.41v1.82H90v3.61c-.86-1.52-2.87-4.89-4.5-5.76l-2.08,0S89.23,141.34,90,145a.09.09,0,0,0,.06.06v16.12H88.48v1.4H89v8.35h4.22v-8.35h.94v-1.4H92.53Z"/><rect class="cls-26" x="205.86" y="142.07" width="4.61" height="1.15"/><polygon class="cls-11" points="202.07 126.47 176.06 94.27 176.14 94.16 169.08 85.03 149.37 111.38 133.6 135.24 133.45 150.59 173.96 97.53 202.28 132.85 202.07 126.47"/><path class="cls-20" d="M102.56,165.55l.17-25.86a27.14,27.14,0,0,1,24,.44l.06,26.45v.66L102.62,167Z"/><rect class="cls-16" x="104.97" y="141.41" width="7.47" height="19.29"/><rect class="cls-16" x="117.27" y="141.41" width="7.47" height="19.29"/><path class="cls-20" d="M123.29,152v-3.91h2.07v-.55h-2.07v-3.87h2.07v-.55h-2.07l0-2h-.59v2h-3.61v-2h-.56v2l-1.48,0,0,.48,1.5,0v3.87l-1.44,0,0,.59h1.48V152h-1.46l-.19,1h8.44v-1Zm-.55,0h-3.61v-3.92h3.61Zm0-4.46h-3.61v-3.87h3.61Z"/><path class="cls-20" d="M111.15,152.11v-3.92h2.07v-.55h-2.07v-3.87h2.07v-.55h-2.07l0-2h-.59v2H107v-2h-.55v2l-1.48.06,0,.47,1.5,0v3.87l-1.44,0,0,.59h1.48v3.93H105l-.2,1h8.44v-1Zm-.55,0H107v-3.92h3.61Zm0-4.47H107v-3.87h3.61Z"/><path class="cls-9" d="M36,173.54l.24-27.46a50.91,50.91,0,0,1,34.38.46l.08,28.09v.7L36,175.1Z"/><rect class="cls-4" x="63.2" y="147.71" width="5.45" height="4.51"/><rect class="cls-4" x="55.18" y="147.71" width="5.45" height="4.51"/><rect class="cls-4" x="46.7" y="147.71" width="5.45" height="4.51"/><rect class="cls-4" x="38.38" y="147.71" width="5.45" height="4.51"/><rect class="cls-9" x="37.99" y="154.01" width="30.5" height="21.13"/><line class="cls-9" x1="37.83" y1="157.43" x2="68.49" y2="157.43"/><line class="cls-9" x1="38.07" y1="161.17" x2="68.72" y2="161.17"/><line class="cls-9" x1="38.07" y1="164.51" x2="68.72" y2="164.51"/><line class="cls-9" x1="38.07" y1="168.17" x2="68.72" y2="168.17"/><line class="cls-9" x1="37.99" y1="171.05" x2="68.64" y2="171.05"/><rect class="cls-5" x="67.11" y="131.4" width="66.03" height="1.97"/><rect class="cls-9" x="72.58" y="133.58" width="58.4" height="2.18"/><path class="cls-5" d="M136.28,161.17H136l-.1-29-2.28,3.12v3.7a9.56,9.56,0,0,0-3-3.55l-2.08,0a28,28,0,0,1,5.06,6.32l.08,19.51h-2.49v1.4h.54v12.84h4.44V162.57h.08Z"/><rect class="cls-27" x="202.28" y="136.89" width="19.24" height="2.1"/><rect class="cls-18" x="136.38" y="170.4" width="66.01" height="3.94"/><rect class="cls-5" x="106.96" y="118.85" width="16.3" height="2.8"/><polygon class="cls-9" points="210.37 132.43 168.85 77.74 127.69 135.44 131.12 138.76 169.13 85.17 206.53 135.44 210.37 132.43"/><polygon class="cls-9" points="208.5 133.68 169.16 81.53 129.46 137.1 131.12 138.76 169.13 85.38 206.53 135.44 208.5 133.68"/><rect class="cls-5" x="101.66" y="163.71" width="26.56" height="7.11"/><ellipse class="cls-28" cx="126.49" cy="175.74" rx="105.49" ry="6.82"/></g></g></g></svg>