<svg width="20" height="20" viewBox="0 0 20 20" fill="none" xmlns="http://www.w3.org/2000/svg">
<path d="M9.69373 13.4067C9.1219 13.4067 8.65894 13.8833 8.65894 14.4552C8.65894 15.0134 9.10827 15.5036 9.69373 15.5036C10.2792 15.5036 10.7422 15.0135 10.7422 14.4552C10.7422 13.8833 10.2656 13.4067 9.69373 13.4067Z" fill="#959595"/>
<path d="M9.87082 5.46875C8.03266 5.46875 7.18848 6.55801 7.18848 7.29328C7.18848 7.82433 7.63777 8.06941 8.00543 8.06941C8.74066 8.06941 8.44113 7.02097 9.82996 7.02097C10.5108 7.02097 11.0554 7.32054 11.0554 7.94687C11.0554 8.68218 10.2929 9.10425 9.84359 9.4855C9.44875 9.82589 8.93133 10.3842 8.93133 11.5551C8.93133 12.2631 9.12191 12.4674 9.6802 12.4674C10.3474 12.4674 10.4835 12.1679 10.4835 11.9092C10.4835 11.2011 10.4972 10.7926 11.2461 10.2072C11.6137 9.92124 12.7711 8.99534 12.7711 7.71542C12.7711 6.43551 11.6137 5.46875 9.87082 5.46875Z" fill="#959595"/>
<path d="M10 0C4.47328 0 0 4.47254 0 10V19.2188C0 19.6502 0.349766 20 0.78125 20H10C15.5267 20 20 15.5275 20 10C20 4.47328 15.5275 0 10 0ZM10 18.4375H1.5625V10C1.5625 5.33684 5.33621 1.5625 10 1.5625C14.6632 1.5625 18.4375 5.33621 18.4375 10C18.4375 14.6632 14.6638 18.4375 10 18.4375Z" fill="#959595"/>
</svg>
