<svg width="64" height="64" viewBox="0 0 64 64" fill="none" xmlns="http://www.w3.org/2000/svg">
<path d="M16.716 51.2152C16.5507 51.2145 16.3922 51.1489 16.2749 51.0325C16.1575 50.9161 16.0906 50.7582 16.0886 50.5929V7.33597H12.2183C12.0516 7.33597 11.8918 7.40198 11.7738 7.51956C11.6557 7.63714 11.589 7.7967 11.5884 7.96332V55.4625C11.589 55.6291 11.6557 55.7886 11.7738 55.9062C11.8918 56.0238 12.0516 56.0898 12.2183 56.0898H52.1866C52.3528 56.0891 52.512 56.0228 52.6295 55.9053C52.747 55.7878 52.8133 55.6286 52.814 55.4625V51.2152H16.716Z" fill="#F7B73B"/>
<path d="M12.1651 56.1429C11.9985 56.1423 11.8389 56.0756 11.7213 55.9576C11.6038 55.8395 11.5377 55.6797 11.5377 55.5131V12.2561H7.66739C7.50101 12.2561 7.34144 12.3222 7.22379 12.4399C7.10613 12.5575 7.04004 12.7171 7.04004 12.8835V60.3902C7.04004 60.5566 7.10613 60.7162 7.22379 60.8338C7.34144 60.9515 7.50101 61.0176 7.66739 61.0176H47.6358C47.8024 61.0176 47.9622 60.9515 48.0803 60.834C48.1983 60.7164 48.265 60.5568 48.2657 60.3902V56.1429H12.1651Z" fill="#F0A53C"/>
<path d="M56.965 50.942C56.965 51.1086 56.899 51.2684 56.7814 51.3865C56.6639 51.5045 56.5043 51.5712 56.3377 51.5719H16.3693C16.2027 51.5712 16.0431 51.5045 15.9255 51.3865C15.808 51.2684 15.7419 51.1086 15.7419 50.942V3.43526C15.7426 3.26908 15.8089 3.1099 15.9264 2.99239C16.0439 2.87488 16.2031 2.80857 16.3693 2.80791H56.3377C56.5039 2.80857 56.663 2.87488 56.7805 2.99239C56.8981 3.1099 56.9644 3.26908 56.965 3.43526V50.942Z" fill="#DBF5F8"/>
<path d="M52.0349 9.18261H43.3026C43.053 9.18261 42.8137 9.08346 42.6372 8.90699C42.4607 8.73051 42.3616 8.49116 42.3616 8.24158C42.3616 7.992 42.4607 7.75265 42.6372 7.57617C42.8137 7.3997 43.053 7.30055 43.3026 7.30055H52.0349C52.2845 7.30055 52.5239 7.3997 52.7003 7.57617C52.8768 7.75265 52.976 7.992 52.976 8.24158C52.976 8.49116 52.8768 8.73051 52.7003 8.90699C52.5239 9.08346 52.2845 9.18261 52.0349 9.18261Z" fill="#DB722C"/>
<path d="M52.0349 12.3953H43.3026C43.053 12.3953 42.8137 12.2961 42.6372 12.1196C42.4607 11.9432 42.3616 11.7038 42.3616 11.4542C42.3616 11.2046 42.4607 10.9653 42.6372 10.7888C42.8137 10.6123 43.053 10.5132 43.3026 10.5132H52.0349C52.2845 10.5132 52.5239 10.6123 52.7003 10.7888C52.8768 10.9653 52.976 11.2046 52.976 11.4542C52.976 11.7038 52.8768 11.9432 52.7003 12.1196C52.5239 12.2961 52.2845 12.3953 52.0349 12.3953Z" fill="#DB722C"/>
<path d="M52.0348 15.5851H43.3024C43.061 15.5726 42.8335 15.4679 42.667 15.2925C42.5005 15.1172 42.4077 14.8846 42.4077 14.6428C42.4077 14.401 42.5005 14.1685 42.667 13.9931C42.8335 13.8178 43.061 13.7131 43.3024 13.7005H52.0348C52.2762 13.7131 52.5037 13.8178 52.6702 13.9931C52.8367 14.1685 52.9295 14.401 52.9295 14.6428C52.9295 14.8846 52.8367 15.1172 52.6702 15.2925C52.5037 15.4679 52.2762 15.5726 52.0348 15.5851Z" fill="#DB722C"/>
<path d="M52.0349 18.7851H43.3026C43.179 18.7851 43.0567 18.7608 42.9425 18.7135C42.8283 18.6662 42.7246 18.5969 42.6372 18.5095C42.5498 18.4221 42.4805 18.3184 42.4332 18.2042C42.3859 18.09 42.3616 17.9677 42.3616 17.8441C42.3616 17.7205 42.3859 17.5982 42.4332 17.484C42.4805 17.3698 42.5498 17.2661 42.6372 17.1787C42.7246 17.0913 42.8283 17.022 42.9425 16.9747C43.0567 16.9274 43.179 16.9031 43.3026 16.9031H52.0349C52.2845 16.9031 52.5239 17.0022 52.7003 17.1787C52.8768 17.3552 52.976 17.5945 52.976 17.8441C52.976 18.0937 52.8768 18.333 52.7003 18.5095C52.5239 18.686 52.2845 18.7851 52.0349 18.7851Z" fill="#DB722C"/>
<path d="M35.754 41.127H21.0492C20.7996 41.127 20.5603 41.0278 20.3838 40.8513C20.2073 40.6749 20.1082 40.4355 20.1082 40.1859C20.1082 39.9364 20.2073 39.697 20.3838 39.5205C20.5603 39.344 20.7996 39.2449 21.0492 39.2449H35.754C36.0036 39.2449 36.2429 39.344 36.4194 39.5205C36.5959 39.697 36.695 39.9364 36.695 40.1859C36.695 40.4355 36.5959 40.6749 36.4194 40.8513C36.2429 41.0278 36.0036 41.127 35.754 41.127Z" fill="#2A4F77"/>
<path d="M35.754 44.327H21.0492C20.7996 44.327 20.5603 44.2278 20.3838 44.0513C20.2073 43.8749 20.1082 43.6355 20.1082 43.3859C20.1082 43.1364 20.2073 42.897 20.3838 42.7205C20.5603 42.544 20.7996 42.4449 21.0492 42.4449H35.754C36.0036 42.4449 36.2429 42.544 36.4194 42.7205C36.5959 42.897 36.695 43.1364 36.695 43.3859C36.695 43.6355 36.5959 43.8749 36.4194 44.0513C36.2429 44.2278 36.0036 44.327 35.754 44.327Z" fill="#2A4F77"/>
<path d="M35.7541 47.5295H21.0493C20.9214 47.5361 20.7936 47.5167 20.6735 47.4723C20.5534 47.4279 20.4436 47.3596 20.3507 47.2714C20.2579 47.1833 20.184 47.0772 20.1335 46.9595C20.0829 46.8419 20.0569 46.7152 20.0569 46.5872C20.0569 46.4592 20.0829 46.3325 20.1335 46.2149C20.184 46.0972 20.2579 45.9911 20.3507 45.9029C20.4436 45.8148 20.5534 45.7465 20.6735 45.7021C20.7936 45.6577 20.9214 45.6383 21.0493 45.6449H35.7541C35.9956 45.6574 36.223 45.7621 36.3895 45.9375C36.556 46.1128 36.6488 46.3454 36.6488 46.5872C36.6488 46.829 36.556 47.0615 36.3895 47.2369C36.223 47.4122 35.9956 47.517 35.7541 47.5295Z" fill="#2A4F77"/>
<path d="M52.0349 24.3706H38.6278C38.3782 24.3706 38.1389 24.2715 37.9624 24.095C37.7859 23.9185 37.6868 23.6791 37.6868 23.4296C37.6868 23.18 37.7859 22.9406 37.9624 22.7642C38.1389 22.5877 38.3782 22.4885 38.6278 22.4885H52.0349C52.2845 22.4885 52.5238 22.5877 52.7003 22.7642C52.8768 22.9406 52.9759 23.18 52.9759 23.4296C52.9759 23.6791 52.8768 23.9185 52.7003 24.095C52.5238 24.2715 52.2845 24.3706 52.0349 24.3706Z" fill="#2A4F77"/>
<path d="M52.0349 27.5731H38.6278C38.3782 27.5731 38.1389 27.474 37.9624 27.2975C37.7859 27.121 37.6868 26.8817 37.6868 26.6321C37.6868 26.3825 37.7859 26.1432 37.9624 25.9667C38.1389 25.7902 38.3782 25.6911 38.6278 25.6911H52.0349C52.2845 25.6911 52.5238 25.7902 52.7003 25.9667C52.8768 26.1432 52.9759 26.3825 52.9759 26.6321C52.9759 26.8817 52.8768 27.121 52.7003 27.2975C52.5238 27.474 52.2845 27.5731 52.0349 27.5731Z" fill="#2A4F77"/>
<path d="M52.0348 30.7731H38.6276C38.4998 30.7797 38.3719 30.7603 38.2518 30.7159C38.1318 30.6716 38.0219 30.6032 37.9291 30.5151C37.8363 30.4269 37.7623 30.3208 37.7118 30.2032C37.6613 30.0855 37.6353 29.9588 37.6353 29.8308C37.6353 29.7028 37.6613 29.5761 37.7118 29.4585C37.7623 29.3409 37.8363 29.2347 37.9291 29.1466C38.0219 29.0584 38.1318 28.9901 38.2518 28.9457C38.3719 28.9014 38.4998 28.8819 38.6276 28.8885H52.0348C52.2762 28.901 52.5037 29.0058 52.6702 29.1811C52.8367 29.3565 52.9295 29.589 52.9295 29.8308C52.9295 30.0726 52.8367 30.3052 52.6702 30.4805C52.5037 30.6559 52.2762 30.7606 52.0348 30.7731Z" fill="#2A4F77"/>
<path d="M52.0348 33.9731H38.6276C38.4998 33.9798 38.3719 33.9603 38.2518 33.9159C38.1318 33.8716 38.0219 33.8032 37.9291 33.7151C37.8363 33.6269 37.7623 33.5208 37.7118 33.4032C37.6613 33.2855 37.6353 33.1589 37.6353 33.0308C37.6353 32.9028 37.6613 32.7761 37.7118 32.6585C37.7623 32.5409 37.8363 32.4347 37.9291 32.3466C38.0219 32.2584 38.1318 32.1901 38.2518 32.1457C38.3719 32.1014 38.4998 32.0819 38.6276 32.0885H52.0348C52.2762 32.1011 52.5037 32.2058 52.6702 32.3811C52.8367 32.5565 52.9295 32.789 52.9295 33.0308C52.9295 33.2726 52.8367 33.5052 52.6702 33.6805C52.5037 33.8559 52.2762 33.9606 52.0348 33.9731Z" fill="#2A4F77"/>
<path d="M19.3569 29.8903H23.0199C23.0199 28.9168 23.4066 27.9832 24.0949 27.2948C24.7833 26.6065 25.7169 26.2198 26.6904 26.2198V22.5493C25.7268 22.5496 24.7727 22.7398 23.8826 23.1089C22.9926 23.478 22.1839 24.0189 21.5029 24.7006C20.8219 25.3823 20.2819 26.1915 19.9137 27.082C19.5454 27.9724 19.3563 28.9267 19.3569 29.8903Z" fill="#FE747D"/>
<path d="M28.5598 20.6874V24.3579C29.0419 24.3576 29.5194 24.4523 29.9649 24.6367C30.4103 24.821 30.8151 25.0914 31.156 25.4323C31.4969 25.7732 31.7673 26.1779 31.9516 26.6234C32.1359 27.0689 32.2307 27.5463 32.2303 28.0285H35.9008C35.9015 27.0642 35.7121 26.1093 35.3434 25.2184C34.9747 24.3274 34.434 23.5179 33.7522 22.8361C33.0704 22.1543 32.2608 21.6136 31.3699 21.2449C30.4789 20.8762 29.524 20.6868 28.5598 20.6874Z" fill="#60D2B0"/>
<path d="M30.3685 29.8903C30.3868 30.3834 30.3055 30.8752 30.1294 31.3362C29.9533 31.7972 29.6861 32.218 29.3437 32.5733C29.0013 32.9287 28.5907 33.2114 28.1365 33.4045C27.6824 33.5975 27.194 33.697 26.7005 33.697C26.207 33.697 25.7186 33.5975 25.2644 33.4045C24.8103 33.2114 24.3997 32.9287 24.0573 32.5733C23.7149 32.218 23.4477 31.7972 23.2716 31.3362C23.0955 30.8752 23.0142 30.3834 23.0325 29.8903H19.3569C19.3569 30.8536 19.5467 31.8076 19.9154 32.6976C20.284 33.5877 20.8244 34.3964 21.5056 35.0776C22.1868 35.7588 22.9955 36.2992 23.8855 36.6678C24.7756 37.0365 25.7295 37.2262 26.6929 37.2262C27.6563 37.2262 28.6102 37.0365 29.5003 36.6678C30.3903 36.2992 31.199 35.7588 31.8802 35.0776C32.5614 34.3964 33.1018 33.5877 33.4704 32.6976C33.8391 31.8076 34.0289 30.8536 34.0289 29.8903H30.3685Z" fill="#F7B73B"/>
<path d="M47.5775 42.9382C47.5775 42.8887 47.5873 42.8397 47.6062 42.7939C47.6252 42.7482 47.6529 42.7067 47.6879 42.6717C47.7229 42.6367 47.7645 42.6089 47.8102 42.59C47.8559 42.571 47.905 42.5613 47.9545 42.5613H49.6569V38.3494C49.6562 38.1832 49.5899 38.0241 49.4724 37.9065C49.3549 37.789 49.1957 37.7227 49.0296 37.7221H43.3657C43.2017 37.726 43.0457 37.7938 42.9309 37.9109C42.8162 38.0281 42.7516 38.1854 42.751 38.3494V44.0158C42.7516 44.182 42.818 44.3412 42.9355 44.4587C43.053 44.5762 43.2121 44.6425 43.3783 44.6432H47.5902L47.5775 42.9382Z" fill="#FE3745"/>
<path d="M52.0348 46.3911C52.0342 46.5573 51.9678 46.7165 51.8503 46.834C51.7328 46.9515 51.5736 47.0178 51.4075 47.0185H47.9545C47.7883 47.0178 47.6291 46.9515 47.5116 46.834C47.3941 46.7165 47.3278 46.5573 47.3271 46.3911V42.9382C47.3278 42.772 47.3941 42.6128 47.5116 42.4953C47.6291 42.3778 47.7883 42.3115 47.9545 42.3108H51.4075C51.5736 42.3115 51.7328 42.3778 51.8503 42.4953C51.9678 42.6128 52.0342 42.772 52.0348 42.9382V46.3911Z" fill="#37C47A"/>
<path d="M23.5737 17.2572V8.49201C23.5737 8.44252 23.564 8.3935 23.545 8.34777C23.5261 8.30204 23.4983 8.26049 23.4633 8.22549C23.4283 8.19049 23.3868 8.16273 23.341 8.14379C23.2953 8.12485 23.2463 8.1151 23.1968 8.1151H20.9201C20.8202 8.1151 20.7243 8.15481 20.6536 8.22549C20.5829 8.29618 20.5432 8.39205 20.5432 8.49201V17.2572H23.5737Z" fill="#60D2B0"/>
<path d="M28.4838 17.2572V10.8775C28.4838 10.7775 28.4441 10.6816 28.3734 10.6109C28.3027 10.5403 28.2069 10.5006 28.1069 10.5006H25.8302C25.7803 10.4999 25.7307 10.5091 25.6844 10.5278C25.6381 10.5464 25.596 10.5741 25.5604 10.6091C25.5249 10.6442 25.4967 10.686 25.4774 10.7321C25.4582 10.7781 25.4482 10.8275 25.4482 10.8775V17.2572H28.4838Z" fill="#F7B73B"/>
<path d="M33.3913 17.2572V13.7638C33.3913 13.6638 33.3516 13.568 33.2809 13.4973C33.2102 13.4266 33.1143 13.3869 33.0144 13.3869H30.7377C30.6878 13.3862 30.6382 13.3955 30.5919 13.4141C30.5456 13.4327 30.5034 13.4604 30.4679 13.4955C30.4324 13.5305 30.4041 13.5723 30.3849 13.6184C30.3656 13.6644 30.3557 13.7139 30.3557 13.7638V17.2572H33.3913Z" fill="#FE747D"/>
<path d="M38.3039 17.2572V8.49201C38.3039 8.44252 38.2942 8.3935 38.2753 8.34777C38.2563 8.30204 38.2285 8.26049 38.1935 8.22549C38.1585 8.19049 38.117 8.16273 38.0713 8.14379C38.0255 8.12485 37.9765 8.1151 37.927 8.1151H35.6504C35.6009 8.1151 35.5518 8.12485 35.5061 8.14379C35.4604 8.16273 35.4188 8.19049 35.3838 8.22549C35.3488 8.26049 35.3211 8.30204 35.3021 8.34777C35.2832 8.3935 35.2734 8.44252 35.2734 8.49201V17.2572H38.3039Z" fill="#60D2B0"/>
<path d="M38.9567 18.7851H19.8907C19.7672 18.7851 19.6448 18.7608 19.5306 18.7135C19.4164 18.6662 19.3127 18.5969 19.2253 18.5095C19.1379 18.4221 19.0686 18.3184 19.0213 18.2042C18.974 18.09 18.9497 17.9677 18.9497 17.8441C18.9497 17.7205 18.974 17.5982 19.0213 17.484C19.0686 17.3698 19.1379 17.2661 19.2253 17.1787C19.3127 17.0913 19.4164 17.022 19.5306 16.9747C19.6448 16.9274 19.7672 16.9031 19.8907 16.9031H38.9567C39.2062 16.9031 39.4456 17.0022 39.6221 17.1787C39.7985 17.3552 39.8977 17.5945 39.8977 17.8441C39.8977 18.0937 39.7985 18.333 39.6221 18.5095C39.4456 18.686 39.2062 18.7851 38.9567 18.7851Z" fill="#2A4F77"/>
</svg>
