<svg width="24" height="24" viewBox="0 0 24 24" fill="none" xmlns="http://www.w3.org/2000/svg">
<path d="M5.78753 11.6483H4.23438C4.04017 11.6483 3.88281 11.8057 3.88281 11.9999V14.3296C3.88281 14.5238 4.04017 14.6812 4.23438 14.6812H5.78753C5.98173 14.6812 6.13909 14.5238 6.13909 14.3296V11.9999C6.13909 11.8057 5.98169 11.6483 5.78753 11.6483ZM5.43597 13.9781H4.58594V12.3515H5.43597V13.9781Z" fill="#11BDCF"/>
<path d="M5.78753 16.3077H4.23438C4.04017 16.3077 3.88281 16.4651 3.88281 16.6593V18.989C3.88281 19.1832 4.04017 19.3406 4.23438 19.3406H5.78753C5.98173 19.3406 6.13909 19.1832 6.13909 18.989V16.6593C6.13909 16.4651 5.98169 16.3077 5.78753 16.3077ZM5.43597 18.6375H4.58594V17.0109H5.43597V18.6375Z" fill="#11BDCF"/>
<path d="M18.2122 14.6812H19.7654C19.9596 14.6812 20.1169 14.5238 20.1169 14.3296V11.9999C20.1169 11.8057 19.9596 11.6483 19.7654 11.6483H18.2122C18.018 11.6483 17.8606 11.8057 17.8606 11.9999V14.3296C17.8606 14.5238 18.018 14.6812 18.2122 14.6812ZM18.5637 12.3514H19.4138V13.9781H18.5637V12.3514Z" fill="#11BDCF"/>
<path d="M19.7656 16.3077H18.2124C18.0182 16.3077 17.8608 16.4651 17.8608 16.6593V18.989C17.8608 19.1832 18.0182 19.3406 18.2124 19.3406H19.7656C19.9598 19.3406 20.1171 19.1832 20.1171 18.989V16.6593C20.1171 16.4651 19.9597 16.3077 19.7656 16.3077ZM19.414 18.6375H18.564V17.0109H19.414V18.6375Z" fill="#11BDCF"/>
<path d="M12.0001 14.6812C13.4785 14.6812 14.6813 13.4784 14.6813 11.9999C14.6813 10.5215 13.4785 9.31873 12.0001 9.31873C10.5216 9.31873 9.31885 10.5215 9.31885 12C9.31885 13.4784 10.5216 14.6812 12.0001 14.6812ZM12.0001 10.0219C13.0908 10.0219 13.9781 10.9092 13.9781 12C13.9781 13.0907 13.0907 13.9781 12.0001 13.9781C10.9094 13.9781 10.022 13.0907 10.022 12C10.022 10.9092 10.9093 10.0219 12.0001 10.0219Z" fill="#11BDCF"/>
<path d="M12 12.3515H12.7766C12.9708 12.3515 13.1282 12.1941 13.1282 11.9999C13.1282 11.8058 12.9708 11.6484 12.7766 11.6484H12.3516V10.8351C12.3516 10.6409 12.1942 10.4835 12 10.4835C11.8058 10.4835 11.6484 10.6409 11.6484 10.8351V11.9999C11.6484 12.1941 11.8058 12.3515 12 12.3515Z" fill="#11BDCF"/>
<path d="M22.8717 23.2969H22.4467V22.0953C22.4467 21.9012 22.2893 21.7438 22.0951 21.7438H21.6702V10.7985H22.0952C22.2373 10.7985 22.3656 10.7128 22.42 10.5814C22.4744 10.45 22.4443 10.2989 22.3438 10.1983L18.461 6.31547C18.395 6.24952 18.3056 6.21248 18.2123 6.21248H13.942L12.3515 4.84912V3.80934H15.8827C16.0124 3.80934 16.1315 3.738 16.1927 3.62367C16.2539 3.50939 16.2471 3.37069 16.1752 3.26278L15.5287 2.29294L16.1752 1.32314C16.2471 1.21528 16.2539 1.07653 16.1927 0.96225C16.1315 0.847969 16.0123 0.776578 15.8827 0.776578H12.3515V0.351562C12.3515 0.157406 12.1941 0 11.9999 0C11.8057 0 11.6484 0.157406 11.6484 0.351562V1.12809V3.45773V4.84903L10.0578 6.21248H5.78741C5.69417 6.21248 5.60478 6.24952 5.53878 6.31547L1.65599 10.1983C1.55544 10.2989 1.52539 10.4501 1.57981 10.5814C1.63419 10.7128 1.76244 10.7985 1.90461 10.7985H2.32953V21.7437H1.9047C1.7105 21.7437 1.55314 21.9011 1.55314 22.0953V23.2969H1.12817C0.933971 23.2969 0.776611 23.4543 0.776611 23.6484C0.776611 23.8426 0.933971 24 1.12817 24H3.91944C4.11364 24 4.271 23.8426 4.271 23.6484C4.271 23.4543 4.11364 23.2969 3.91944 23.2969H2.25631V22.4469H2.67936C2.67997 22.4469 2.68058 22.447 2.68119 22.447H7.34056C7.34117 22.447 7.34178 22.4469 7.34239 22.4469H16.6575C16.6581 22.4469 16.6587 22.447 16.6593 22.447H21.3187C21.3193 22.447 21.32 22.4469 21.3206 22.4469H21.7436V23.2969H5.32564C5.13144 23.2969 4.97408 23.4543 4.97408 23.6484C4.97408 23.8426 5.13144 24 5.32564 24H22.8717C23.0659 24 23.2233 23.8426 23.2233 23.6484C23.2233 23.4542 23.0659 23.2969 22.8717 23.2969ZM20.9672 21.7437H17.0109V11.3222L17.2071 11.4904C17.2721 11.5461 17.3536 11.5751 17.4359 11.5751C17.4858 11.5751 17.5358 11.5645 17.5828 11.5429C17.7075 11.4855 17.7875 11.3608 17.7875 11.2235V10.7985H20.9672V21.7437H20.9672ZM11.9999 5.47383L17.0843 9.83203V10.4591L12.2287 6.297C12.1629 6.24056 12.0814 6.21234 11.9999 6.21234C11.9184 6.21234 11.8369 6.24056 11.7711 6.297L6.91555 10.4591V9.83203L11.9999 5.47383ZM7.69213 10.7195L11.9998 7.02698L16.3077 10.7195V21.7436H15.0694V17.0109H15.1061C15.3003 17.0109 15.4577 16.8535 15.4577 16.6594C15.4577 16.4652 15.3003 16.3078 15.1061 16.3078H14.7178H9.28189H8.89367C8.69947 16.3078 8.54211 16.4652 8.54211 16.6594C8.54211 16.8535 8.69947 17.0109 8.89367 17.0109H8.93033V21.7436H7.69213V10.7195ZM14.3663 17.0109V21.7436H12.3515V17.0109H14.3663ZM11.6484 21.7436H9.6335V17.0109H11.6484V21.7436ZM18.0668 6.91561L21.2465 10.0953H17.7874V9.67031C17.7874 9.5677 17.7425 9.47016 17.6646 9.40341L14.7623 6.91561H18.0668ZM15.2258 1.47966L14.8137 2.09789C14.735 2.21597 14.735 2.36981 14.8137 2.48789L15.2258 3.10617H12.3515V1.47966H15.2258ZM5.933 6.91561H9.23745L6.33519 9.40341C6.25728 9.4702 6.21242 9.5677 6.21242 9.67031V10.0953H2.75333L5.933 6.91561ZM3.03266 10.7985H6.21242V11.2235C6.21242 11.3608 6.29235 11.4855 6.41708 11.5429C6.54172 11.6003 6.68853 11.5798 6.79278 11.4904L6.98905 11.3221V21.7437H3.03266V10.7985Z" fill="#11BDCF"/>
</svg>
