<svg width="16" height="15" viewBox="0 0 16 15" fill="none" xmlns="http://www.w3.org/2000/svg">
<path d="M15.7652 14.3054H15.2485V7.74875H15.7652C15.8509 7.74875 15.9298 7.70198 15.971 7.62669C16.0123 7.55139 16.0093 7.45957 15.9633 7.38713L14.2099 4.62644C14.1668 4.55856 14.0921 4.51746 14.0117 4.51746H9.3497L8.23483 3.40048V2.47835H10.5049C10.5915 2.47835 10.6711 2.4306 10.712 2.35408C10.7528 2.2776 10.7483 2.18474 10.7003 2.11255L10.2862 1.49014L10.7003 0.867735C10.7484 0.795549 10.7528 0.702689 10.712 0.626206C10.6711 0.549691 10.5915 0.501943 10.5049 0.501943H8.23483V0.235286C8.23483 0.105345 8.12969 0 8 0C7.87031 0 7.76517 0.105345 7.76517 0.235286V3.40048L6.6503 4.51749H1.98826C1.90798 4.51749 1.83324 4.55859 1.79013 4.62648L0.0367024 7.38716C-0.00929362 7.4596 -0.0122682 7.55143 0.0289686 7.62672C0.0702367 7.70198 0.149141 7.74875 0.234839 7.74875H0.751473V14.3054H0.234839C0.105149 14.3054 5.78516e-06 14.4107 5.78516e-06 14.5407C5.78516e-06 14.6706 0.105149 14.776 0.234839 14.776H15.7652C15.8949 14.776 16 14.6706 16 14.5407C16 14.4107 15.8949 14.3054 15.7652 14.3054ZM13.8828 4.98806L15.3374 7.27818H12.1051L9.81936 4.98806H13.8828ZM10.0661 0.972515L9.8085 1.35964C9.7559 1.43866 9.7559 1.54163 9.8085 1.62065L10.0661 2.00777H8.23483V0.972515H10.0661ZM2.11717 4.98806H6.1806L3.89489 7.27818H0.662643L2.11717 4.98806ZM1.22114 7.74875H3.99211C3.99988 7.74875 4.00764 7.74834 4.01541 7.74756C4.01873 7.74725 4.02198 7.74662 4.02527 7.74615C4.02956 7.74552 4.03385 7.74502 4.03814 7.74417C4.04196 7.74342 4.04565 7.74235 4.04941 7.74141C4.05308 7.7405 4.05677 7.73965 4.0604 7.73859C4.0641 7.73746 4.0677 7.73605 4.07133 7.73476C4.07493 7.73347 4.07853 7.73228 4.0821 7.73081C4.08551 7.7294 4.08877 7.72773 4.09209 7.72616C4.09569 7.72444 4.09935 7.72284 4.10289 7.72093C4.10612 7.7192 4.10915 7.71722 4.11228 7.71537C4.11573 7.71333 4.11924 7.71136 4.12259 7.7091C4.12609 7.70675 4.12938 7.70414 4.13273 7.7016C4.13549 7.69953 4.13834 7.69762 4.141 7.69539C4.14701 7.69046 4.15277 7.68526 4.15825 7.67973L8 3.83064L11.8418 7.67977C11.8472 7.68526 11.853 7.69046 11.859 7.69542C11.8617 7.69762 11.8645 7.69953 11.8672 7.7016C11.8706 7.70414 11.8739 7.70678 11.8774 7.70913C11.8808 7.71136 11.8842 7.7133 11.8877 7.71534C11.8908 7.71726 11.8939 7.71923 11.8971 7.72096C11.9006 7.72284 11.9042 7.72444 11.9078 7.72613C11.9112 7.72773 11.9145 7.7294 11.918 7.73084C11.9215 7.73228 11.925 7.73344 11.9286 7.73473C11.9322 7.73605 11.9359 7.73746 11.9396 7.73862C11.9432 7.73972 11.9468 7.7405 11.9504 7.74141C11.9543 7.74238 11.958 7.74345 11.9619 7.7442C11.966 7.74502 11.9702 7.74552 11.9744 7.74612C11.9778 7.74662 11.9811 7.74725 11.9846 7.74759C11.9923 7.74834 12.0001 7.74875 12.0078 7.74875H14.7789V14.3054H9.73777V11.0271C9.73777 10.6206 9.40769 10.2898 9.00196 10.2898H6.99804C6.59231 10.2898 6.26223 10.6206 6.26223 11.0271V14.3054H1.22114V7.74875ZM9.2681 11.2937H6.7319V11.0271C6.7319 10.88 6.85129 10.7604 6.99804 10.7604H9.00196C9.14871 10.7604 9.2681 10.88 9.2681 11.0271V11.2937ZM6.7319 11.7643H7.76517V14.3054H6.7319V11.7643ZM8.23483 11.7643H9.2681V14.3054H8.23483V11.7643Z" fill="#08384D"/>
<path d="M7.99996 9.50372C8.95817 9.50372 9.73771 8.72266 9.73771 7.7626C9.73771 6.80254 8.95817 6.02148 7.99996 6.02148C7.04175 6.02148 6.26221 6.80254 6.26221 7.7626C6.26221 8.72266 7.04175 9.50372 7.99996 9.50372ZM7.99996 6.49206C8.69919 6.49206 9.26805 7.06201 9.26805 7.7626C9.26805 8.46319 8.69919 9.03314 7.99996 9.03314C7.30073 9.03314 6.73187 8.46319 6.73187 7.7626C6.73187 7.06201 7.30073 6.49206 7.99996 6.49206Z" fill="#08384D"/>
<path d="M7.99995 7.99889C8.12964 7.99889 8.23478 7.89354 8.23478 7.7636V7.01068C8.23478 6.88074 8.12964 6.77539 7.99995 6.77539C7.87027 6.77539 7.76512 6.88074 7.76512 7.01068V7.52831H7.2485C7.11881 7.52831 7.01367 7.63366 7.01367 7.7636C7.01367 7.89354 7.11881 7.99889 7.2485 7.99889H7.99995Z" fill="#08384D"/>
<path d="M5.49531 11.5439H4.24289C4.1132 11.5439 4.00806 11.6493 4.00806 11.7792V13.2851C4.00806 13.415 4.1132 13.5204 4.24289 13.5204H5.49531C5.625 13.5204 5.73014 13.415 5.73014 13.2851V11.7792C5.73014 11.6493 5.625 11.5439 5.49531 11.5439ZM5.26048 12.0145V12.2969H4.47772V12.0145H5.26048ZM4.47772 13.0498V12.7674H5.26048V13.0498H4.47772Z" fill="#08384D"/>
<path d="M3.24067 11.5439H1.98825C1.85856 11.5439 1.75342 11.6493 1.75342 11.7792V13.2851C1.75342 13.415 1.85856 13.5204 1.98825 13.5204H3.24067C3.37036 13.5204 3.4755 13.415 3.4755 13.2851V11.7792C3.4755 11.6493 3.37036 11.5439 3.24067 11.5439ZM3.00584 12.0145V12.2969H2.22308V12.0145H3.00584ZM2.22308 13.0498V12.7674H3.00584V13.0498H2.22308Z" fill="#08384D"/>
<path d="M5.41704 8.53223H4.32116C4.14852 8.53223 4.00806 8.67296 4.00806 8.84594V10.5243C4.00806 10.6543 4.1132 10.7596 4.24289 10.7596H5.49531C5.625 10.7596 5.73014 10.6543 5.73014 10.5243V8.84594C5.73014 8.67296 5.58968 8.53223 5.41704 8.53223ZM5.26048 9.0028V9.53611H4.47772V9.0028H5.26048ZM4.47772 10.289V10.0067H5.26048V10.289H4.47772Z" fill="#08384D"/>
<path d="M3.1624 8.53223H2.06652C1.89388 8.53223 1.75342 8.67296 1.75342 8.84594V10.5243C1.75342 10.6543 1.85856 10.7596 1.98825 10.7596H3.24067C3.37036 10.7596 3.4755 10.6543 3.4755 10.5243V8.84594C3.4755 8.67296 3.33504 8.53223 3.1624 8.53223ZM3.00584 9.0028V9.53611H2.22308V9.0028H3.00584ZM2.22308 10.289V10.0067H3.00584V10.289H2.22308Z" fill="#08384D"/>
<path d="M12.7592 13.5204H14.0117C14.1414 13.5204 14.2465 13.415 14.2465 13.2851V11.7792C14.2465 11.6493 14.1414 11.5439 14.0117 11.5439H12.7592C12.6296 11.5439 12.5244 11.6493 12.5244 11.7792V13.2851C12.5244 13.415 12.6296 13.5204 12.7592 13.5204ZM12.9941 13.0498V12.7674H13.7768V13.0498H12.9941ZM13.7768 12.0145V12.2969H12.9941V12.0145H13.7768Z" fill="#08384D"/>
<path d="M10.5051 13.5204H11.7575C11.8872 13.5204 11.9924 13.415 11.9924 13.2851V11.7792C11.9924 11.6493 11.8872 11.5439 11.7575 11.5439H10.5051C10.3754 11.5439 10.2703 11.6493 10.2703 11.7792V13.2851C10.2703 13.415 10.3754 13.5204 10.5051 13.5204ZM10.7399 13.0498V12.7674H11.5227V13.0498H10.7399ZM11.5227 12.0145V12.2969H10.7399V12.0145H11.5227Z" fill="#08384D"/>
<path d="M12.7592 10.7596H14.0117C14.1414 10.7596 14.2465 10.6543 14.2465 10.5243V8.84594C14.2465 8.67296 14.106 8.53223 13.9334 8.53223H12.8375C12.6649 8.53223 12.5244 8.67296 12.5244 8.84594V10.5243C12.5244 10.6543 12.6296 10.7596 12.7592 10.7596ZM12.9941 10.289V10.0067H13.7768V10.289H12.9941ZM13.7768 9.0028V9.53611H12.9941V9.0028H13.7768Z" fill="#08384D"/>
<path d="M10.5051 10.7596H11.7575C11.8872 10.7596 11.9924 10.6543 11.9924 10.5243V8.84594C11.9924 8.67296 11.8519 8.53223 11.6792 8.53223H10.5834C10.4107 8.53223 10.2703 8.67296 10.2703 8.84594V10.5243C10.2703 10.6543 10.3754 10.7596 10.5051 10.7596ZM10.7399 10.289V10.0067H11.5227V10.289H10.7399ZM11.5227 9.0028V9.53611H10.7399V9.0028H11.5227Z" fill="#08384D"/>
</svg>
