<svg width="21" height="21" viewBox="0 0 21 21" fill="none" xmlns="http://www.w3.org/2000/svg">
<path fill-rule="evenodd" clip-rule="evenodd" d="M9.625 3.5C6.24226 3.5 3.5 6.24226 3.5 9.625C3.5 13.0077 6.24226 15.75 9.625 15.75C13.0077 15.75 15.75 13.0077 15.75 9.625C15.75 6.24226 13.0077 3.5 9.625 3.5ZM1.75 9.625C1.75 5.27576 5.27576 1.75 9.625 1.75C13.9742 1.75 17.5 5.27576 17.5 9.625C17.5 13.9742 13.9742 17.5 9.625 17.5C5.27576 17.5 1.75 13.9742 1.75 9.625Z" fill="#F2AB3E"/>
<path fill-rule="evenodd" clip-rule="evenodd" d="M13.95 13.9501C14.2917 13.6084 14.8457 13.6084 15.1874 13.9501L18.9937 17.7564C19.3354 18.0981 19.3354 18.6521 18.9937 18.9938C18.652 19.3355 18.098 19.3355 17.7563 18.9938L13.95 15.1876C13.6083 14.8459 13.6083 14.2918 13.95 13.9501Z" fill="#F2AB3E"/>
</svg>
