<svg width="20" height="20" viewBox="0 0 20 20" fill="none" xmlns="http://www.w3.org/2000/svg">
<path fill-rule="evenodd" clip-rule="evenodd" d="M15.9165 17.9084L17.8874 15.9376L17.1932 13.4159L17.4956 12.6937L19.7777 11.406V8.61901L17.5021 7.32593L17.2048 6.60499L17.9076 4.08204L15.9354 2.11269L13.4135 2.80659L12.6929 2.50446L11.4051 0.222168H8.61811L7.32503 2.49776L6.60425 2.79502L4.08171 2.09133L2.11257 4.06047L2.80659 6.58277L2.50446 7.30336L0.222168 8.59118V11.3774L2.49571 12.6733L2.7933 13.3949L2.09058 15.9174L4.06047 17.8873L6.58277 17.1933L7.30345 17.4955L8.59129 19.7768H11.3776L12.6726 17.5032L13.394 17.2057L15.9165 17.9084ZM16.0912 11.4449L15.3163 13.2957L15.8988 15.412L15.3936 15.9173L13.2818 15.329L11.4301 16.0926L10.3443 17.9991H9.62922L8.55232 16.0914L6.70356 15.3162L4.58615 15.8988L4.08176 15.3945L4.67005 13.2827L3.90646 11.4312L1.99996 10.3445V9.62933L3.90849 8.5524L4.68369 6.70356L4.10107 4.58615L4.60441 4.08281L6.71619 4.67191L8.56845 3.90801L9.65267 1.99996H10.367L11.4439 3.90849L13.2928 4.68369L15.4106 4.10096L15.9162 4.60588L15.3281 6.71725L16.0919 8.56934L18 9.65357V10.3679L16.0912 11.4449ZM9.99993 13.5555C8.03625 13.5555 6.44438 11.9636 6.44438 9.99993C6.44438 8.03625 8.03625 6.44438 9.99993 6.44438C11.9636 6.44438 13.5555 8.03625 13.5555 9.99993C13.5555 11.9636 11.9636 13.5555 9.99993 13.5555ZM11.7777 9.99995C11.7777 10.9818 10.9818 11.7777 9.99995 11.7777C9.01811 11.7777 8.22217 10.9818 8.22217 9.99995C8.22217 9.01811 9.01811 8.22217 9.99995 8.22217C10.9818 8.22217 11.7777 9.01811 11.7777 9.99995Z" fill="#2A4F77"/>
</svg>
