<svg width="16" height="16" viewBox="0 0 16 16" fill="none" xmlns="http://www.w3.org/2000/svg">
<path d="M11.3333 15.3334H4.66663C3.53329 15.3334 2.66663 14.4667 2.66663 13.3334V2.66669C2.66663 1.53335 3.53329 0.666687 4.66663 0.666687H11.3333C12.4666 0.666687 13.3333 1.53335 13.3333 2.66669V13.3334C13.3333 14.4667 12.4666 15.3334 11.3333 15.3334ZM4.66663 2.00002C4.26663 2.00002 3.99996 2.26669 3.99996 2.66669V13.3334C3.99996 13.7334 4.26663 14 4.66663 14H11.3333C11.7333 14 12 13.7334 12 13.3334V2.66669C12 2.26669 11.7333 2.00002 11.3333 2.00002H4.66663Z" fill="#959595"/>
<path d="M7.99996 12.6667C7.93329 12.6667 7.79996 12.6667 7.73329 12.6C7.66663 12.6 7.59996 12.5334 7.53329 12.4667C7.39996 12.3334 7.33329 12.2 7.33329 12C7.33329 11.9334 7.33329 11.8 7.39996 11.7334C7.46663 11.6667 7.46663 11.6 7.53329 11.5334C7.79996 11.2667 8.19996 11.2667 8.46663 11.5334C8.59996 11.6667 8.66663 11.8667 8.66663 12C8.66663 12.2 8.59996 12.3334 8.46663 12.4667C8.33329 12.6 8.19996 12.6667 7.99996 12.6667Z" fill="#959595"/>
</svg>
