<svg width="48" height="48" viewBox="0 0 48 48" fill="none" xmlns="http://www.w3.org/2000/svg">
<path d="M38.6921 31.7041V26.7072L36.5834 27.5277L36.5772 27.5137L36.527 27.4225C35.7189 26.1644 34.4121 25.289 32.9405 25.0223L27.8663 24.099V23.6984C29.764 22.5965 31.1535 20.7167 31.5866 18.4943C32.9924 18.2036 34.0525 16.9563 34.0525 15.4654V7.82782C34.0525 5.66962 32.639 3.78748 30.5883 3.17505L30.2016 2.78841C28.403 0.989786 26.012 0 23.4688 0C18.219 0 13.9475 4.27077 13.9475 9.52128V15.4654C13.9475 16.9563 15.0076 18.2036 16.4134 18.4943C16.8472 20.7167 18.236 22.5973 20.1336 23.6984V24.099L15.0602 25.0215C13.5902 25.2883 12.2842 26.1621 11.4753 27.4194L11.4289 27.5323L9.30785 26.7072V31.7041C8.02886 31.7041 6.98804 32.7449 6.98804 34.0239V37.117C6.98804 38.396 8.02886 39.4368 9.30785 39.4368V42.2855L24 48L38.6921 42.2855V39.4368C39.9711 39.4368 41.0119 38.396 41.0119 37.117V34.0239C41.0119 32.7449 39.9711 31.7041 38.6921 31.7041ZM29.3155 25.9347L32.6637 26.5433C33.6496 26.7227 34.5227 27.2918 35.1049 28.1022L27.6235 31.0112L29.3155 25.9347ZM21.7459 24.4075C22.4596 24.6256 23.2159 24.7447 24 24.7447C24.7841 24.7447 25.5403 24.6256 26.2541 24.4075L24 26.0979L21.7459 24.4075ZM22.8231 27.148L21.2448 28.7255L20.221 25.6548L20.7136 25.5659L22.8231 27.148ZM27.2864 25.5666L27.779 25.6556L26.7552 28.7262L25.1769 27.1488L27.2864 25.5666ZM31.7327 16.797V14.1338C32.1928 14.4022 32.506 14.8955 32.506 15.4654C32.506 16.0353 32.1928 16.5287 31.7327 16.797ZM16.2673 16.797C15.8072 16.5287 15.494 16.0353 15.494 15.4654C15.494 14.8955 15.8072 14.4022 16.2673 14.1338V16.797ZM16.2673 11.5991V12.4821C15.992 12.554 15.7337 12.6623 15.494 12.8023V9.52128C15.494 5.12446 19.0712 1.54654 23.4688 1.54654C25.5983 1.54654 27.6019 2.37626 29.1082 3.88259L29.7902 4.56539L29.9983 4.61643C31.4752 4.98528 32.506 6.30602 32.506 7.82782V12.8023C32.2663 12.6623 32.008 12.5533 31.7327 12.4821V11.5991H29.2807C27.1851 11.5991 25.1823 10.5984 23.9258 8.92277L23.311 8.10156L21.7745 9.63882C20.5094 10.9031 18.8284 11.5991 17.0406 11.5991H16.2673ZM17.8138 17.012V13.11C19.723 12.933 21.4946 12.1048 22.8679 10.7322L23.1687 10.4314C24.7191 12.1427 26.9523 13.1456 29.2807 13.1456H30.1862V17.012C30.1862 20.4228 27.4109 23.1981 24 23.1981C20.5891 23.1981 17.8138 20.4228 17.8138 17.012ZM15.3363 26.5433L18.6845 25.9347L20.3764 31.0112L12.8935 28.1014C13.4758 27.2903 14.3503 26.7227 15.3363 26.5433ZM8.53458 37.117V34.0239C8.53458 33.5971 8.88178 33.2506 9.30785 33.2506C10.5868 33.2506 11.6277 34.2915 11.6277 35.5704C11.6277 36.8494 10.5868 37.8903 9.30785 37.8903C8.88178 37.8903 8.53458 37.5438 8.53458 37.117ZM23.2267 46.039L10.8544 41.2285V39.1089C12.2177 38.5104 13.1742 37.1518 13.1742 35.5704C13.1742 33.9891 12.2177 32.6305 10.8544 32.032V28.9683L23.2267 33.7796V46.039ZM20.9309 31.2278L24 28.1579L27.0691 31.227L24 32.4209L20.9309 31.2278ZM37.1456 41.2277L24.7733 46.0382V33.7796L37.1456 28.9683V32.032C35.7823 32.6305 34.8258 33.9891 34.8258 35.5704C34.8258 37.1518 35.7823 38.5104 37.1456 39.1089V41.2277ZM39.4654 37.117C39.4654 37.5438 39.1182 37.8903 38.6921 37.8903C37.4131 37.8903 36.3723 36.8494 36.3723 35.5704C36.3723 34.2915 37.4131 33.2506 38.6921 33.2506C39.1182 33.2506 39.4654 33.5971 39.4654 34.0239V37.117Z" fill="#2A4F77"/>
</svg>
