<svg width="256" height="256" viewBox="0 0 256 256" fill="none" xmlns="http://www.w3.org/2000/svg">
<path d="M126.874 216.679C172.456 216.679 209.408 179.727 209.408 134.144C209.408 88.5618 172.456 51.6099 126.874 51.6099C81.291 51.6099 44.3391 88.5618 44.3391 134.144C44.3391 179.727 81.291 216.679 126.874 216.679Z" fill="url(#paint0_linear)"/>
<path opacity="0.73" d="M194.304 154.01V181.76C191.283 186.061 187.853 190.054 184.064 193.69V154.01V153.907C184.013 153.702 179.046 149.555 175.206 146.432V144.691L179.814 143.514C181.709 143.002 183.705 143.206 185.497 143.974C186.317 144.333 187.136 144.64 187.955 144.896V148.531C191.795 151.654 194.201 153.702 194.253 153.907L194.304 154.01Z" fill="#FE747D"/>
<path d="M42.2402 171.981C39.0658 171.981 36.4546 174.592 36.4546 177.767C36.4546 180.941 39.0658 183.552 42.2402 183.552C45.4146 183.552 48.0258 180.941 48.0258 177.767C48.0258 174.592 45.4146 171.981 42.2402 171.981ZM42.2402 180.122C40.9602 180.122 39.885 179.098 39.885 177.767C39.885 176.487 40.909 175.411 42.2402 175.411C43.5202 175.411 44.5954 176.435 44.5954 177.767C44.5954 179.047 43.5202 180.122 42.2402 180.122Z" fill="url(#paint1_linear)"/>
<path d="M197.018 195.379C193.843 195.379 191.232 197.991 191.232 201.165C191.232 204.339 193.843 206.951 197.018 206.951C200.192 206.951 202.803 204.339 202.803 201.165C202.803 197.991 200.192 195.379 197.018 195.379ZM197.018 203.469C195.738 203.469 194.663 202.445 194.663 201.114C194.663 199.834 195.687 198.759 197.018 198.759C198.298 198.759 199.373 199.783 199.373 201.114C199.373 202.445 198.298 203.469 197.018 203.469Z" fill="url(#paint2_linear)"/>
<path d="M244.275 105.625C241.818 105.625 239.872 107.622 239.872 110.029C239.872 112.486 241.869 114.432 244.275 114.432C246.733 114.432 248.678 112.435 248.678 110.029C248.678 107.622 246.733 105.625 244.275 105.625ZM244.275 111.872C243.302 111.872 242.483 111.053 242.483 110.08C242.483 109.107 243.302 108.288 244.275 108.288C245.248 108.288 246.067 109.107 246.067 110.08C246.067 111.053 245.248 111.872 244.275 111.872Z" fill="url(#paint3_linear)"/>
<path d="M166.4 34.9185C163.84 34.9185 161.741 37.0177 161.741 39.5777C161.741 42.1377 163.84 44.2369 166.4 44.2369C168.96 44.2369 171.059 42.1377 171.059 39.5777C171.059 37.0177 169.011 34.9185 166.4 34.9185ZM166.4 41.4721C165.376 41.4721 164.506 40.6017 164.506 39.5777C164.506 38.5537 165.376 37.6833 166.4 37.6833C167.424 37.6833 168.294 38.5537 168.294 39.5777C168.294 40.6017 167.475 41.4721 166.4 41.4721Z" fill="url(#paint4_linear)"/>
<path d="M16.8449 143.872C14.1313 143.872 11.9297 146.074 11.9297 148.787C11.9297 151.501 14.1313 153.702 16.8449 153.702C19.5585 153.702 21.7601 151.501 21.7601 148.787C21.7601 146.074 19.5585 143.872 16.8449 143.872Z" fill="url(#paint5_linear)"/>
<path d="M214.067 160.154C212.07 160.154 210.483 161.741 210.483 163.738C210.483 165.735 212.07 167.322 214.067 167.322C216.064 167.322 217.651 165.735 217.651 163.738C217.651 161.741 216.064 160.154 214.067 160.154Z" fill="url(#paint6_linear)"/>
<path d="M95.6416 36.3521C92.7744 36.3521 90.4192 38.7072 90.4192 41.5744C90.4192 44.4416 92.7744 46.7969 95.6416 46.7969C98.5088 46.7969 100.864 44.4416 100.864 41.5744C100.864 38.7072 98.56 36.3521 95.6416 36.3521Z" fill="url(#paint7_linear)"/>
<path d="M123.648 225.689C121.549 225.689 119.859 227.379 119.859 229.478C119.859 231.577 121.549 233.267 123.648 233.267C125.747 233.267 127.437 231.577 127.437 229.478C127.437 227.379 125.747 225.689 123.648 225.689Z" fill="url(#paint8_linear)"/>
<path d="M197.376 56.5249C194.918 56.5249 192.922 58.5217 192.922 60.9793C192.922 63.4369 194.918 65.4337 197.376 65.4337C199.834 65.4337 201.83 63.4369 201.83 60.9793C201.83 58.5217 199.834 56.5249 197.376 56.5249Z" fill="url(#paint9_linear)"/>
<path d="M39.0146 96.4096C40.4284 96.4096 41.5746 95.2634 41.5746 93.8496C41.5746 92.4357 40.4284 91.2896 39.0146 91.2896C37.6007 91.2896 36.4546 92.4357 36.4546 93.8496C36.4546 95.2634 37.6007 96.4096 39.0146 96.4096Z" fill="url(#paint10_linear)"/>
<path d="M245.811 83.3535C243.405 83.3535 241.459 85.2991 241.459 87.7055C241.459 90.1119 243.405 92.0575 245.811 92.0575C248.218 92.0575 250.163 90.1119 250.163 87.7055C250.163 85.2991 248.218 83.3535 245.811 83.3535Z" fill="url(#paint11_linear)"/>
<path d="M14.3874 111.872C15.9143 111.872 17.1522 110.634 17.1522 109.107C17.1522 107.58 15.9143 106.342 14.3874 106.342C12.8604 106.342 11.6226 107.58 11.6226 109.107C11.6226 110.634 12.8604 111.872 14.3874 111.872Z" fill="url(#paint12_linear)"/>
<path d="M130.816 27.0848L132.557 25.344C133.171 24.7296 133.171 23.7568 132.557 23.1424C131.942 22.528 130.97 22.528 130.355 23.1424L128.614 24.8832L126.874 23.1424C126.259 22.528 125.286 22.528 124.672 23.1424C124.058 23.7568 124.058 24.7296 124.672 25.344L126.413 27.0848L124.672 28.8256C124.058 29.44 124.058 30.4128 124.672 31.0272C125.286 31.6416 126.259 31.6416 126.874 31.0272L128.614 29.2864L130.355 31.0272C130.97 31.6416 131.942 31.6416 132.557 31.0272C133.171 30.4128 133.171 29.44 132.557 28.8256L130.816 27.0848Z" fill="url(#paint13_linear)"/>
<path d="M12.3904 79.6674L14.1312 77.9266C14.7456 77.3122 14.7456 76.3394 14.1312 75.725C13.5168 75.1106 12.544 75.1106 11.9296 75.725L10.1888 77.4658L8.44804 75.725C7.83364 75.1106 6.86084 75.1106 6.24644 75.725C5.63204 76.3394 5.63204 77.3122 6.24644 77.9266L7.98725 79.6674L6.24644 81.4082C5.63204 82.0226 5.63204 82.9954 6.24644 83.6098C6.86084 84.2242 7.83364 84.2242 8.44804 83.6098L10.1888 81.869L11.9296 83.6098C12.544 84.2242 13.5168 84.2242 14.1312 83.6098C14.7456 82.9954 14.7456 82.0226 14.1312 81.4082L12.3904 79.6674Z" fill="url(#paint14_linear)"/>
<path d="M217.6 185.856L219.085 184.371C219.597 183.859 219.597 183.04 219.085 182.528C218.573 182.016 217.754 182.016 217.242 182.528L215.757 184.013L214.272 182.528C213.76 182.016 212.941 182.016 212.429 182.528C211.917 183.04 211.917 183.859 212.429 184.371L213.914 185.856L212.429 187.341C211.917 187.853 211.917 188.672 212.429 189.184C212.941 189.696 213.76 189.696 214.272 189.184L215.757 187.699L217.242 189.184C217.754 189.696 218.573 189.696 219.085 189.184C219.597 188.672 219.597 187.853 219.085 187.341L217.6 185.856Z" fill="url(#paint15_linear)"/>
<path d="M12.3391 30.7197L35.9423 86.1693L53.2479 74.3421L63.2319 88.8829L65.0239 64.3581L85.9135 51.6093L12.3391 30.7197Z" fill="#FFAF31"/>
<path d="M57.0367 71.7311L35.9423 86.1695L53.2479 74.3423L63.2319 88.8832L65.0239 64.3583L31.7439 44.5439L57.0367 71.7311Z" fill="#FF9333"/>
<path d="M64.6143 70.3487L31.7439 44.5439L65.0239 64.3583L64.6143 70.3487Z" fill="#FF7733"/>
<path d="M63.6418 95.7953C63.437 94.7202 63.2322 93.645 62.925 92.5698L64.5634 92.1602C64.8706 93.2354 65.1266 94.3617 65.2802 95.4881L63.6418 95.7953Z" fill="#11BDCF"/>
<path d="M44.0834 133.428C41.6258 133.274 39.3218 132.506 37.325 131.175L38.2466 129.792C39.9874 130.919 42.0354 131.636 44.1858 131.738L44.0834 133.428ZM51.0466 132.096L50.3298 130.612C52.0706 129.741 53.7602 128.41 55.3474 126.669L56.5762 127.796C54.8354 129.69 52.9922 131.124 51.0466 132.096ZM32.717 125.85C31.7442 123.904 31.2322 121.805 31.2322 119.757C31.2322 119.604 31.2322 119.399 31.2322 119.245V118.887L32.9218 118.989V119.296C32.9218 119.45 32.9218 119.604 32.9218 119.757C32.9218 121.549 33.3826 123.444 34.2018 125.082L32.717 125.85ZM97.5874 125.44V123.751C99.789 123.751 102.042 123.648 104.243 123.495L104.346 125.184C102.093 125.338 99.789 125.44 97.5874 125.44ZM90.7778 125.236L89.7026 125.133C87.6546 124.98 85.7602 124.724 83.9682 124.416L84.2754 122.778C86.0162 123.085 87.8082 123.29 89.8562 123.495L90.8802 123.597L90.7778 125.236ZM111.104 124.468L110.899 122.829C113.05 122.522 115.303 122.164 117.504 121.754L117.811 123.392C115.559 123.802 113.306 124.16 111.104 124.468ZM77.3122 122.778C75.3666 122.112 73.4722 121.293 71.8338 120.32C71.5778 120.167 71.3218 120.013 71.0658 119.86L71.9362 118.426C72.1922 118.58 72.4482 118.733 72.653 118.836C74.2402 119.706 75.981 120.525 77.8754 121.14L77.3122 122.778ZM60.621 122.112L59.1874 121.293C60.2626 119.399 61.1842 117.402 61.9522 115.303L63.5394 115.866C62.7202 118.016 61.7474 120.116 60.621 122.112ZM124.467 121.908L124.058 120.269C126.157 119.757 128.359 119.194 130.56 118.528L131.021 120.167C128.768 120.832 126.567 121.396 124.467 121.908ZM137.472 118.221L136.96 116.634C139.111 115.968 141.21 115.2 143.309 114.484L143.872 116.071C141.773 116.788 139.623 117.504 137.472 118.221ZM65.4338 116.02C63.8978 114.893 62.2594 113.716 60.4162 112.743L59.853 112.436L60.621 110.951C60.8258 111.053 61.0306 111.156 61.2354 111.258C63.1298 112.282 64.8706 113.562 66.4066 114.637L65.4338 116.02ZM35.3282 113.46L34.1506 112.282C35.6354 110.848 37.6322 109.773 40.3458 108.954L40.909 110.541C38.4002 111.258 36.557 112.231 35.3282 113.46ZM53.7602 110.234C51.8658 109.824 49.9202 109.568 47.9234 109.568H47.2578L47.2066 107.879C49.5106 107.828 51.8658 108.032 54.1186 108.544L53.7602 110.234ZM65.2802 109.21L63.6418 108.903C64.0514 106.752 64.205 104.551 64.2562 102.349H65.9458C65.8434 104.653 65.6386 106.957 65.2802 109.21Z" fill="#11BDCF"/>
<path d="M150.323 113.664L149.709 112.077C150.733 111.667 151.808 111.258 152.832 110.848L153.447 112.435C152.423 112.845 151.347 113.255 150.323 113.664Z" fill="#11BDCF"/>
<path d="M203.11 154.522C202.24 154.522 201.523 153.856 201.421 152.986C201.318 152.064 201.984 151.245 202.906 151.142C213.043 150.17 222.362 145.306 229.171 137.523C229.786 136.806 230.861 136.755 231.526 137.37C232.243 137.984 232.294 139.059 231.68 139.725C224.307 148.173 214.221 153.395 203.213 154.47C203.213 154.522 203.162 154.522 203.11 154.522Z" fill="#11ABBF"/>
<path d="M163.994 122.01H65.8433V216.525H163.994V122.01Z" fill="#2A4F77"/>
<path d="M92.8769 95.6416L65.8433 122.01H163.942L182.733 95.6416H92.8769Z" fill="#08384D"/>
<path d="M163.942 216.525L182.733 189.798V95.6416L163.942 122.01V216.525Z" fill="#08384D"/>
<path d="M138.291 161.229H87.04V167.014H138.291V161.229Z" fill="#DBF5F8"/>
<path d="M129.024 171.417H96.3074V176.896H129.024V171.417Z" fill="#DBF5F8"/>
<path d="M194.457 76.4415C177.664 78.0799 164.198 91.9551 163.021 108.8C162.406 117.197 164.813 124.979 169.165 131.277C170.803 133.632 171.059 136.704 169.984 139.366L167.219 146.022L178.534 143.104C180.377 142.643 182.323 142.797 184.064 143.514C189.337 145.818 195.225 146.842 201.472 146.227C217.958 144.64 231.321 131.277 232.909 114.79C235.059 92.6719 216.627 74.2399 194.457 76.4415Z" fill="#11BDCF"/>
<path d="M198.861 129.075L200.806 127.129C200.806 127.129 199.27 123.494 205.721 117.453C209.561 113.817 210.381 110.336 210.073 107.469C209.561 102.912 205.875 99.1742 201.267 98.6622C198.4 98.355 194.867 99.2254 191.283 103.014C185.19 109.414 181.606 107.929 181.606 107.929L179.661 109.875L198.861 129.075Z" fill="#DBF5F8"/>
<path d="M184.012 117.299C182.477 119.398 182.681 122.316 184.524 124.211C186.419 126.105 189.337 126.259 191.436 124.723L184.012 117.299Z" fill="#DBF5F8"/>
<path d="M211.405 101.017L210.227 102.195C209.305 100.71 208.025 99.4301 206.541 98.5085L207.769 97.2797C208.793 96.2557 210.432 96.2557 211.456 97.2797C212.429 98.3037 212.429 99.9933 211.405 101.017Z" fill="#DBF5F8"/>
<path d="M197.069 76.2879C209.562 80.0255 218.675 91.5967 218.675 105.318C218.675 122.061 205.107 135.629 188.365 135.629C179.558 135.629 171.622 131.84 166.093 125.85C166.963 127.744 167.987 129.587 169.165 131.277C170.803 133.632 171.059 136.704 169.984 139.366L167.219 146.022L178.534 143.104C180.378 142.643 182.323 142.797 184.064 143.513C189.338 145.817 195.226 146.842 201.472 146.227C217.958 144.64 231.322 131.277 232.909 114.79C235.008 93.5423 218.01 75.7247 197.069 76.2879Z" fill="#11ABBF"/>
<path d="M14.3359 47.1553L22.0159 64.7169C22.4255 65.6385 22.0159 66.6625 21.0943 67.0209L20.8383 67.1233C19.9167 67.5329 18.8927 67.0721 18.5343 66.2017L11.1103 48.5377C10.7007 47.6161 11.1615 46.5409 12.1343 46.1825C13.0047 45.8753 13.9775 46.2849 14.3359 47.1553Z" fill="#FFAF31"/>
<defs>
<linearGradient id="paint0_linear" x1="126.882" y1="216.7" x2="126.882" y2="51.6238" gradientUnits="userSpaceOnUse">
<stop stop-color="#F2AB3E"/>
<stop offset="1" stop-color="#FE747D"/>
</linearGradient>
<linearGradient id="paint1_linear" x1="36.465" y1="177.766" x2="48.0173" y2="177.766" gradientUnits="userSpaceOnUse">
<stop stop-color="#F2AB3E"/>
<stop offset="1" stop-color="#FE747D"/>
</linearGradient>
<linearGradient id="paint2_linear" x1="191.247" y1="201.139" x2="202.799" y2="201.139" gradientUnits="userSpaceOnUse">
<stop stop-color="#F2AB3E"/>
<stop offset="1" stop-color="#FE747D"/>
</linearGradient>
<linearGradient id="paint3_linear" x1="239.856" y1="110.073" x2="248.701" y2="110.073" gradientUnits="userSpaceOnUse">
<stop stop-color="#F2AB3E"/>
<stop offset="1" stop-color="#FE747D"/>
</linearGradient>
<linearGradient id="paint4_linear" x1="161.729" y1="39.5798" x2="171.081" y2="39.5798" gradientUnits="userSpaceOnUse">
<stop stop-color="#F2AB3E"/>
<stop offset="1" stop-color="#FE747D"/>
</linearGradient>
<linearGradient id="paint5_linear" x1="11.9157" y1="148.771" x2="21.7488" y2="148.771" gradientUnits="userSpaceOnUse">
<stop stop-color="#F2AB3E"/>
<stop offset="1" stop-color="#FE747D"/>
</linearGradient>
<linearGradient id="paint6_linear" x1="210.501" y1="163.705" x2="217.652" y2="163.705" gradientUnits="userSpaceOnUse">
<stop stop-color="#F2AB3E"/>
<stop offset="1" stop-color="#FE747D"/>
</linearGradient>
<linearGradient id="paint7_linear" x1="90.4362" y1="41.5998" x2="100.888" y2="41.5998" gradientUnits="userSpaceOnUse">
<stop stop-color="#F2AB3E"/>
<stop offset="1" stop-color="#FE747D"/>
</linearGradient>
<linearGradient id="paint8_linear" x1="119.832" y1="229.488" x2="127.448" y2="229.488" gradientUnits="userSpaceOnUse">
<stop stop-color="#F2AB3E"/>
<stop offset="1" stop-color="#FE747D"/>
</linearGradient>
<linearGradient id="paint9_linear" x1="192.887" y1="61.0009" x2="201.826" y2="61.0009" gradientUnits="userSpaceOnUse">
<stop stop-color="#F2AB3E"/>
<stop offset="1" stop-color="#FE747D"/>
</linearGradient>
<linearGradient id="paint10_linear" x1="36.4894" y1="93.826" x2="41.5778" y2="93.826" gradientUnits="userSpaceOnUse">
<stop stop-color="#F2AB3E"/>
<stop offset="1" stop-color="#FE747D"/>
</linearGradient>
<linearGradient id="paint11_linear" x1="241.482" y1="87.7005" x2="250.163" y2="87.7005" gradientUnits="userSpaceOnUse">
<stop stop-color="#F2AB3E"/>
<stop offset="1" stop-color="#FE747D"/>
</linearGradient>
<linearGradient id="paint12_linear" x1="11.6237" y1="109.098" x2="17.1628" y2="109.098" gradientUnits="userSpaceOnUse">
<stop stop-color="#F2AB3E"/>
<stop offset="1" stop-color="#FE747D"/>
</linearGradient>
<linearGradient id="paint13_linear" x1="124.246" y1="27.0878" x2="133.015" y2="27.0878" gradientUnits="userSpaceOnUse">
<stop stop-color="#F2AB3E"/>
<stop offset="1" stop-color="#FE747D"/>
</linearGradient>
<linearGradient id="paint14_linear" x1="5.83669" y1="79.6548" x2="14.6057" y2="79.6548" gradientUnits="userSpaceOnUse">
<stop stop-color="#F2AB3E"/>
<stop offset="1" stop-color="#FE747D"/>
</linearGradient>
<linearGradient id="paint15_linear" x1="212.006" y1="185.873" x2="219.432" y2="185.873" gradientUnits="userSpaceOnUse">
<stop stop-color="#F2AB3E"/>
<stop offset="1" stop-color="#FE747D"/>
</linearGradient>
</defs>
</svg>
