<svg width="48" height="48" viewBox="0 0 48 48" fill="none" xmlns="http://www.w3.org/2000/svg">
<path d="M12.6562 0C9.52894 0 7.03125 2.62556 7.03125 5.71875C7.03125 8.82038 9.55463 11.3438 12.6562 11.3438C15.7579 11.3438 18.2812 8.82038 18.2812 5.71875C18.2812 2.62313 15.7804 0 12.6562 0ZM12.6562 8.53125C11.1054 8.53125 9.84375 7.26956 9.84375 5.71875C9.84375 4.14337 11.1317 2.8125 12.6562 2.8125C14.1808 2.8125 15.4688 4.14337 15.4688 5.71875C15.4688 7.26956 14.2071 8.53125 12.6562 8.53125Z" fill="#2A4F77"/>
<path d="M43.7812 0H23.9062C21.58 0 19.6875 1.89253 19.6875 4.21875V13.8155L18.4516 12.5797C17.6547 11.7827 16.5953 11.3438 15.4688 11.3438H12.6562C12.0601 11.3438 7.62741 11.3438 7.03125 11.3438C3.15422 11.3438 0 14.498 0 18.375C0 19.1746 0 25.6575 0 26.8125C0 29.1387 1.89253 31.0312 4.21875 31.0312C4.71159 31.0312 5.18503 30.9463 5.625 30.7903V43.7812C5.625 46.1075 7.51753 48 9.84375 48C10.9233 48 11.9093 47.5925 12.6562 46.9232C13.4032 47.5925 14.3892 48 15.4688 48C17.795 48 19.6875 46.1075 19.6875 43.7812V25.1666C20.7627 25.5458 21.9538 25.4728 22.9806 24.9612L27.7154 22.5938H43.7812C46.1075 22.5938 48 20.7012 48 18.375V4.21875C48 1.89253 46.1075 0 43.7812 0ZM27.3477 19.633L21.7244 22.4447C21.1969 22.7076 20.5417 22.6238 20.0994 22.1816L19.2757 21.3578C18.4061 20.4882 16.8788 21.0797 16.8751 22.3478C16.8751 22.3493 16.8749 22.3506 16.8749 22.352V43.7812C16.8749 44.5567 16.2441 45.1875 15.4687 45.1875C14.6932 45.1875 14.0624 44.5567 14.0624 43.7812V29.625C14.0624 28.8484 13.4328 28.2188 12.6562 28.2188C11.8795 28.2188 11.2499 28.8484 11.2499 29.625V43.7812C11.2499 44.5567 10.6191 45.1875 9.84366 45.1875C9.06825 45.1875 8.43741 44.5567 8.43741 43.7812V26.8125C8.43741 25.7522 8.43741 19.2416 8.43741 18.375C8.43741 17.5984 7.80778 16.9688 7.03116 16.9688C6.25453 16.9688 5.62491 17.5984 5.62491 18.375C5.62491 19.1746 5.62491 25.6575 5.62491 26.8125C5.62491 27.5879 4.99406 28.2188 4.21866 28.2188C3.44325 28.2188 2.81241 27.5879 2.81241 26.8125C2.8125 25.7522 2.8125 19.2416 2.8125 18.375C2.8125 16.0488 4.70503 14.1562 7.03125 14.1562C8.09156 14.1562 14.6021 14.1562 15.4688 14.1562C15.8441 14.1562 16.1972 14.3026 16.4629 14.5684L20.6542 18.7597C21.082 19.1876 21.736 19.2937 22.2773 19.0231L26.0901 17.1167C26.7879 16.7675 27.629 17.0497 27.9767 17.7459C28.3245 18.4417 28.0434 19.2852 27.3477 19.633ZM45.1875 18.375C45.1875 19.1504 44.5567 19.7812 43.7812 19.7812H30.6955C30.7041 19.7572 30.7134 19.7335 30.7215 19.7092C30.924 19.1017 30.9848 18.4701 30.9073 17.853L38.5976 14.0078C39.2923 13.6605 39.5738 12.8158 39.2265 12.1211C38.8792 11.4264 38.0344 11.1448 37.3398 11.4923L29.6499 15.3372C28.4179 14.1455 26.4987 13.7672 24.8318 14.6014L22.5 15.7673V4.21875C22.5 3.44334 23.1308 2.8125 23.9062 2.8125H43.7812C44.5567 2.8125 45.1875 3.44334 45.1875 4.21875V18.375Z" fill="#2A4F77"/>
</svg>
