<svg width="64" height="64" viewBox="0 0 64 64" fill="none" xmlns="http://www.w3.org/2000/svg">
<path d="M47.6915 60.6558L43.4948 47.0185C43.4073 46.7594 43.2221 46.5448 42.9787 46.4201C42.7353 46.2955 42.4529 46.2708 42.1915 46.3512C41.9301 46.4316 41.7105 46.6108 41.5792 46.8507C41.448 47.0906 41.4155 47.3723 41.4888 47.6357L43.0066 52.5736H20.9961L22.5139 47.6357C22.5588 47.5028 22.5767 47.3623 22.5663 47.2224C22.556 47.0825 22.5177 46.9461 22.4538 46.8212C22.3899 46.6964 22.3016 46.5856 22.1941 46.4954C22.0866 46.4053 21.9622 46.3376 21.8281 46.2963C21.694 46.255 21.553 46.2411 21.4135 46.2552C21.2739 46.2694 21.1386 46.3114 21.0155 46.3787C20.8925 46.446 20.7841 46.5373 20.697 46.6472C20.6098 46.7571 20.5455 46.8833 20.5079 47.0185L16.3087 60.6558C16.2786 60.7559 16.2632 60.8599 16.2632 60.9644C16.2645 61.2149 16.3552 61.4566 16.5191 61.646C16.683 61.8354 16.9091 61.9599 17.1568 61.9972C17.4045 62.0345 17.6573 61.9819 17.8696 61.8492C18.082 61.7164 18.2398 61.512 18.3147 61.273L20.3384 54.6707H43.6466L45.6703 61.273C45.7079 61.4082 45.7721 61.5345 45.8593 61.6443C45.9465 61.7542 46.0548 61.8455 46.1779 61.9129C46.301 61.9802 46.4363 62.0222 46.5758 62.0363C46.7154 62.0505 46.8564 62.0365 46.9905 61.9952C47.1245 61.954 47.249 61.8863 47.3565 61.7961C47.4639 61.706 47.5522 61.5952 47.6162 61.4703C47.6801 61.3455 47.7184 61.2091 47.7287 61.0692C47.739 60.9293 47.7212 60.7887 47.6763 60.6558H47.6915Z" fill="#2A4F77"/>
<path d="M4.69483 1.7328H59.3048C59.8525 1.7328 60.3779 1.94968 60.7662 2.33603C61.1544 2.72238 61.3739 3.24675 61.3766 3.79446V45.2452C61.3766 45.7947 61.1583 46.3217 60.7698 46.7102C60.3812 47.0987 59.8543 47.317 59.3048 47.317H4.18637C3.77175 47.317 3.37411 47.1523 3.08093 46.8591C2.78775 46.5659 2.62305 46.1683 2.62305 45.7537V3.79446C2.62572 3.24675 2.84518 2.72238 3.23342 2.33603C3.62167 1.94968 4.1471 1.7328 4.69483 1.7328Z" fill="#DBF5F8"/>
<path d="M34.0995 33.4419H29.9028V43.9323H34.0995V33.4419Z" fill="#F7B73B"/>
<path d="M44.5897 27.1481H40.3931V43.9348H44.5897V27.1481Z" fill="#F7B73B"/>
<path d="M55.0805 15.6079H50.8838V43.9323H55.0805V15.6079Z" fill="#60D2B0"/>
<path d="M13.1166 39.7382H8.91992V43.9349H13.1166V39.7382Z" fill="#FE747D"/>
<path d="M23.6068 37.6386H19.4102V43.9323H23.6068V37.6386Z" fill="#FE747D"/>
<path d="M56.0795 11.0849L53.9824 4.79115C53.9653 4.74185 53.945 4.69369 53.9217 4.64696C53.86 4.52368 53.7745 4.41384 53.6701 4.32376C53.5658 4.23368 53.4446 4.16515 53.3136 4.12211C53.1826 4.07908 53.0444 4.0624 52.907 4.07303C52.7695 4.08365 52.6355 4.12138 52.5127 4.18404L46.2569 7.31068C46.0172 7.42628 45.8285 7.62611 45.7268 7.87201C45.6251 8.11791 45.6175 8.39266 45.7054 8.6438C45.7578 8.78063 45.8382 8.90499 45.9415 9.00888C46.0448 9.11276 46.1687 9.19388 46.3052 9.24702C46.4417 9.30015 46.5878 9.32412 46.7342 9.31739C46.8805 9.31065 47.0238 9.27336 47.1549 9.20791L50.5927 7.48523C41.7389 23.6749 25.7516 34.0768 8.88393 34.4791C8.61215 34.4876 8.35441 34.6018 8.16547 34.7974C7.97653 34.9929 7.87128 35.2544 7.87207 35.5263C7.87202 35.6668 7.90014 35.8058 7.95479 35.9352C8.00943 36.0646 8.08949 36.1817 8.19021 36.2796C8.29093 36.3775 8.41027 36.4542 8.54116 36.5051C8.67205 36.556 8.81184 36.5802 8.95223 36.5761C26.7837 36.1436 43.659 25.0435 52.7859 7.84191L54.0684 11.692C54.1493 11.9059 54.2906 12.0915 54.4753 12.2263C54.6599 12.3611 54.8798 12.4391 55.1081 12.4509C55.2105 12.4483 55.312 12.4303 55.4091 12.3978C55.671 12.3109 55.8881 12.1245 56.0135 11.8788C56.139 11.6331 56.1627 11.3479 56.0795 11.0849Z" fill="#2A4F77"/>
<path opacity="0.3" d="M54.2863 43.3151H50.7701V36.0803C48.7717 36.9303 46.2168 37.7246 44.1551 38.4658V43.3151H40.1077V39.8318C38.1042 40.4693 36.0805 41.0544 34.0365 41.5874V43.3151H29.9891V42.5562C21.6729 44.3924 13.1813 45.3169 4.66483 45.3135C3.98688 45.3135 3.314 45.3135 2.64111 45.2882V45.7866C2.64111 45.9885 2.6809 46.1885 2.75819 46.3751C2.83548 46.5617 2.94877 46.7313 3.09159 46.8741C3.23441 47.0169 3.40396 47.1302 3.59056 47.2075C3.77716 47.2848 3.97716 47.3246 4.17914 47.3246H58.8726C59.5368 47.3246 60.1738 47.0607 60.6434 46.5911C61.1131 46.1214 61.3769 45.4844 61.3769 44.8202V30.6289C59.0615 31.9224 56.7005 33.1383 54.2939 34.2767V43.3227L54.2863 43.3151Z" fill="#11BDCF"/>
</svg>
