<svg width="16" height="16" viewBox="0 0 16 16" fill="none" xmlns="http://www.w3.org/2000/svg">
<path d="M14.6665 11.28V13.28C14.6672 13.4657 14.6292 13.6495 14.5548 13.8196C14.4804 13.9897 14.3713 14.1424 14.2345 14.2679C14.0977 14.3934 13.9362 14.489 13.7603 14.5485C13.5844 14.608 13.398 14.6301 13.2131 14.6133C11.1617 14.3904 9.19113 13.6894 7.45979 12.5667C5.84901 11.5431 4.48335 10.1775 3.45979 8.56668C2.33311 6.82748 1.63195 4.84734 1.41313 2.78668C1.39647 2.60232 1.41838 2.41652 1.47746 2.2411C1.53654 2.06567 1.63151 1.90447 1.7563 1.76776C1.8811 1.63105 2.033 1.52182 2.20232 1.44703C2.37164 1.37224 2.55469 1.33352 2.73979 1.33335H4.73979C5.06333 1.33016 5.37699 1.44473 5.6223 1.6557C5.86761 1.86667 6.02784 2.15964 6.07313 2.48001C6.15754 3.12006 6.31409 3.7485 6.53979 4.35335C6.62949 4.59196 6.6489 4.85129 6.59573 5.1006C6.54256 5.34991 6.41903 5.57875 6.23979 5.76001L5.39313 6.60668C6.34216 8.27571 7.7241 9.65764 9.39313 10.6067L10.2398 9.76001C10.4211 9.58077 10.6499 9.45725 10.8992 9.40407C11.1485 9.3509 11.4078 9.37032 11.6465 9.46001C12.2513 9.68571 12.8797 9.84226 13.5198 9.92668C13.8436 9.97237 14.1394 10.1355 14.3508 10.385C14.5622 10.6345 14.6746 10.9531 14.6665 11.28Z" fill="#2A4F77"/>
</svg>
