<svg width="16" height="17" viewBox="0 0 16 17" fill="none" xmlns="http://www.w3.org/2000/svg">
<path d="M14.6667 11.6556V13.5728C14.6675 13.7508 14.6294 13.9269 14.555 14.09C14.4807 14.2531 14.3716 14.3995 14.2348 14.5198C14.0979 14.6401 13.9364 14.7317 13.7605 14.7887C13.5847 14.8457 13.3983 14.8669 13.2134 14.8509C11.1619 14.6372 9.19137 13.9652 7.46004 12.889C5.84926 11.9078 4.48359 10.5987 3.46004 9.05461C2.33336 7.38743 1.6322 5.48928 1.41337 3.51394C1.39671 3.33722 1.41862 3.15911 1.4777 2.99095C1.53679 2.82279 1.63175 2.66827 1.75655 2.53722C1.88134 2.40616 2.03324 2.30146 2.20256 2.22976C2.37189 2.15807 2.55493 2.12096 2.74004 2.12079H4.74004C5.06357 2.11774 5.37723 2.22756 5.62254 2.4298C5.86786 2.63203 6.02809 2.91287 6.07337 3.21998C6.15779 3.83352 6.31434 4.43594 6.54004 5.01574C6.62973 5.24447 6.64915 5.49306 6.59597 5.73205C6.5428 5.97104 6.41928 6.1904 6.24004 6.36416L5.39337 7.17577C6.34241 8.77569 7.72434 10.1004 9.39337 11.0101L10.24 10.1985C10.4213 10.0267 10.6501 9.9083 10.8994 9.85733C11.1488 9.80636 11.4081 9.82497 11.6467 9.91095C12.2516 10.1273 12.88 10.2774 13.52 10.3583C13.8439 10.4021 14.1396 10.5585 14.3511 10.7976C14.5625 11.0368 14.6748 11.3422 14.6667 11.6556Z" stroke="#959595" stroke-width="2" stroke-linecap="round" stroke-linejoin="round"/>
</svg>
