<svg width="20" height="20" viewBox="0 0 20 20" fill="none" xmlns="http://www.w3.org/2000/svg">
<path d="M16.32 7.1C17.4004 8.49531 17.9892 10.2087 17.9946 11.9734C18 13.7381 17.4218 15.4551 16.3499 16.857C15.278 18.2589 13.7727 19.2671 12.0683 19.7245C10.3639 20.1819 8.55608 20.063 6.92632 19.3861C5.29656 18.7093 3.93633 17.5126 3.05742 15.9823C2.17852 14.452 1.83026 12.6741 2.06688 10.9253C2.3035 9.17649 3.11171 7.55501 4.36568 6.31332C5.61964 5.07163 7.24898 4.27941 9.00001 4.06V2H11V4.06C12.46 4.24 13.8 4.82 14.9 5.68L16.36 4.22L17.78 5.64L16.32 7.09V7.1ZM10 18C11.5913 18 13.1174 17.3679 14.2427 16.2426C15.3679 15.1174 16 13.5913 16 12C16 10.4087 15.3679 8.88258 14.2427 7.75736C13.1174 6.63214 11.5913 6 10 6C8.40871 6 6.88259 6.63214 5.75737 7.75736C4.63215 8.88258 4.00001 10.4087 4.00001 12C4.00001 13.5913 4.63215 15.1174 5.75737 16.2426C6.88259 17.3679 8.40871 18 10 18V18ZM7.00001 0H13V2H7.00001V0ZM12.12 8.46L13.54 9.88L10 13.4L8.59001 12L12.12 8.46V8.46Z" fill="#959595"/>
</svg>
