<svg width="24" height="24" viewBox="0 0 24 24" fill="none" xmlns="http://www.w3.org/2000/svg">
<g clip-path="url(#clip0)">
<path d="M24 4.55911C23.1167 4.95052 22.1689 5.21597 21.1731 5.33448C22.1899 4.72558 22.9682 3.75978 23.3371 2.61248C22.3833 3.17637 21.3305 3.58582 20.2087 3.80778C19.3104 2.84946 18.0326 2.25256 16.6154 2.25256C13.8964 2.25256 11.6918 4.45715 11.6918 7.17463C11.6918 7.56004 11.7353 7.93647 11.8193 8.29643C7.72807 8.09094 4.10027 6.13083 1.67223 3.15237C1.2478 3.87825 1.00635 4.72405 1.00635 5.62691C1.00635 7.3351 1.87619 8.84231 3.19595 9.72412C2.38909 9.69713 1.63023 9.47518 0.965876 9.10623V9.16772C0.965876 11.5523 2.66356 13.5424 4.91462 13.9953C4.50219 14.1063 4.06729 14.1678 3.61737 14.1678C3.29944 14.1678 2.99199 14.1363 2.69054 14.0763C3.31741 16.0334 5.13509 17.4566 7.2887 17.4957C5.6045 18.8154 3.4809 19.5998 1.17435 19.5998C0.776935 19.5998 0.385484 19.5758 7.24792e-05 19.5323C2.17917 20.9315 4.76619 21.7474 7.54666 21.7474C16.6034 21.7474 21.554 14.2458 21.554 7.74004L21.5375 7.10267C22.5048 6.41275 23.3416 5.54593 24 4.55911Z" fill="#F2AB3E"/>
</g>
<defs>
<clipPath id="clip0">
<rect width="24" height="24" fill="white"/>
</clipPath>
</defs>
</svg>
