<svg width="128" height="128" viewBox="0 0 128 128" fill="none" xmlns="http://www.w3.org/2000/svg">
<path fill-rule="evenodd" clip-rule="evenodd" d="M16 74.6667C18.9455 74.6667 21.3333 77.0545 21.3333 80V101.333C21.3333 102.748 21.8952 104.104 22.8954 105.105C23.8956 106.105 25.2522 106.667 26.6667 106.667H101.333C102.748 106.667 104.104 106.105 105.105 105.105C106.105 104.104 106.667 102.748 106.667 101.333V80C106.667 77.0545 109.054 74.6667 112 74.6667C114.946 74.6667 117.333 77.0545 117.333 80V101.333C117.333 105.577 115.648 109.646 112.647 112.647C109.646 115.648 105.577 117.333 101.333 117.333H26.6667C22.4232 117.333 18.3535 115.648 15.3529 112.647C12.3524 109.646 10.6667 105.577 10.6667 101.333V80C10.6667 77.0545 13.0545 74.6667 16 74.6667Z" fill="#E5E5E5"/>
<path fill-rule="evenodd" clip-rule="evenodd" d="M60.2288 12.2288C62.3116 10.146 65.6884 10.146 67.7712 12.2288L94.4379 38.8955C96.5207 40.9782 96.5207 44.3551 94.4379 46.4379C92.3551 48.5207 88.9782 48.5207 86.8954 46.4379L64 23.5425L41.1046 46.4379C39.0218 48.5207 35.6449 48.5207 33.5621 46.4379C31.4793 44.3551 31.4793 40.9782 33.5621 38.8955L60.2288 12.2288Z" fill="#E5E5E5"/>
<path fill-rule="evenodd" clip-rule="evenodd" d="M64 10.6667C66.9455 10.6667 69.3333 13.0545 69.3333 16V80C69.3333 82.9455 66.9455 85.3334 64 85.3334C61.0545 85.3334 58.6667 82.9455 58.6667 80V16C58.6667 13.0545 61.0545 10.6667 64 10.6667Z" fill="#E5E5E5"/>
</svg>
