<svg xmlns="http://www.w3.org/2000/svg" viewBox="0 0 63.3 63.3"><defs><style>.cls-1{fill:none;}.cls-2{fill:#757575;}</style></defs><title>user_outline</title><g id="Layer_2" data-name="Layer 2"><g id="Layer_1-2" data-name="Layer 1"><rect class="cls-1" width="63.3" height="63.3"/><path class="cls-2" d="M56.52,60.08A2.22,2.22,0,0,1,54.61,59,26.55,26.55,0,0,0,8.69,59a2.21,2.21,0,0,1-3.82-2.22,31,31,0,0,1,53.56,0,2.21,2.21,0,0,1-1.91,3.32Z"/><path class="cls-2" d="M31.63,35A15.88,15.88,0,1,1,47.52,19.11,15.9,15.9,0,0,1,31.63,35Zm0-27.35A11.47,11.47,0,1,0,43.1,19.11,11.48,11.48,0,0,0,31.63,7.64Z"/></g></g></svg>