<svg width="96" height="96" viewBox="0 0 96 96" fill="none" xmlns="http://www.w3.org/2000/svg">
<g clip-path="url(#clip0)">
<path d="M88.2342 24.7742L76.4666 19.5395L71.2274 7.76739L58.421 9.1048L48.0022 1.54907L37.5774 9.1048L24.7771 7.76739L19.5416 19.5342L7.76956 24.7742L9.10773 37.5805L1.552 47.9993L9.10773 58.4242L7.76956 71.2244L19.5371 76.4592L24.7771 88.2312L37.5835 86.8938L48.0022 94.4496L58.4271 86.8938L71.2274 88.2312L76.4621 76.4637L88.2342 71.2244L86.896 58.4181L94.4525 47.9993L86.896 37.5745L88.2342 24.7742ZM38.7122 66.5794L25.5664 53.4336L29.9483 49.0676L38.7122 57.8156L64.9871 31.5406L69.3691 35.9218L38.7122 66.5794Z" fill="#11BDCF"/>
<path d="M95.7068 47.0906L88.4973 37.1451L89.775 24.9307C89.8446 24.2631 89.4771 23.6273 88.864 23.3544L77.6423 18.3609L72.6487 7.1384C72.3743 6.52677 71.7392 6.1601 71.0724 6.22663L58.8558 7.50356L48.911 0.29485C48.369 -0.0982834 47.6356 -0.0982834 47.0935 0.29485L37.148 7.50356L24.9321 6.22663C24.2661 6.16313 23.6333 6.52904 23.3558 7.13689L18.3623 18.3593L7.13982 23.3544C6.52744 23.6266 6.16001 24.2624 6.22956 24.9292L7.50649 37.1451L0.29778 47.0906C-0.0953537 47.6327 -0.0953537 48.366 0.29778 48.9081L7.50649 58.8529L6.22956 71.0695C6.15925 71.7363 6.52668 72.3729 7.13982 72.6458L18.3623 77.6393L23.3558 88.8618C23.6318 89.4712 24.2653 89.8378 24.9321 89.7736L37.148 88.4959L47.0935 95.7053C47.6356 96.0985 48.369 96.0985 48.911 95.7053L58.8558 88.4959L71.0724 89.7736C71.7392 89.8409 72.3735 89.4742 72.6487 88.8633L77.6423 77.6409L88.864 72.6458C89.4764 72.3729 89.8438 71.7378 89.775 71.071L88.4973 58.8544L95.7068 48.9096C96.1007 48.3675 96.1007 47.6327 95.7068 47.0906V47.0906ZM85.6426 57.5154C85.418 57.8247 85.316 58.2057 85.356 58.5852L86.5763 70.2719L75.8384 75.0522C75.4876 75.2065 75.2064 75.4862 75.0514 75.837L70.2748 86.5748L58.5851 85.3531C58.2056 85.3138 57.8253 85.4166 57.5169 85.6411L48.0023 92.5376L38.4862 85.6411C38.2223 85.4483 37.9048 85.3448 37.5789 85.3455C37.5245 85.3455 37.4701 85.3455 37.424 85.3531L25.7335 86.5748L20.957 75.837C20.8012 75.4862 20.5215 75.2057 20.1707 75.05L9.4268 70.2719L10.647 58.5852C10.6863 58.2057 10.5843 57.8247 10.3605 57.5154L3.46402 47.9993L10.3605 38.4832C10.5843 38.174 10.6863 37.793 10.647 37.4135L9.4268 25.7261L20.1646 20.9465C20.5154 20.7922 20.7959 20.5125 20.9509 20.1617L25.7275 9.42387L37.4179 10.6456C37.7967 10.6834 38.177 10.5806 38.4862 10.3576L48.0023 3.46109L57.5184 10.3576C57.8268 10.5813 58.2071 10.6834 58.5867 10.6456L70.2763 9.42387L75.0529 20.1617C75.2086 20.5125 75.4891 20.7922 75.8399 20.948L86.5778 25.7261L85.3575 37.4135C85.3175 37.793 85.4195 38.174 85.6441 38.4832L92.5398 47.9993L85.6426 57.5154Z" fill="#DDF1FA"/>
<path d="M66.082 30.4459C65.4772 29.8411 64.4974 29.8411 63.8926 30.4459L38.7124 55.6261L31.0433 47.9714C30.4392 47.3688 29.4609 47.3688 28.8568 47.9714L24.4673 52.3344C24.1763 52.6247 24.0122 53.0194 24.0122 53.4306C24.0122 53.8419 24.1763 54.2366 24.4673 54.5269L37.6131 67.6727C38.2172 68.2767 39.1977 68.2767 39.8026 67.6727L70.4594 37.015C71.0635 36.411 71.0635 35.4304 70.4594 34.8256L66.082 30.4459ZM38.7124 64.39L27.7576 53.4352L29.947 51.251L37.6192 58.9073C38.2232 59.5106 39.2023 59.5106 39.8071 58.9073L64.9873 33.7293L67.1798 35.9218L38.7124 64.39Z" fill="#DDF1FA"/>
</g>
<defs>
<clipPath id="clip0">
<rect width="96" height="96" fill="white"/>
</clipPath>
</defs>
</svg>
